<svg width="16" height="16" viewBox="0 0 16 16" fill="none" xmlns="http://www.w3.org/2000/svg">
<rect width="15.7278" height="15.7278" rx="4.91495" fill="#4A5055"/>
<path fill-rule="evenodd" clip-rule="evenodd" d="M4.90346 8.56993L8.4756 5.06835C8.93519 4.61784 9.68063 4.61784 10.1402 5.06835L10.6173 5.53605C11.0769 5.98656 11.0769 6.71728 10.6173 7.16779L7.03112 10.6832C6.82605 10.8842 6.54802 10.997 6.25783 10.997H4.78914C4.6527 10.997 4.54306 10.8868 4.54646 10.7531L4.58341 9.30043C4.59075 9.02587 4.70536 8.76411 4.90346 8.56993ZM10.2739 5.87268L9.79682 5.40498C9.52683 5.14032 9.08879 5.14032 8.8188 5.40498L8.54158 5.67672L9.99688 7.10297L10.2739 6.83138C10.5439 6.56672 10.5439 6.13734 10.2739 5.87268ZM5.24665 8.90656L8.19828 6.01324L9.65358 7.43949L6.68771 10.3468L6.64826 10.3822C6.53931 10.4717 6.40127 10.5212 6.25772 10.5212L5.03782 10.521L5.06865 9.31271C5.07272 9.16025 5.13654 9.01449 5.24665 8.90656ZM11.1815 10.7592C11.1815 10.6278 11.0728 10.5213 10.9388 10.5213H8.40617L8.37323 10.5234C8.25474 10.5392 8.16342 10.6387 8.16342 10.7592C8.16342 10.8906 8.2721 10.9972 8.40617 10.9972H10.9388L10.9717 10.995C11.0902 10.9792 11.1815 10.8797 11.1815 10.7592Z" fill="white"/>
</svg>
