<svg width="26" height="26" viewBox="0 0 26 26" fill="none" xmlns="http://www.w3.org/2000/svg">
<circle cx="13.0002" cy="13.0002" r="12.6623" fill="#E3B9B9"/>
<circle cx="13.0001" cy="12.3248" r="9.96104" fill="#6C1B1B"/>
<path d="M10.416 23.4703L10.4467 23.2526C5.24573 22.4509 1.48942 17.8759 1.7027 12.6076C1.785 10.5746 2.45402 8.653 3.61612 6.99217L3.44565 6.87579C2.23894 8.55671 1.56815 10.5221 1.48408 12.5988C1.28825 17.9772 5.1066 22.6423 10.416 23.4703Z" fill="#CC1919"/>
<path d="M4.9436 21.8036C4.9436 21.8036 5.86771 22.2351 6.02366 21.6284C5.69512 21.0896 4.9436 21.8036 4.9436 21.8036Z" fill="#CC1919"/>
<path d="M5.91721 20.4638C5.91721 20.4638 6.60943 21.2144 6.0706 21.5429C5.48476 21.4097 5.91721 20.4638 5.91721 20.4638Z" fill="#CC1919"/>
<path d="M4.00276 7.70883C4.00276 7.70883 3.33692 8.47013 2.94102 7.97239C3.03139 7.36297 4.00276 7.70883 4.00276 7.70883Z" fill="#CC1919"/>
<path d="M2.59176 6.86323C2.59176 6.86323 2.26862 7.81356 2.8772 7.92578C3.35222 7.55089 2.59176 6.86323 2.59176 6.86323Z" fill="#CC1919"/>
<path d="M3.58098 8.41442C3.58098 8.41442 2.97896 9.22208 2.55942 8.76719C2.5842 8.15511 3.58098 8.41442 3.58098 8.41442Z" fill="#CC1919"/>
<path d="M2.09807 7.71935C2.09807 7.71935 1.8615 8.69508 2.47274 8.74172C2.92766 8.32222 2.09807 7.71935 2.09807 7.71935Z" fill="#CC1919"/>
<path d="M3.22169 9.16659C3.22169 9.16659 2.68348 10.0206 2.21845 9.60768C2.19951 8.99383 3.22169 9.16659 3.22169 9.16659Z" fill="#CC1919"/>
<path d="M1.66929 8.57716C1.66929 8.57716 1.49741 9.57741 2.13316 9.55936C2.54525 9.11623 1.66929 8.57716 1.66929 8.57716Z" fill="#CC1919"/>
<path d="M2.92722 9.94209C2.92722 9.94209 2.47469 10.8434 1.96417 10.4724C1.9015 9.85677 2.92722 9.94209 2.92722 9.94209Z" fill="#CC1919"/>
<path d="M1.32463 9.50521C1.32463 9.50521 1.2402 10.509 1.85587 10.4463C2.24786 9.9586 1.32463 9.50521 1.32463 9.50521Z" fill="#CC1919"/>
<path d="M2.69824 10.7437C2.69824 10.7437 2.30952 11.6913 1.79723 11.3641C1.66898 10.7458 2.69824 10.7437 2.69824 10.7437Z" fill="#CC1919"/>
<path d="M1.06874 10.4361C1.06874 10.4361 1.07175 11.4434 1.68918 11.337C2.03923 10.8038 1.06874 10.4361 1.06874 10.4361Z" fill="#CC1919"/>
<path d="M2.53271 11.5688C2.53271 11.5688 2.23056 12.5419 1.67278 12.2566C1.49992 11.6584 2.53271 11.5688 2.53271 11.5688Z" fill="#CC1919"/>
<path d="M0.897668 11.3933C0.897668 11.3933 0.988127 12.4042 1.58635 12.2313C1.8717 11.6736 0.897668 11.3933 0.897668 11.3933Z" fill="#CC1919"/>
<path d="M2.43506 12.375C2.43506 12.375 2.21946 13.3735 1.63805 13.131C1.4197 12.5747 2.43506 12.375 2.43506 12.375Z" fill="#CC1919"/>
<path d="M0.79371 12.3521C0.79371 12.3521 0.972496 13.3447 1.55063 13.1272C1.79225 12.5677 0.79371 12.3521 0.79371 12.3521Z" fill="#CC1919"/>
<path d="M2.42285 13.2065C2.42285 13.2065 2.2947 14.2086 1.71064 14.0316C1.4267 13.4728 2.42285 13.2065 2.42285 13.2065Z" fill="#CC1919"/>
<path d="M0.775309 13.3363C0.775309 13.3363 1.04244 14.3105 1.60048 14.0484C1.80015 13.4434 0.775309 13.3363 0.775309 13.3363Z" fill="#CC1919"/>
<path d="M2.47705 14.0405C2.47705 14.0405 2.43634 15.0461 1.82776 14.9339C1.49921 14.3951 2.47705 14.0405 2.47705 14.0405Z" fill="#CC1919"/>
<path d="M0.846131 14.3029C0.846131 14.3029 1.20159 15.2588 1.74042 14.9303C1.87451 14.3227 0.846131 14.3029 0.846131 14.3029Z" fill="#CC1919"/>
<path d="M2.59627 14.8773C2.59627 14.8773 2.64301 15.8864 2.03266 15.8179C1.6595 15.2992 2.59627 14.8773 2.59627 14.8773Z" fill="#CC1919"/>
<path d="M1.0037 15.2724C1.0037 15.2724 1.42651 16.1872 1.94437 15.836C2.01376 15.2038 1.0037 15.2724 1.0037 15.2724Z" fill="#CC1919"/>
<path d="M2.78303 15.6734C2.78303 15.6734 2.91721 16.686 2.30509 16.6612C1.88644 16.1845 2.78303 15.6734 2.78303 15.6734Z" fill="#CC1919"/>
<path d="M1.22879 16.2017C1.22879 16.2017 1.74081 17.0763 2.21672 16.6796C2.2415 16.0675 1.22879 16.2017 1.22879 16.2017Z" fill="#CC1919"/>
<path d="M3.0574 16.4728C3.0574 16.4728 3.27992 17.4672 2.66603 17.4861C2.20189 17.0513 3.0574 16.4728 3.0574 16.4728Z" fill="#CC1919"/>
<path d="M1.54171 17.1332C1.54171 17.1332 2.1211 17.9668 2.55505 17.5246C2.53699 16.8889 1.54171 17.1332 1.54171 17.1332Z" fill="#CC1919"/>
<path d="M3.37658 17.2294C3.37658 17.2294 3.68743 18.2054 3.07177 18.268C2.584 17.8761 3.37658 17.2294 3.37658 17.2294Z" fill="#CC1919"/>
<path d="M1.94285 18.0257C1.94285 18.0257 2.59047 18.7964 2.98158 18.3305C2.9198 17.693 1.94285 18.0257 1.94285 18.0257Z" fill="#CC1919"/>
<path d="M3.76282 17.9684C3.76282 17.9684 4.14102 18.9033 3.54457 19.0324C3.03317 18.6833 3.76282 17.9684 3.76282 17.9684Z" fill="#CC1919"/>
<path d="M2.39044 18.876C2.39044 18.876 3.10629 19.5837 3.45457 19.0942C3.34818 18.4768 2.39044 18.876 2.39044 18.876Z" fill="#CC1919"/>
<path d="M4.21636 18.6648C4.21636 18.6648 4.68378 19.5595 4.08467 19.7542C3.55052 19.4261 4.21636 18.6648 4.21636 18.6648Z" fill="#CC1919"/>
<path d="M2.94852 19.6872C2.94852 19.6872 3.73262 20.3321 4.03894 19.7971C3.84422 19.198 2.94852 19.6872 2.94852 19.6872Z" fill="#CC1919"/>
<path d="M4.73833 19.2991C4.73833 19.2991 5.2731 20.1528 4.71595 20.393C4.13454 20.1505 4.73833 19.2991 4.73833 19.2991Z" fill="#CC1919"/>
<path d="M3.55375 20.4332C3.55375 20.4332 4.38423 21.0142 4.64771 20.4556C4.40838 19.8766 3.55375 20.4332 3.55375 20.4332Z" fill="#CC1919"/>
<path d="M5.30456 19.913C5.30456 19.913 5.92855 20.7265 5.36962 21.0105C4.78644 20.8117 5.30456 19.913 5.30456 19.913Z" fill="#CC1919"/>
<path d="M4.20376 21.1385C4.20376 21.1385 5.08061 21.6557 5.30126 21.0734C5.01732 20.5145 4.20376 21.1385 4.20376 21.1385Z" fill="#CC1919"/>
<path d="M6.57559 20.9718C6.57559 20.9718 7.31419 21.6586 6.81731 22.0326C6.22971 21.9431 6.57559 20.9718 6.57559 20.9718Z" fill="#CC1919"/>
<path d="M5.7303 22.3831C5.7303 22.3831 6.67981 22.7281 6.79204 22.1195C6.418 21.6227 5.7303 22.3831 5.7303 22.3831Z" fill="#CC1919"/>
<path d="M7.28055 21.4164C7.28055 21.4164 8.0874 22.0402 7.61061 22.4588C7.02123 22.4131 7.28055 21.4164 7.28055 21.4164Z" fill="#CC1919"/>
<path d="M6.54274 22.875C6.54274 22.875 7.51766 23.1334 7.58616 22.5231C7.16663 22.0682 6.54274 22.875 6.54274 22.875Z" fill="#CC1919"/>
<path d="M8.03152 21.7977C8.03152 21.7977 8.88474 22.3577 8.45079 22.8C7.83778 22.797 8.03152 21.7977 8.03152 21.7977Z" fill="#CC1919"/>
<path d="M7.42214 23.3273C7.42214 23.3273 8.42158 23.521 8.42538 22.8862C7.96124 22.4514 7.42214 23.3273 7.42214 23.3273Z" fill="#CC1919"/>
<path d="M8.80679 22.1139C8.80679 22.1139 9.70727 22.5883 9.31527 23.076C8.69961 23.1387 8.80679 22.1139 8.80679 22.1139Z" fill="#CC1919"/>
<path d="M8.32723 23.6928C8.32723 23.6928 9.3302 23.7991 9.29028 23.1625C8.80251 22.7705 8.32723 23.6928 8.32723 23.6928Z" fill="#CC1919"/>
<path d="M9.58502 22.3639C9.58502 22.3639 10.51 22.7736 10.1827 23.2859C9.56529 23.3922 9.58502 22.3639 9.58502 22.3639Z" fill="#CC1919"/>
<path d="M9.25738 23.9711C9.25738 23.9711 10.2639 23.99 10.1794 23.3735C9.6461 23.0235 9.25738 23.9711 9.25738 23.9711Z" fill="#CC1919"/>
<path d="M4.30469 6.20996C4.30469 6.20996 2.86687 6.56777 3.22764 7.39252C4.09148 7.69024 4.30469 6.20996 4.30469 6.20996Z" fill="#CC1919"/>
<path d="M13.1693 22.2852L13.5562 23.4866H14.8576L13.8024 24.158L14.2245 25.3241L13.1693 24.5467L12.1492 25.2888L12.5362 24.158L11.481 23.4866H12.7824L13.1693 22.2852Z" fill="#CC1919"/>
<path d="M15.5669 23.4703L15.5362 23.2526C20.7372 22.4509 24.4935 17.8759 24.2802 12.6076C24.1979 10.5746 23.5289 8.653 22.3668 6.99217L22.5373 6.87579C23.744 8.55671 24.4148 10.5221 24.4988 12.5988C24.6947 17.9772 20.8763 22.6423 15.5669 23.4703Z" fill="#CC1919"/>
<path d="M21.0393 21.8036C21.0393 21.8036 20.1152 22.2351 19.9592 21.6284C20.2878 21.0896 21.0393 21.8036 21.0393 21.8036Z" fill="#CC1919"/>
<path d="M20.0657 20.4638C20.0657 20.4638 19.3735 21.2144 19.9123 21.5429C20.4981 21.4097 20.0657 20.4638 20.0657 20.4638Z" fill="#CC1919"/>
<path d="M21.9801 7.70883C21.9801 7.70883 22.646 8.47013 23.0419 7.97239C22.9515 7.36297 21.9801 7.70883 21.9801 7.70883Z" fill="#CC1919"/>
<path d="M23.3912 6.86323C23.3912 6.86323 23.7143 7.81356 23.1057 7.92578C22.6307 7.55089 23.3912 6.86323 23.3912 6.86323Z" fill="#CC1919"/>
<path d="M22.4024 8.41442C22.4024 8.41442 23.0044 9.22208 23.424 8.76719C23.3992 8.15511 22.4024 8.41442 22.4024 8.41442Z" fill="#CC1919"/>
<path d="M23.8853 7.71935C23.8853 7.71935 24.1219 8.69508 23.5107 8.74172C23.0557 8.32222 23.8853 7.71935 23.8853 7.71935Z" fill="#CC1919"/>
<path d="M22.7612 9.16659C22.7612 9.16659 23.2994 10.0206 23.7645 9.60768C23.7834 8.99383 22.7612 9.16659 22.7612 9.16659Z" fill="#CC1919"/>
<path d="M24.3136 8.57716C24.3136 8.57716 24.4855 9.57741 23.8497 9.55936C23.4377 9.11623 24.3136 8.57716 24.3136 8.57716Z" fill="#CC1919"/>
<path d="M23.0557 9.94209C23.0557 9.94209 23.5082 10.8434 24.0187 10.4724C24.0814 9.85677 23.0557 9.94209 23.0557 9.94209Z" fill="#CC1919"/>
<path d="M24.6583 9.50521C24.6583 9.50521 24.7427 10.509 24.127 10.4463C23.735 9.9586 24.6583 9.50521 24.6583 9.50521Z" fill="#CC1919"/>
<path d="M23.2847 10.7437C23.2847 10.7437 23.6734 11.6913 24.1857 11.3641C24.3139 10.7458 23.2847 10.7437 23.2847 10.7437Z" fill="#CC1919"/>
<path d="M24.9142 10.4361C24.9142 10.4361 24.9112 11.4434 24.2937 11.337C23.9437 10.8038 24.9142 10.4361 24.9142 10.4361Z" fill="#CC1919"/>
<path d="M23.4502 11.5688C23.4502 11.5688 23.7524 12.5419 24.3101 12.2566C24.483 11.6584 23.4502 11.5688 23.4502 11.5688Z" fill="#CC1919"/>
<path d="M25.0852 11.3933C25.0852 11.3933 24.9948 12.4042 24.3966 12.2313C24.1112 11.6736 25.0852 11.3933 25.0852 11.3933Z" fill="#CC1919"/>
<path d="M23.5479 12.375C23.5479 12.375 23.7635 13.3735 24.3449 13.131C24.5632 12.5747 23.5479 12.375 23.5479 12.375Z" fill="#CC1919"/>
<path d="M25.1892 12.3521C25.1892 12.3521 25.0104 13.3447 24.4323 13.1272C24.1907 12.5677 25.1892 12.3521 25.1892 12.3521Z" fill="#CC1919"/>
<path d="M23.5601 13.2065C23.5601 13.2065 23.6882 14.2086 24.2723 14.0316C24.5562 13.4728 23.5601 13.2065 23.5601 13.2065Z" fill="#CC1919"/>
<path d="M25.2076 13.3363C25.2076 13.3363 24.9405 14.3105 24.3824 14.0484C24.1828 13.4434 25.2076 13.3363 25.2076 13.3363Z" fill="#CC1919"/>
<path d="M23.5059 14.0405C23.5059 14.0405 23.5466 15.0461 24.1552 14.9339C24.4837 14.3951 23.5059 14.0405 23.5059 14.0405Z" fill="#CC1919"/>
<path d="M25.1368 14.3029C25.1368 14.3029 24.7813 15.2588 24.2425 14.9303C24.1084 14.3227 25.1368 14.3029 25.1368 14.3029Z" fill="#CC1919"/>
<path d="M23.3866 14.8773C23.3866 14.8773 23.3399 15.8864 23.9503 15.8179C24.3234 15.2992 23.3866 14.8773 23.3866 14.8773Z" fill="#CC1919"/>
<path d="M24.9792 15.2724C24.9792 15.2724 24.5564 16.1872 24.0385 15.836C23.9692 15.2038 24.9792 15.2724 24.9792 15.2724Z" fill="#CC1919"/>
<path d="M23.1999 15.6734C23.1999 15.6734 23.0657 16.686 23.6778 16.6612C24.0965 16.1845 23.1999 15.6734 23.1999 15.6734Z" fill="#CC1919"/>
<path d="M24.7541 16.2017C24.7541 16.2017 24.2421 17.0763 23.7662 16.6796C23.7414 16.0675 24.7541 16.2017 24.7541 16.2017Z" fill="#CC1919"/>
<path d="M22.9255 16.4728C22.9255 16.4728 22.703 17.4672 23.3169 17.4861C23.781 17.0513 22.9255 16.4728 22.9255 16.4728Z" fill="#CC1919"/>
<path d="M24.4412 17.1332C24.4412 17.1332 23.8618 17.9668 23.4279 17.5246C23.4459 16.8889 24.4412 17.1332 24.4412 17.1332Z" fill="#CC1919"/>
<path d="M22.6063 17.2294C22.6063 17.2294 22.2955 18.2054 22.9111 18.268C23.3989 17.8761 22.6063 17.2294 22.6063 17.2294Z" fill="#CC1919"/>
<path d="M24.0401 18.0257C24.0401 18.0257 23.3924 18.7964 23.0013 18.3305C23.0631 17.693 24.0401 18.0257 24.0401 18.0257Z" fill="#CC1919"/>
<path d="M22.2201 17.9684C22.2201 17.9684 21.8419 18.9033 22.4383 19.0324C22.9497 18.6833 22.2201 17.9684 22.2201 17.9684Z" fill="#CC1919"/>
<path d="M23.5925 18.876C23.5925 18.876 22.8766 19.5837 22.5283 19.0942C22.6347 18.4768 23.5925 18.876 23.5925 18.876Z" fill="#CC1919"/>
<path d="M21.7665 18.6648C21.7665 18.6648 21.2991 19.5595 21.8982 19.7542C22.4324 19.4261 21.7665 18.6648 21.7665 18.6648Z" fill="#CC1919"/>
<path d="M23.0344 19.6872C23.0344 19.6872 22.2503 20.3321 21.944 19.7971C22.1387 19.198 23.0344 19.6872 23.0344 19.6872Z" fill="#CC1919"/>
<path d="M21.2446 19.2991C21.2446 19.2991 20.7098 20.1528 21.267 20.393C21.8484 20.1505 21.2446 19.2991 21.2446 19.2991Z" fill="#CC1919"/>
<path d="M22.4292 20.4332C22.4292 20.4332 21.5987 21.0142 21.3352 20.4556C21.5745 19.8766 22.4292 20.4332 22.4292 20.4332Z" fill="#CC1919"/>
<path d="M20.6783 19.913C20.6783 19.913 20.0544 20.7265 20.6133 21.0105C21.1965 20.8117 20.6783 19.913 20.6783 19.913Z" fill="#CC1919"/>
<path d="M21.7792 21.1385C21.7792 21.1385 20.9023 21.6557 20.6817 21.0734C20.9656 20.5145 21.7792 21.1385 21.7792 21.1385Z" fill="#CC1919"/>
<path d="M19.4073 20.9718C19.4073 20.9718 18.6687 21.6586 19.1656 22.0326C19.7532 21.9431 19.4073 20.9718 19.4073 20.9718Z" fill="#CC1919"/>
<path d="M20.2526 22.3831C20.2526 22.3831 19.3031 22.7281 19.1909 22.1195C19.5649 21.6227 20.2526 22.3831 20.2526 22.3831Z" fill="#CC1919"/>
<path d="M18.7024 21.4164C18.7024 21.4164 17.8955 22.0402 18.3723 22.4588C18.9617 22.4131 18.7024 21.4164 18.7024 21.4164Z" fill="#CC1919"/>
<path d="M19.4402 22.875C19.4402 22.875 18.4652 23.1334 18.3967 22.5231C18.8163 22.0682 19.4402 22.875 19.4402 22.875Z" fill="#CC1919"/>
<path d="M17.9514 21.7977C17.9514 21.7977 17.0982 22.3577 17.5321 22.8C18.1451 22.797 17.9514 21.7977 17.9514 21.7977Z" fill="#CC1919"/>
<path d="M18.5608 23.3273C18.5608 23.3273 17.5613 23.521 17.5575 22.8862C18.0217 22.4514 18.5608 23.3273 18.5608 23.3273Z" fill="#CC1919"/>
<path d="M17.1761 22.1139C17.1761 22.1139 16.2756 22.5883 16.6676 23.076C17.2833 23.1387 17.1761 22.1139 17.1761 22.1139Z" fill="#CC1919"/>
<path d="M17.6557 23.6928C17.6557 23.6928 16.6527 23.7991 16.6926 23.1625C17.1804 22.7705 17.6557 23.6928 17.6557 23.6928Z" fill="#CC1919"/>
<path d="M16.3979 22.3639C16.3979 22.3639 15.4729 22.7736 15.8002 23.2859C16.4176 23.3922 16.3979 22.3639 16.3979 22.3639Z" fill="#CC1919"/>
<path d="M16.7255 23.9711C16.7255 23.9711 15.719 23.99 15.8035 23.3735C16.3368 23.0235 16.7255 23.9711 16.7255 23.9711Z" fill="#CC1919"/>
<path d="M21.6782 6.20996C21.6782 6.20996 23.116 6.56777 22.7553 7.39252C21.8914 7.69024 21.6782 6.20996 21.6782 6.20996Z" fill="#CC1919"/>
</svg>
