<svg width="12" height="12" viewBox="0 0 12 12" fill="none" xmlns="http://www.w3.org/2000/svg">
<path d="M12 5.9968L6.52931 0V3.59216H5.89381C4.31957 3.59216 2.83948 4.20502 1.72627 5.31784C0.613064 6.43066 0 7.91025 0 9.48404V12L1.04992 10.85C2.45436 9.31183 4.44797 8.42203 6.52931 8.40179V11.9937L12 5.9968ZM0.703458 10.1922V9.48404C0.703458 8.09811 1.24335 6.79504 2.22366 5.81506C3.20398 4.83508 4.50741 4.29538 5.89381 4.29538H7.23268V1.81467L11.0481 5.9968L7.23268 10.179V7.6983H6.60157C4.3812 7.6983 2.24601 8.60422 0.703458 10.1922Z" fill="#EC6537"/>
</svg>
