<svg width="17" height="24" viewBox="0 0 17 24" fill="none" xmlns="http://www.w3.org/2000/svg">
<path d="M16.0152 6.0138C15.2562 3.37996 13.2609 1.2367 10.8082 0.421581C8.21218 -0.441937 5.45016 0.0379913 3.34192 1.7061C1.24922 3.3627 0 6.01642 0 8.80462C0 10.7281 0.566644 12.5555 1.63829 14.0889L8.20797 23.1356L14.7777 14.0883C16.3814 11.7921 16.8328 8.849 16.0152 6.0138ZM8.20797 13.5506C5.77122 13.5506 3.7883 11.4213 3.7883 8.80458C3.7883 6.18791 5.77122 4.05857 8.20797 4.05857C10.6447 4.05857 12.6276 6.18791 12.6276 8.80458C12.6276 11.4213 10.6447 13.5506 8.20797 13.5506Z" fill="#CC1919"/>
<path d="M8.20792 5.42383C6.4673 5.42383 5.05103 6.93564 5.05103 8.80479C5.05103 10.6739 6.4673 12.1948 8.20792 12.1948C9.94854 12.1948 11.3648 10.6739 11.3648 8.80479C11.3649 6.93564 9.94854 5.42383 8.20792 5.42383Z" fill="#CC1919"/>
</svg>
