<svg width="28" height="24" viewBox="0 0 28 24" fill="none" xmlns="http://www.w3.org/2000/svg">
<g clip-path="url(#clip0_18224_368)">
<path d="M21.4286 0.5H6C2.96243 0.5 0.5 2.96243 0.5 6V18C0.5 21.0376 2.96243 23.5 6 23.5H21.4286C24.4662 23.5 26.9286 21.0376 26.9286 18V6C26.9286 2.96243 24.4662 0.5 21.4286 0.5Z" fill="white" stroke="white"/>
<path d="M21.4477 6.35151C21.9164 6.82018 21.9164 7.58132 21.4477 8.04999L11.8492 17.6485C11.3806 18.1172 10.6194 18.1172 10.1508 17.6485L5.35151 12.8492C4.88283 12.3806 4.88283 11.6194 5.35151 11.1508C5.82018 10.6821 6.58132 10.6821 7.04999 11.1508L11.0019 15.0989L19.753 6.35151C20.2217 5.88283 20.9828 5.88283 21.4515 6.35151H21.4477Z" fill="#227259"/>
</g>
<defs>
<clipPath id="clip0_18224_368">
<rect width="28" height="24" fill="white"/>
</clipPath>
</defs>
</svg>
