<svg width="27" height="28" viewBox="0 0 27 28" fill="none" xmlns="http://www.w3.org/2000/svg">
<g clip-path="url(#clip0_428_18894)">
<path d="M23.046 4.15424C20.4962 1.60445 17.1059 0.200195 13.5 0.200195C9.89408 0.200195 6.50384 1.60445 3.95405 4.15424C1.40426 6.70403 0 10.0943 0 13.7002C0 17.3061 1.40426 20.6964 3.95405 23.2461C6.50384 25.7959 9.89408 27.2002 13.5 27.2002C17.1059 27.2002 20.4962 25.7959 23.046 23.2461C25.5957 20.6964 27 17.3061 27 13.7002C27 10.0943 25.5957 6.70403 23.046 4.15424ZM5.85908 22.8389C6.30485 19.0033 9.6026 16.0419 13.5 16.0419C15.5546 16.0419 17.4866 16.8424 18.9399 18.2955C20.1676 19.5234 20.9419 21.1267 21.1411 22.8387C19.0709 24.5725 16.4053 25.6182 13.5 25.6182C10.5947 25.6182 7.92931 24.5727 5.85908 22.8389ZM13.5 14.4125C11.2392 14.4125 9.3997 12.573 9.3997 10.3122C9.3997 8.05123 11.2392 6.21191 13.5 6.21191C15.7608 6.21191 17.6003 8.05123 17.6003 10.3122C17.6003 12.573 15.7608 14.4125 13.5 14.4125ZM22.5027 21.5014C22.0996 19.8761 21.259 18.3775 20.0584 17.177C19.0861 16.2047 17.9359 15.4752 16.6814 15.0181C18.1894 13.9954 19.1823 12.2675 19.1823 10.3122C19.1823 7.17905 16.6332 4.62988 13.5 4.62988C10.3668 4.62988 7.81767 7.17905 7.81767 10.3122C7.81767 12.2685 8.81138 13.997 10.3207 15.0196C9.16651 15.4402 8.09843 16.0905 7.1795 16.9467C5.84878 18.1859 4.92469 19.7661 4.49622 21.5001C2.68163 19.4083 1.58203 16.6803 1.58203 13.7002C1.58203 7.12859 6.92839 1.78223 13.5 1.78223C20.0716 1.78223 25.418 7.12859 25.418 13.7002C25.418 16.6809 24.318 19.4095 22.5027 21.5014Z" fill="white"/>
</g>
<defs>
<clipPath id="clip0_428_18894">
<rect width="27" height="27" fill="white" transform="translate(0 0.200195)"/>
</clipPath>
</defs>
</svg>
