<svg width="25" height="25" viewBox="0 0 25 25" fill="none" xmlns="http://www.w3.org/2000/svg">
<path d="M12.4998 15.4168V3.3335M12.4998 3.3335L9.1665 6.66683M12.4998 3.3335L15.8332 6.66683" stroke="#EC6537" stroke-width="1.25" stroke-linecap="round"/>
<path fill-rule="evenodd" clip-rule="evenodd" d="M9.16667 8.75H7.08333C5.93274 8.75 5 9.68274 5 10.8333V20C5 21.1506 5.93274 22.0833 7.08333 22.0833H17.9167C19.0673 22.0833 20 21.1506 20 20V10.8333C20 9.68274 19.0673 8.75 17.9167 8.75H15.8333V10H17.9167C18.3769 10 18.75 10.3731 18.75 10.8333V20C18.75 20.4602 18.3769 20.8333 17.9167 20.8333H7.08333C6.6231 20.8333 6.25 20.4602 6.25 20V10.8333C6.25 10.3731 6.6231 10 7.08333 10H9.16667V8.75Z" fill="#EC6537"/>
</svg>
