<svg width="31" height="31" viewBox="0 0 31 31" fill="none" xmlns="http://www.w3.org/2000/svg">
<circle cx="15.5" cy="15.5" r="15.5" fill="#E85D32"/>
<path d="M16.5 10.75C16.5 10.5511 16.421 10.3603 16.2803 10.2197C16.1397 10.079 15.9489 10 15.75 10C15.5511 10 15.3603 10.079 15.2197 10.2197C15.079 10.3603 15 10.5511 15 10.75V14H11.75C11.5511 14 11.3603 14.079 11.2197 14.2197C11.079 14.3603 11 14.5511 11 14.75C11 14.9489 11.079 15.1397 11.2197 15.2803C11.3603 15.421 11.5511 15.5 11.75 15.5H15V18.75C15 18.9489 15.079 19.1397 15.2197 19.2803C15.3603 19.421 15.5511 19.5 15.75 19.5C15.9489 19.5 16.1397 19.421 16.2803 19.2803C16.421 19.1397 16.5 18.9489 16.5 18.75V15.5H19.75C19.9489 15.5 20.1397 15.421 20.2803 15.2803C20.421 15.1397 20.5 14.9489 20.5 14.75C20.5 14.5511 20.421 14.3603 20.2803 14.2197C20.1397 14.079 19.9489 14 19.75 14H16.5V10.75Z" fill="white"/>
</svg>
