<svg width="164" height="135" viewBox="0 0 164 135" fill="none" xmlns="http://www.w3.org/2000/svg">
<g clip-path="url(#clip0_428_18286)">
<path d="M139.039 54H24.1287C20.1751 54 16.9717 55.0767 16.9717 56.4048C16.9717 57.7329 20.1751 58.8096 24.1287 58.8096H139.039C142.993 58.8096 146.196 57.7329 146.196 56.4048C146.197 55.0767 142.994 54 139.039 54Z" fill="#C4C4C4"/>
<path d="M139.039 54H24.1287C20.1751 54 16.9717 55.0767 16.9717 56.4048C16.9717 57.7329 20.1751 58.8096 24.1287 58.8096H139.039C142.993 58.8096 146.196 57.7329 146.196 56.4048C146.197 55.0767 142.994 54 139.039 54Z" fill="#E4572E"/>
<path d="M139.039 54H24.1287C20.1751 54 16.9717 55.0767 16.9717 56.4048C16.9717 57.7329 20.1751 58.8096 24.1287 58.8096H139.039C142.993 58.8096 146.196 57.7329 146.196 56.4048C146.197 55.0767 142.994 54 139.039 54Z" fill="url(#paint0_linear_428_18286)"/>
<path d="M139.039 66.6621H24.1287C20.1751 66.6621 16.9717 67.7388 16.9717 69.0669C16.9717 70.395 20.1751 71.4717 24.1287 71.4717H139.039C142.993 71.4717 146.196 70.395 146.196 69.0669C146.197 67.7388 142.994 66.6621 139.039 66.6621Z" fill="#C4C4C4"/>
<path d="M139.039 66.6621H24.1287C20.1751 66.6621 16.9717 67.7388 16.9717 69.0669C16.9717 70.395 20.1751 71.4717 24.1287 71.4717H139.039C142.993 71.4717 146.196 70.395 146.196 69.0669C146.197 67.7388 142.994 66.6621 139.039 66.6621Z" fill="#E4572E"/>
<path d="M139.039 66.6621H24.1287C20.1751 66.6621 16.9717 67.7388 16.9717 69.0669C16.9717 70.395 20.1751 71.4717 24.1287 71.4717H139.039C142.993 71.4717 146.196 70.395 146.196 69.0669C146.197 67.7388 142.994 66.6621 139.039 66.6621Z" fill="url(#paint1_linear_428_18286)"/>
<path d="M139.039 79.3252H24.1287C20.1751 79.3252 16.9717 80.4019 16.9717 81.73C16.9717 83.0581 20.1751 84.1348 24.1287 84.1348H139.039C142.993 84.1348 146.196 83.0581 146.196 81.73C146.197 80.4019 142.994 79.3252 139.039 79.3252Z" fill="#C4C4C4"/>
<path d="M139.039 79.3252H24.1287C20.1751 79.3252 16.9717 80.4019 16.9717 81.73C16.9717 83.0581 20.1751 84.1348 24.1287 84.1348H139.039C142.993 84.1348 146.196 83.0581 146.196 81.73C146.197 80.4019 142.994 79.3252 139.039 79.3252Z" fill="#E4572E"/>
<path d="M139.039 79.3252H24.1287C20.1751 79.3252 16.9717 80.4019 16.9717 81.73C16.9717 83.0581 20.1751 84.1348 24.1287 84.1348H139.039C142.993 84.1348 146.196 83.0581 146.196 81.73C146.197 80.4019 142.994 79.3252 139.039 79.3252Z" fill="url(#paint2_linear_428_18286)"/>
<path d="M139.039 91.9878H24.1287C20.1751 91.9878 16.9717 93.0645 16.9717 94.3926C16.9717 95.7207 20.1751 96.7974 24.1287 96.7974H139.039C142.993 96.7974 146.196 95.7207 146.196 94.3926C146.197 93.0645 142.994 91.9878 139.039 91.9878Z" fill="#C4C4C4"/>
<path d="M139.039 91.9878H24.1287C20.1751 91.9878 16.9717 93.0645 16.9717 94.3926C16.9717 95.7207 20.1751 96.7974 24.1287 96.7974H139.039C142.993 96.7974 146.196 95.7207 146.196 94.3926C146.197 93.0645 142.994 91.9878 139.039 91.9878Z" fill="#E4572E"/>
<path d="M139.039 91.9878H24.1287C20.1751 91.9878 16.9717 93.0645 16.9717 94.3926C16.9717 95.7207 20.1751 96.7974 24.1287 96.7974H139.039C142.993 96.7974 146.196 95.7207 146.196 94.3926C146.197 93.0645 142.994 91.9878 139.039 91.9878Z" fill="url(#paint3_linear_428_18286)"/>
<path d="M139.039 104.65H24.1287C20.1751 104.65 16.9717 105.727 16.9717 107.055C16.9717 108.383 20.1751 109.46 24.1287 109.46H139.039C142.993 109.46 146.196 108.383 146.196 107.055C146.197 105.727 142.994 104.65 139.039 104.65Z" fill="#C4C4C4"/>
<path d="M139.039 104.65H24.1287C20.1751 104.65 16.9717 105.727 16.9717 107.055C16.9717 108.383 20.1751 109.46 24.1287 109.46H139.039C142.993 109.46 146.196 108.383 146.196 107.055C146.197 105.727 142.994 104.65 139.039 104.65Z" fill="#E4572E"/>
<path d="M139.039 104.65H24.1287C20.1751 104.65 16.9717 105.727 16.9717 107.055C16.9717 108.383 20.1751 109.46 24.1287 109.46H139.039C142.993 109.46 146.196 108.383 146.196 107.055C146.197 105.727 142.994 104.65 139.039 104.65Z" fill="url(#paint4_linear_428_18286)"/>
<path d="M161.147 79.2587C162.471 79.2587 163.543 78.3732 163.543 77.2811V29.4252C163.543 26.5156 160.675 24.1488 157.15 24.1488H126.156V21.7212C126.156 18.8116 123.288 16.4446 119.763 16.4446H96.7573V6.96245C96.7573 4.23424 94.0685 2.01465 90.7634 2.01465H87.3616C86.0382 2.01465 84.966 2.90006 84.966 3.99219C84.966 5.08432 86.0382 5.96973 87.3616 5.96973H90.7634C91.4262 5.96973 91.9657 6.41481 91.9657 6.96219C91.9657 10.7024 91.9657 28.0522 91.9657 30.8743H71.5772C71.5772 28.1306 71.5772 9.70543 71.5772 6.96219C71.5772 6.41507 72.1163 5.96973 72.7794 5.96973H76.1813C77.5046 5.96973 78.5769 5.08432 78.5769 3.99219C78.5769 2.90006 77.5046 2.01465 76.1813 2.01465H72.7794C69.4741 2.01465 66.7855 4.23424 66.7855 6.96245V16.4444H43.7793C40.2545 16.4444 37.3871 18.8116 37.3871 21.721V24.1486H6.39223C2.86775 24.1488 0 26.5156 0 29.4252V127.709C0 130.619 2.86775 132.985 6.39223 132.985H157.15C160.675 132.985 163.543 130.618 163.543 127.709V86.5104C163.543 85.4183 162.471 84.5329 161.147 84.5329C159.824 84.5329 158.752 85.4183 158.752 86.5104V127.709C158.752 128.437 158.034 129.03 157.151 129.03H6.39223C5.50967 129.03 4.79161 128.437 4.79161 127.709V29.4249C4.79161 28.6964 5.50967 28.1037 6.39223 28.1037H66.7855V30.8741H66.4875C65.1642 30.8741 64.0919 31.7595 64.0919 32.8516C64.0919 33.9437 65.1642 34.8291 66.4875 34.8291C69.7025 34.8291 93.9145 34.8291 97.0547 34.8291C98.3781 34.8291 99.4503 33.9437 99.4503 32.8516C99.4503 31.7595 98.3781 30.8741 97.0547 30.8741H96.757V28.1037H157.15C158.033 28.1037 158.751 28.6964 158.751 29.4249V77.2809C158.751 78.3732 159.824 79.2587 161.147 79.2587ZM66.7859 24.1486H42.1787V21.721C42.1787 20.9924 42.8968 20.3997 43.7793 20.3997H66.7855V24.1486H66.7859ZM121.364 24.1486H96.7573V20.3997H119.763C120.646 20.3997 121.364 20.9924 121.364 21.721V24.1486H121.364Z" fill="#C4C4C4"/>
<path d="M161.147 79.2587C162.471 79.2587 163.543 78.3732 163.543 77.2811V29.4252C163.543 26.5156 160.675 24.1488 157.15 24.1488H126.156V21.7212C126.156 18.8116 123.288 16.4446 119.763 16.4446H96.7573V6.96245C96.7573 4.23424 94.0685 2.01465 90.7634 2.01465H87.3616C86.0382 2.01465 84.966 2.90006 84.966 3.99219C84.966 5.08432 86.0382 5.96973 87.3616 5.96973H90.7634C91.4262 5.96973 91.9657 6.41481 91.9657 6.96219C91.9657 10.7024 91.9657 28.0522 91.9657 30.8743H71.5772C71.5772 28.1306 71.5772 9.70543 71.5772 6.96219C71.5772 6.41507 72.1163 5.96973 72.7794 5.96973H76.1813C77.5046 5.96973 78.5769 5.08432 78.5769 3.99219C78.5769 2.90006 77.5046 2.01465 76.1813 2.01465H72.7794C69.4741 2.01465 66.7855 4.23424 66.7855 6.96245V16.4444H43.7793C40.2545 16.4444 37.3871 18.8116 37.3871 21.721V24.1486H6.39223C2.86775 24.1488 0 26.5156 0 29.4252V127.709C0 130.619 2.86775 132.985 6.39223 132.985H157.15C160.675 132.985 163.543 130.618 163.543 127.709V86.5104C163.543 85.4183 162.471 84.5329 161.147 84.5329C159.824 84.5329 158.752 85.4183 158.752 86.5104V127.709C158.752 128.437 158.034 129.03 157.151 129.03H6.39223C5.50967 129.03 4.79161 128.437 4.79161 127.709V29.4249C4.79161 28.6964 5.50967 28.1037 6.39223 28.1037H66.7855V30.8741H66.4875C65.1642 30.8741 64.0919 31.7595 64.0919 32.8516C64.0919 33.9437 65.1642 34.8291 66.4875 34.8291C69.7025 34.8291 93.9145 34.8291 97.0547 34.8291C98.3781 34.8291 99.4503 33.9437 99.4503 32.8516C99.4503 31.7595 98.3781 30.8741 97.0547 30.8741H96.757V28.1037H157.15C158.033 28.1037 158.751 28.6964 158.751 29.4249V77.2809C158.751 78.3732 159.824 79.2587 161.147 79.2587ZM66.7859 24.1486H42.1787V21.721C42.1787 20.9924 42.8968 20.3997 43.7793 20.3997H66.7855V24.1486H66.7859ZM121.364 24.1486H96.7573V20.3997H119.763C120.646 20.3997 121.364 20.9924 121.364 21.721V24.1486H121.364Z" fill="#E4572E"/>
<path d="M161.147 79.2587C162.471 79.2587 163.543 78.3732 163.543 77.2811V29.4252C163.543 26.5156 160.675 24.1488 157.15 24.1488H126.156V21.7212C126.156 18.8116 123.288 16.4446 119.763 16.4446H96.7573V6.96245C96.7573 4.23424 94.0685 2.01465 90.7634 2.01465H87.3616C86.0382 2.01465 84.966 2.90006 84.966 3.99219C84.966 5.08432 86.0382 5.96973 87.3616 5.96973H90.7634C91.4262 5.96973 91.9657 6.41481 91.9657 6.96219C91.9657 10.7024 91.9657 28.0522 91.9657 30.8743H71.5772C71.5772 28.1306 71.5772 9.70543 71.5772 6.96219C71.5772 6.41507 72.1163 5.96973 72.7794 5.96973H76.1813C77.5046 5.96973 78.5769 5.08432 78.5769 3.99219C78.5769 2.90006 77.5046 2.01465 76.1813 2.01465H72.7794C69.4741 2.01465 66.7855 4.23424 66.7855 6.96245V16.4444H43.7793C40.2545 16.4444 37.3871 18.8116 37.3871 21.721V24.1486H6.39223C2.86775 24.1488 0 26.5156 0 29.4252V127.709C0 130.619 2.86775 132.985 6.39223 132.985H157.15C160.675 132.985 163.543 130.618 163.543 127.709V86.5104C163.543 85.4183 162.471 84.5329 161.147 84.5329C159.824 84.5329 158.752 85.4183 158.752 86.5104V127.709C158.752 128.437 158.034 129.03 157.151 129.03H6.39223C5.50967 129.03 4.79161 128.437 4.79161 127.709V29.4249C4.79161 28.6964 5.50967 28.1037 6.39223 28.1037H66.7855V30.8741H66.4875C65.1642 30.8741 64.0919 31.7595 64.0919 32.8516C64.0919 33.9437 65.1642 34.8291 66.4875 34.8291C69.7025 34.8291 93.9145 34.8291 97.0547 34.8291C98.3781 34.8291 99.4503 33.9437 99.4503 32.8516C99.4503 31.7595 98.3781 30.8741 97.0547 30.8741H96.757V28.1037H157.15C158.033 28.1037 158.751 28.6964 158.751 29.4249V77.2809C158.751 78.3732 159.824 79.2587 161.147 79.2587ZM66.7859 24.1486H42.1787V21.721C42.1787 20.9924 42.8968 20.3997 43.7793 20.3997H66.7855V24.1486H66.7859ZM121.364 24.1486H96.7573V20.3997H119.763C120.646 20.3997 121.364 20.9924 121.364 21.721V24.1486H121.364Z" fill="url(#paint5_linear_428_18286)"/>
</g>
<defs>
<linearGradient id="paint0_linear_428_18286" x1="81.584" y1="54" x2="81.584" y2="58.8096" gradientUnits="userSpaceOnUse">
<stop stop-color="#FA7C47"/>
<stop offset="1" stop-color="#E4572E"/>
</linearGradient>
<linearGradient id="paint1_linear_428_18286" x1="81.584" y1="66.6621" x2="81.584" y2="71.4717" gradientUnits="userSpaceOnUse">
<stop stop-color="#FA7C47"/>
<stop offset="1" stop-color="#E4572E"/>
</linearGradient>
<linearGradient id="paint2_linear_428_18286" x1="81.584" y1="79.3252" x2="81.584" y2="84.1348" gradientUnits="userSpaceOnUse">
<stop stop-color="#FA7C47"/>
<stop offset="1" stop-color="#E4572E"/>
</linearGradient>
<linearGradient id="paint3_linear_428_18286" x1="81.584" y1="91.9878" x2="81.584" y2="96.7974" gradientUnits="userSpaceOnUse">
<stop stop-color="#FA7C47"/>
<stop offset="1" stop-color="#E4572E"/>
</linearGradient>
<linearGradient id="paint4_linear_428_18286" x1="81.584" y1="104.65" x2="81.584" y2="109.46" gradientUnits="userSpaceOnUse">
<stop stop-color="#FA7C47"/>
<stop offset="1" stop-color="#E4572E"/>
</linearGradient>
<linearGradient id="paint5_linear_428_18286" x1="81.7714" y1="2.01465" x2="81.7714" y2="132.985" gradientUnits="userSpaceOnUse">
<stop stop-color="#FA7C47"/>
<stop offset="1" stop-color="#E4572E"/>
</linearGradient>
<clipPath id="clip0_428_18286">
<rect width="163.543" height="135" fill="white"/>
</clipPath>
</defs>
</svg>
