<svg width="19" height="22" viewBox="0 0 19 22" fill="none" xmlns="http://www.w3.org/2000/svg">
<path d="M9.42857 0C11.9292 0 14.3274 0.993365 16.0956 2.76156C17.8638 4.52977 18.8571 6.92796 18.8571 9.42857C18.8571 13.332 15.8819 17.4219 10.0571 21.7905C9.8758 21.9265 9.65525 22 9.42857 22C9.2019 22 8.98134 21.9265 8.8 21.7905C2.97524 17.4219 0 13.332 0 9.42857C0 6.92796 0.993364 4.52977 2.76156 2.76156C4.52976 0.993365 6.92796 0 9.42857 0ZM9.42857 6.28571C8.59503 6.28571 7.79564 6.61684 7.20624 7.20624C6.61684 7.79564 6.28571 8.59503 6.28571 9.42857C6.28571 10.2621 6.61684 11.0615 7.20624 11.6509C7.79564 12.2403 8.59503 12.5714 9.42857 12.5714C10.2621 12.5714 11.0615 12.2403 11.6509 11.6509C12.2403 11.0615 12.5714 10.2621 12.5714 9.42857C12.5714 8.59503 12.2403 7.79564 11.6509 7.20624C11.0615 6.61684 10.2621 6.28571 9.42857 6.28571Z" fill="#FFF500"/>
</svg>
