<svg width="168" height="187" viewBox="0 0 168 187" fill="none" xmlns="http://www.w3.org/2000/svg">
<g clip-path="url(#clip0_428_2904)">
<path d="M43.8939 43.2294C47.1643 43.5983 48.5414 41.1639 48.5414 41.1639L48.7873 38.9753C49.4266 38.6557 50.2873 37.7704 50.2873 37.7704L50.4594 35.2376C50.9512 34.6721 55.6725 34.4261 55.6725 32.1884C55.6725 29.9507 51.8611 29.2622 50.7791 29.0163C49.6971 28.7704 50.2627 26.4343 50.2627 24.6639C50.2627 22.8934 49.8201 21.5655 47.1152 21.6639C44.4102 21.7868 46.2299 21.1475 43.5496 21.1475C40.8939 21.1475 39.3939 27.9343 39.3939 27.9343C36.0496 27.8606 33.8611 25.1557 33.8119 28.3278C33.7627 31.5245 38.7299 33.6884 38.7299 33.6884V37.2048L39.0496 38.1639V39.7376C39.6152 42.1721 43.8939 43.2294 43.8939 43.2294Z" fill="#FBF1DA"/>
<path d="M129.172 150.861C117.049 150.861 87 151.598 78.2951 148.795C72.1229 146.828 67.2049 145.156 56.3607 144.344L51.5902 138.443L52.082 115.992L55.7951 93.6886L59.1148 91.6722L58.8689 89.8033L61.6967 88.0328L61.623 82.3033L62.9262 80.4345L62.6066 76.9673L67.3771 70.1558C70.4016 65.8279 70.5 60.0984 67.5984 55.6722L61.3525 46.2296L51.5902 42.0984L49.7213 43.9427C51.9344 46.5984 50.9262 49.205 50.9262 49.205C48.2951 48.0492 47.3115 46.5246 46.918 45.6394C47.2131 45.541 47.4344 45.2705 47.4344 44.9509C47.4344 44.5574 47.1148 44.2132 46.6967 44.2132C46.3033 44.2132 45.959 44.5328 45.959 44.9509C45.959 45.3443 46.2541 45.6394 46.6475 45.664C46.2541 50.1394 43.6967 50.4837 43.6967 50.4837C41.1885 47.3853 43.7459 44.705 43.7459 44.705C43.7459 44.705 42 44.5574 40.1066 43.8197C38.2377 43.082 36.4426 40.6968 36.4426 40.6968L25.082 47.1394L21.5656 67.623V86.6066L22.7705 87.2951L26.0902 85.1066L30.4426 84.6148L32.2131 87.8853L31.8443 91.0328L31.3525 91.1558L29.7541 89.0902L30.541 91.7951L30 92.705L25.5492 92.9017L24.9836 100.082L26.7541 110.582L29.8279 114.934L29.582 127.623L31.4508 141.443L28.5246 144.59C11.7295 147.049 2.95082 154.795 0 158.115C0 158.115 28.3525 186.467 72.0984 186.467C121.156 186.467 148.549 159.566 148.549 159.566C148.549 159.566 141.27 150.861 129.172 150.861ZM37.7705 117.148L40.4262 114.812L39.4672 106.967L41.9754 99.6148L42.8115 103.008L41.5574 107.016L42.4426 109.475V113.828L44.7787 117.394V143.902C43.082 143.877 41.2869 143.853 39.3689 143.853C38.8279 143.853 38.2869 143.853 37.7459 143.877V117.148H37.7705ZM121.279 169.525C117.516 169.525 108.541 163.697 106.746 162.861C104.951 162.025 103.844 163.353 100.451 164.066C97.0574 164.803 87.8607 163.697 85.4262 163.107C82.9918 162.492 76.4508 163.107 69.5902 162.148C62.7295 161.189 53.6803 155.484 49.3033 153.541C44.9262 151.598 30.0246 151.23 30.0246 151.23C37.7705 148.918 47.2377 149.779 57.418 149.779C67.5984 149.779 72.0738 154.623 86.3607 156.443C100.648 158.262 110.73 156.443 121.008 156.443C131.287 156.443 137.975 159.344 137.975 159.344C138.861 161.41 125.041 169.525 121.279 169.525Z" fill="#FBF1DA"/>
<path d="M150.934 59.3609L152.065 58.2544L147.467 54.074L146.434 55.1314L145.893 54.615L143.459 54.3691L142.426 53.0412L142.254 50.8035L140.016 48.3199L136.696 46.3281L133.475 49.4757L134.139 51.6642L137.532 55.1068L140.065 55.7708L141.27 57.2216L141.639 59.656L141.836 59.8281L141.147 60.5167L140.877 60.2462L140.188 60.9347L140.459 61.2052L140.114 61.5494L139.844 61.2789L139.155 61.9675L139.451 62.2626L139.106 62.6068L138.811 62.3117L138.147 62.9757H137.828V63.9101L134.508 67.3035H133.549V68.2626L133.205 68.6068V68.4839H132.246V69.615L129.098 72.8117H127.967V73.7707H128.164L114.516 87.738C101.532 75.8609 78.3686 54.6642 78.3686 54.6642L77.7046 55.4019L79.0079 56.6806L78.4423 57.2953L79.5735 58.5003L78.1227 60.1478L84.1964 65.656L83.9014 66.0003L86.1145 67.9921L86.4341 67.6724L100.942 80.8527L100.721 81.1232L103.451 83.656L103.696 83.3363L108.442 87.6396L108.836 89.1396L111.27 91.1314L84.7128 118.304L84.221 117.836L83.5571 118.549L84.0243 118.992L83.7784 119.238L83.262 118.746L82.5981 119.459L83.1145 119.951L82.8686 120.197L82.303 119.656L81.6391 120.369L82.18 120.886L81.9341 121.131L81.344 120.566L80.68 121.279L81.2702 121.845L81.0243 122.09L80.385 121.476L79.721 122.189L80.3604 122.779L80.1145 123.025L79.5489 122.484L78.885 123.197L79.4505 123.713L77.6309 125.582L80.8522 129.345L83.0653 127.156L83.6063 127.672L84.2702 126.959L83.7292 126.467L83.9751 126.222L84.4423 126.664L85.1063 125.951L84.6636 125.533L84.9095 125.287L85.4013 125.754L86.0653 125.041L85.5981 124.599L85.844 124.353L86.3604 124.845L87.0243 124.131L86.5325 123.664L86.7784 123.418L87.3194 123.935L87.9833 123.222L87.4669 122.73L87.7128 122.484L88.2784 123.025L88.4259 122.877V126.123C85.721 128.263 86.6309 132.566 86.6309 132.566L87.8112 133.23L86.262 134.926L81.9095 147.541L85.5735 144.222L85.844 142.279L86.5817 141.59L87.7128 138.861L88.2292 138.541L88.1309 136.845L88.9177 136.722L89.1145 134.164L89.7046 133.771L89.5571 132.025L90.0735 131.238C90.6636 128.877 89.8768 127.205 89.3358 126.369V121.254H88.844L89.3112 120.787L90.9833 125.853C89.7046 128.656 91.7702 132.222 91.7702 132.222L93.1718 132L92.3358 134.09L92.3112 136.279L93.1964 137.631L92.4587 138.812L93.3931 140.14L92.9505 140.926L93.3931 142.058L93.2948 143.828L93.2456 148.476C95.6309 146.754 95.3358 142.82 95.3358 142.82L94.6964 141.443L95.6063 141.049L95.7538 137.09L94.844 135.541L95.9751 135.025L94.844 133.033L95.2866 132.099L95.4341 131.312L94.2784 130.623L94.8194 129.295C94.2046 126.763 92.2866 125.385 91.721 125.041L90.1718 120.271L89.7046 120.418L115.328 94.8691C118.426 97.697 122.655 101.558 125.68 104.435L125.582 104.361C125.557 104.385 124.869 105.148 124.918 106.058C124.942 106.525 125.164 106.967 125.582 107.312C126.073 107.73 126.59 107.877 127.032 107.877C127.918 107.877 128.606 107.312 128.606 107.312L128.508 107.213C129 107.705 129.319 108.074 129.442 108.246C130.401 109.746 129.959 110.558 131.188 112.328C132.418 114.099 144.762 131.754 144.762 131.754L151.057 125.041L135.737 110.951L134.287 110.582C134.287 110.582 133.205 109.377 132.172 106.648C131.483 104.853 129.27 102.025 126.762 99.2953L128.164 98.3609L128.508 95.6314L128.213 95.5822L128.041 96.9839L126.246 97.1068L127.893 98.1642L126.59 99.0494C126.59 99.0494 125.041 97.4511 124.205 96.6642L125.09 95.8035V93.6888H124.795V95.6806L124.008 96.4675C123.59 96.074 123.196 95.6806 122.803 95.3363C122.213 94.7953 120.737 93.4429 118.672 91.5494L132.246 78.0003V78.1232H133.205V77.0412L136.475 73.7707H137.508V72.8117H137.459L137.852 72.4183V72.5904H138.811V71.4593L142.008 68.2626H143.09V67.9429L143.778 67.2544L143.385 66.8609L143.729 66.5167L144.123 66.9101L144.811 66.2216L144.418 65.8281L144.762 65.4839L145.155 65.8773L145.844 65.1888L145.451 64.7953L146.237 64.0085L149.631 67.2789H151.328L153.811 84.9101C163.795 83.5822 167.975 75.3445 167.975 75.3445L150.934 59.3609ZM78.7866 60.0986L79.0817 59.7544L84.7866 64.9183L84.4915 65.2871L78.7866 60.0986ZM86.7292 67.3035L87.221 66.8117L101.508 80.0904L101.213 80.4593L86.7292 67.3035ZM103.942 82.9675L104.139 82.7462L107.975 86.0658L108.172 86.8281L103.942 82.9675ZM128.434 107.115C128.336 107.189 127.057 108.222 125.803 107.115C125.459 106.82 125.262 106.451 125.237 106.058C125.188 105.271 125.803 104.582 125.828 104.558C126.344 105.049 126.811 105.492 127.254 105.91C127.254 105.91 126.811 106.623 126.123 106.525C126.123 106.525 126.713 106.992 127.77 106.426C127.992 106.672 128.237 106.894 128.434 107.115ZM88.3768 121.82L88.3522 121.795L88.3768 121.771V121.82Z" fill="#FBF1DA"/>
<path d="M115.427 54.541H114.099V60.8115H115.402V56.6558L117.861 60.8115H119.164V54.541H117.861V58.6722L115.427 54.541Z" fill="#FBF1DA"/>
<path d="M75.6397 100.549L76.6233 95.9999L77.6069 100.549H78.9839C79.697 98.459 80.2626 96.3688 80.656 94.3032H79.3528C79.1315 95.8032 78.7872 97.3032 78.3446 98.8032L77.361 94.3032H75.9347L74.9757 98.7786C74.5577 97.2786 74.2134 95.8032 73.9921 94.3032H72.6396C73.0331 96.3934 73.5987 98.4835 74.3118 100.549H75.6397Z" fill="#FBF1DA"/>
<path d="M154.008 97.8196H157.082V96.7376H154.008V95.3606H157.328V94.3032H152.705V100.549H157.476V99.4672H154.008V97.8196Z" fill="#FBF1DA"/>
<path d="M116.508 139.205C115.279 139.205 115.181 138.861 115.131 138.197H113.828C113.902 139.5 114.467 140.311 116.508 140.311C117.443 140.311 118.943 140.139 118.943 138.393C118.943 137.139 118.181 136.795 117.295 136.549L115.894 136.18C115.525 136.082 115.254 135.959 115.254 135.492C115.254 135 115.574 134.877 116.238 134.877C117.345 134.877 117.369 135.221 117.443 135.738H118.746C118.722 134.631 118.156 133.771 116.312 133.771C114.369 133.771 113.976 134.705 113.976 135.615C113.976 136.746 114.64 137.115 115.402 137.336L116.926 137.754C117.467 137.902 117.64 138.123 117.64 138.492C117.64 139.107 117.172 139.205 116.508 139.205Z" fill="#FBF1DA"/>
<path d="M11.484 39.7868C13.8201 37.3524 14.3857 34.8933 11.5824 32.1884L10.5988 31.2294L6.98401 34.9179L8.43483 36.3196L10.3283 34.3524C11.5824 35.5573 11.6561 36.5655 9.98401 38.3114C8.5086 39.836 7.15614 40.254 4.72172 37.8933C2.38565 35.631 2.58237 34.2048 4.13155 32.5819C5.55778 31.1065 6.5168 31.131 7.45122 31.8196L9.14795 30.0737C7.0086 28.3278 4.79549 28.8933 2.60696 31.1802C0.787291 33.0737 -0.86025 35.9261 3.00041 39.6392C6.63975 43.1802 9.44303 41.8769 11.484 39.7868Z" fill="#FBF1DA"/>
<path d="M20.9513 31.2047C23.189 29.4096 24.7627 26.8768 21.5414 22.844C18.2709 18.7375 15.4185 19.844 13.23 21.5899C11.1398 23.2621 9.29553 25.7457 12.6398 29.9506C15.7873 33.885 18.5906 33.0736 20.9513 31.2047ZM14.5086 23.2129C16.3529 21.7375 17.7054 21.9588 19.5742 24.3195C21.9595 27.3195 21.0004 28.4998 19.7218 29.5326C17.9759 30.9342 16.7463 31.1309 14.607 28.4506C12.566 25.8686 12.7873 24.5654 14.5086 23.2129Z" fill="#FBF1DA"/>
<path d="M35.1888 21.4424L32.951 12.9588L38.5084 19.7703L40.8199 18.59C40.2051 14.4834 39.3691 10.4752 38.2625 6.63916L36.074 7.77031C37.0084 10.4752 37.7215 13.3031 38.2625 16.2047L32.7297 9.49162L30.3445 10.7211L32.5822 19.0818C30.5904 16.9424 28.7461 14.7047 27.074 12.4178L24.7871 13.5982C27.2461 16.7703 30.0002 19.7703 32.9756 22.6719L35.1888 21.4424Z" fill="#FBF1DA"/>
<path d="M43.2334 4.98922L40.9482 5.82812L45.0241 16.9309L47.3093 16.092L43.2334 4.98922Z" fill="#FBF1DA"/>
<path d="M57.7865 13.0819L57.2455 11.0655L51.5406 12.5655L49.0569 3.14746L46.6963 3.76222L49.6963 15.1966L57.7865 13.0819Z" fill="#FBF1DA"/>
<path d="M64.4016 12.1968C68.041 11.8034 69.2459 9.76242 68.7787 5.70504C68.3115 1.50012 66.8115 0.0493048 63.1229 0.442747L58.2295 0.983731L59.5328 12.7132L64.4016 12.1968ZM62.7541 2.53291C65.5819 2.21324 65.9754 2.8034 66.3442 6.00012C66.6639 9.00012 66.2213 9.95914 63.8852 10.205L61.7459 10.4509L60.8852 2.72963L62.7541 2.53291Z" fill="#FBF1DA"/>
<path d="M79.3275 6.81148L83.9013 7.35246L83.2865 12.5656L85.7209 12.8607L87.1226 1.13115L84.6882 0.836066L84.1472 5.36066L79.5488 4.79508L80.0898 0.295082L77.68 0L76.2783 11.7295L78.6882 12.0246L79.3275 6.81148Z" fill="#FBF1DA"/>
<path d="M90.7914 1.97601L88.084 13.4893L90.4537 14.0465L93.1611 2.53325L90.7914 1.97601Z" fill="#FBF1DA"/>
<path d="M97.0573 16.3034C98.7295 16.869 101.508 17.5083 102.615 14.3608C103.377 12.1231 102.246 11.0411 100.82 10.0821L98.5573 8.55751C97.9672 8.16406 97.5491 7.77062 97.8442 6.95915C98.1393 6.0739 98.8278 6.04931 99.9836 6.46734C101.975 7.15587 101.803 7.79521 101.607 8.75423L103.918 9.54111C104.557 7.52472 104.066 5.65587 100.77 4.52472C97.3032 3.34439 96 4.77062 95.459 6.36898C94.7459 8.40996 95.7295 9.46734 96.959 10.3034L99.418 11.9755C100.303 12.5903 100.5 13.0575 100.254 13.746C99.8606 14.8772 98.9508 14.7542 97.7704 14.3608C95.5573 13.5985 95.6065 12.91 95.9016 11.705L93.5901 10.9182C92.9016 13.2542 93.418 15.0493 97.0573 16.3034Z" fill="#FBF1DA"/>
<path d="M107.606 20.4836L111.861 11.7295L115.057 13.2787L115.967 11.4098L107.385 7.22949L106.475 9.09834L109.672 10.6475L105.418 19.4016L107.606 20.4836Z" fill="#FBF1DA"/>
<path d="M116.017 25.6228C118.427 27.172 121.353 27.8605 124.132 23.5081C126.984 19.0818 125.017 16.7458 122.656 15.2212C120.419 13.7704 117.443 12.8359 114.541 17.3359C111.812 21.59 113.484 23.9999 116.017 25.6228ZM116.607 18.713C118.378 15.9589 119.681 15.7622 121.525 16.9425C123.517 18.2212 123.738 19.5736 122.115 22.1064C120.05 25.3277 118.623 24.8113 117.222 23.9261C115.328 22.6966 114.738 21.6146 116.607 18.713Z" fill="#FBF1DA"/>
<path d="M124.451 31.328L127.426 27.7625L129.123 29.1641L128.385 34.5985L130.672 36.492L131.361 30.8362C132.59 31.451 133.893 31.4018 135.369 29.6313C137.582 26.951 135.983 25.5493 134.09 23.9756L130.156 20.7051L122.606 29.8034L124.451 31.328ZM130.721 23.7788L132.516 25.2789C134.09 26.6067 134.262 27.0493 133.5 27.9592C132.541 29.0903 131.926 28.8198 130.402 27.5657L128.705 26.1641L130.721 23.7788Z" fill="#FBF1DA"/>
<path d="M135.123 41.1394L138.442 37.9426C141.319 37.4754 143.975 36.7377 146.483 35.8771L144.541 33.8607C142.918 34.5738 141.172 35.1394 139.229 35.5328C139.672 33.6148 140.262 31.8443 141.024 30.2213L139.033 28.1558C138.098 30.6148 137.287 33.2459 136.746 36.1476L133.401 39.3689L135.123 41.1394Z" fill="#FBF1DA"/>
</g>
<defs>
<clipPath id="clip0_428_2904">
<rect width="168" height="186.492" fill="white"/>
</clipPath>
</defs>
</svg>
