<svg width="10" height="17" viewBox="0 0 10 17" fill="none" xmlns="http://www.w3.org/2000/svg">
<path d="M9.29879 0.456828C9.94161 1.08523 9.99205 1.9601 9.29879 2.72831L3.89825 8.3609L9.29879 13.9935C9.99205 14.7617 9.94161 15.638 9.29879 16.2621C8.65741 16.8905 7.57356 16.8501 6.9711 16.2621C6.36863 15.6769 0.482378 9.4952 0.482378 9.4952C0.329813 9.348 0.208469 9.17156 0.125591 8.97643C0.0427133 8.7813 0 8.57146 0 8.35946C0 8.14746 0.0427133 7.93763 0.125591 7.74249C0.208469 7.54736 0.329813 7.37092 0.482378 7.22372C0.482378 7.22372 6.36863 1.04488 6.9711 0.456828C7.57356 -0.132663 8.65741 -0.171578 9.29879 0.456828Z" fill="#F9DB97"/>
</svg>
