<svg width="20" height="29" viewBox="0 0 20 29" fill="none" xmlns="http://www.w3.org/2000/svg">
<path d="M19.2965 12.0247H11.9123V10.9418H16.022C16.1358 10.9418 16.2467 10.9068 16.3398 10.8415L19.6142 8.54476C19.7627 8.44056 19.8507 8.27017 19.8498 8.08872C19.8488 7.90727 19.7589 7.73782 19.6093 7.63528L16.3349 5.39076C16.2428 5.32762 16.1337 5.29381 16.022 5.29381H11.9123V4.20298H15.5519C15.8575 4.20298 16.1053 3.95523 16.1053 3.6496V0.753578C16.1053 0.447945 15.8575 0.200195 15.5519 0.200195H4.44732C4.14169 0.200195 3.89394 0.447945 3.89394 0.753578V3.6496C3.89394 3.95523 4.14169 4.20298 4.44732 4.20298H8.08687V5.29381H0.702804C0.397171 5.29381 0.149422 5.54155 0.149422 5.84719V10.3884C0.149422 10.694 0.397171 10.9418 0.702804 10.9418H8.08687V12.0247H3.97717C3.86345 12.0247 3.7525 12.0597 3.65942 12.125L0.385052 14.4217C0.236469 14.5259 0.148481 14.6963 0.149422 14.8778C0.150362 15.0592 0.240287 15.2287 0.389922 15.3312L3.66429 17.5757C3.75642 17.6389 3.8655 17.6727 3.97717 17.6727H8.08687V27.6468C8.08687 27.9524 8.33461 28.2002 8.64025 28.2002H11.359C11.6646 28.2002 11.9124 27.9524 11.9124 27.6468V17.6727H19.2965C19.6021 17.6727 19.8498 17.4249 19.8498 17.1193V12.5781C19.8498 12.2725 19.602 12.0247 19.2965 12.0247ZM5.00071 1.30696H14.9985V3.09621H11.359H8.64019H5.00065V1.30696H5.00071ZM9.19363 4.20298H10.8056V5.29381H9.19363V4.20298ZM1.25619 8.67669H5.73859C6.04422 8.67669 6.29197 8.42894 6.29197 8.12331C6.29197 7.81767 6.04422 7.56992 5.73859 7.56992H1.25619V6.40057H8.64025H11.359H15.8507L18.3254 8.09691L15.8474 9.83503H11.3591H8.6403H1.25619V8.67669ZM9.19363 10.9418H10.8056V12.0247H9.19363V10.9418ZM10.8056 27.0934H9.19357V17.6727H10.8056V27.0934ZM11.359 16.5659H8.64019H4.14855L1.67382 14.8696L4.15176 13.1315H8.64014H11.3589H18.7431V14.2919H14.2607C13.955 14.2919 13.7073 14.5396 13.7073 14.8452C13.7073 15.1509 13.955 15.3986 14.2607 15.3986H18.7431V16.5659H11.359Z" fill="white"/>
<path d="M8.21256 8.64729C8.51819 8.64729 8.76594 8.39953 8.76594 8.09391C8.76594 7.78829 8.51819 7.54053 8.21256 7.54053C7.90694 7.54053 7.65918 7.78829 7.65918 8.09391C7.65918 8.39953 7.90694 8.64729 8.21256 8.64729Z" fill="white"/>
<path d="M11.7672 15.3433C12.0729 15.3433 12.3206 15.0956 12.3206 14.79C12.3206 14.4843 12.0729 14.2366 11.7672 14.2366C11.4616 14.2366 11.2139 14.4843 11.2139 14.79C11.2139 15.0956 11.4616 15.3433 11.7672 15.3433Z" fill="white"/>
</svg>
