<svg width="18" height="18" viewBox="0 0 18 18" fill="none" xmlns="http://www.w3.org/2000/svg">
<path fill-rule="evenodd" clip-rule="evenodd" d="M8.44062 0.0205078C13.0947 0.0205078 16.8804 3.80618 16.8804 8.46026C16.8804 10.656 16.0377 12.6587 14.6588 14.1617L17.3721 16.8694C17.6261 17.1234 17.6269 17.5342 17.373 17.7881C17.2465 17.9164 17.0792 17.9796 16.9128 17.9796C16.7472 17.9796 16.5808 17.9164 16.4534 17.7898L13.7073 15.0514C12.2628 16.2083 10.4311 16.9009 8.44062 16.9009C3.78654 16.9009 0 13.1143 0 8.46026C0 3.80618 3.78654 0.0205078 8.44062 0.0205078ZM8.44062 1.32053C4.50328 1.32053 1.30002 4.52292 1.30002 8.46026C1.30002 12.3976 4.50328 15.6009 8.44062 15.6009C12.3771 15.6009 15.5803 12.3976 15.5803 8.46026C15.5803 4.52292 12.3771 1.32053 8.44062 1.32053Z" fill="white"/>
</svg>
