<svg width="12" height="12" viewBox="0 0 12 12" fill="none" xmlns="http://www.w3.org/2000/svg">
<path d="M0 10.5825V4.71089C0 2.89505 1.4776 1.41745 3.29344 1.41745H8.70577C10.522 1.41745 12 2.89505 12 4.71089V5.72365C12 7.5395 10.5224 9.01709 8.70656 9.01709H3.3698L0 10.5825ZM3.29344 2.1517C1.88231 2.1517 0.73425 3.29976 0.73425 4.71089V9.43169L3.20799 8.28245H8.70656C10.1177 8.28245 11.2657 7.13439 11.2657 5.72326V4.7105C11.2657 3.29936 10.1173 2.1513 8.70577 2.1513H3.29344V2.1517ZM3.53556 4.65511C3.92127 4.65511 4.2338 4.96764 4.2338 5.35336C4.2338 5.73908 3.92127 6.05161 3.53556 6.05161C3.14984 6.05161 2.83731 5.73908 2.83731 5.35336C2.83731 4.96764 3.14984 4.65511 3.53556 4.65511ZM8.46405 4.65511C8.84977 4.65511 9.1623 4.96764 9.1623 5.35336C9.1623 5.73908 8.84977 6.05161 8.46405 6.05161C8.07833 6.05161 7.7658 5.73908 7.7658 5.35336C7.7658 4.96764 8.07833 4.65511 8.46405 4.65511ZM5.99941 4.65511C6.38513 4.65511 6.69766 4.96764 6.69766 5.35336C6.69766 5.73908 6.38513 6.05161 5.99941 6.05161C5.61369 6.05161 5.30116 5.73908 5.30116 5.35336C5.30116 4.96764 5.61369 4.65511 5.99941 4.65511Z" fill="#EC6537"/>
</svg>
