<svg width="32" height="38" viewBox="0 0 32 38" fill="none" xmlns="http://www.w3.org/2000/svg">
<g clip-path="url(#clip0_774_654)">
<path d="M8.36063 9.37374C8.98358 9.44692 9.24588 8.96393 9.24588 8.96393L9.29271 8.52973C9.41449 8.46631 9.57843 8.29067 9.57843 8.29067L9.61121 7.78817C9.70489 7.67596 10.6042 7.62717 10.6042 7.18321C10.6042 6.73925 9.87819 6.60264 9.6721 6.55386C9.46602 6.50507 9.57374 6.0416 9.57374 5.69033C9.57374 5.33906 9.48944 5.07561 8.97421 5.09513C8.45899 5.11952 8.80559 4.99268 8.29506 4.99268C7.7892 4.99268 7.50349 6.3392 7.50349 6.3392C6.86648 6.32456 6.44962 5.7879 6.44025 6.41725C6.43089 7.05148 7.37702 7.48081 7.37702 7.48081V8.17846L7.43791 8.36873V8.68097C7.54564 9.16396 8.36063 9.37374 8.36063 9.37374Z" fill="#FBF1DA"/>
<path d="M24.6042 30.7276C22.2951 30.7276 16.5714 30.874 14.9134 30.3178C13.7377 29.9275 12.8009 29.5958 10.7354 29.4348L9.8267 28.2639L9.92038 23.8097L10.6276 19.3847L11.26 18.9846L11.2131 18.6138L11.7518 18.2626L11.7377 17.1258L11.9859 16.7551L11.9251 16.0672L12.8337 14.7158C13.4098 13.8571 13.4286 12.7204 12.8759 11.8422L11.6862 9.9688L9.8267 9.14918L9.47073 9.51508C9.89227 10.042 9.70024 10.5591 9.70024 10.5591C9.19907 10.3298 9.01171 10.0273 8.93677 9.85171C8.99298 9.8322 9.03513 9.77853 9.03513 9.71511C9.03513 9.63705 8.97424 9.56875 8.89461 9.56875C8.81967 9.56875 8.7541 9.63217 8.7541 9.71511C8.7541 9.79317 8.81031 9.85171 8.88525 9.85659C8.81031 10.7445 8.32319 10.8128 8.32319 10.8128C7.84543 10.1981 8.33255 9.66632 8.33255 9.66632C8.33255 9.66632 8 9.63705 7.63935 9.49069C7.28337 9.34433 6.94145 8.87109 6.94145 8.87109L4.77752 10.1493L4.10773 14.2133V17.9796L4.33724 18.1162L4.96956 17.682L5.7986 17.5844L6.13583 18.2333L6.06557 18.8578L5.9719 18.8822L5.66745 18.4724L5.81733 19.009L5.71429 19.1895L4.86651 19.2286L4.75878 20.6531L5.09602 22.7363L5.6815 23.5999L5.63466 26.1173L5.99063 28.8591L5.43326 29.4836C2.23419 29.9714 0.562061 31.5082 0 32.1668C0 32.1668 5.40047 37.792 13.733 37.792C23.0773 37.792 28.2951 32.4547 28.2951 32.4547C28.2951 32.4547 26.9087 30.7276 24.6042 30.7276ZM7.19438 24.0389L7.70023 23.5755L7.51757 22.0192L7.99532 20.5604L8.15457 21.2337L7.91569 22.0289L8.08431 22.5168V23.3803L8.52928 24.0877V29.347C8.20609 29.3421 7.86417 29.3372 7.49883 29.3372C7.39579 29.3372 7.29274 29.3372 7.1897 29.3421V24.0389H7.19438ZM23.1007 34.4306C22.3841 34.4306 20.6745 33.2743 20.3326 33.1084C19.9906 32.9426 19.7799 33.206 19.1335 33.3475C18.4871 33.4939 16.7354 33.2743 16.2717 33.1572C15.808 33.0353 14.5621 33.1572 13.2553 32.967C11.9485 32.7767 10.2248 31.6448 9.3911 31.2594C8.55738 30.874 5.71897 30.8008 5.71897 30.8008C7.19438 30.3422 8.99766 30.513 10.9368 30.513C12.8759 30.513 13.7283 31.4741 16.4497 31.8351C19.171 32.1961 21.0913 31.8351 23.0492 31.8351C25.007 31.8351 26.281 32.4108 26.281 32.4108C26.4497 32.8206 23.8173 34.4306 23.1007 34.4306Z" fill="#FBF1DA"/>
<path d="M28.7494 12.574L28.9649 12.3544L28.089 11.5251L27.8923 11.7349L27.7892 11.6324L27.3255 11.5836L27.1288 11.3202L27.096 10.8762L26.6698 10.3835L26.0375 9.98828L25.4239 10.6128L25.5503 11.047L26.1967 11.73L26.6791 11.8617L26.9086 12.1495L26.9789 12.6325L27.0164 12.6667L26.8852 12.8033L26.8337 12.7496L26.7026 12.8862L26.7541 12.9399L26.6885 13.0082L26.637 12.9545L26.5058 13.0911L26.562 13.1497L26.4965 13.218L26.4403 13.1594L26.3138 13.2912H26.2529V13.4765L25.6206 14.1498H25.4379V14.3401L25.3723 14.4084V14.384H25.1897V14.6084L24.5901 15.2426H24.3747V15.4329H24.4122L21.8126 18.204C19.3396 15.8476 14.9274 11.6422 14.9274 11.6422L14.8009 11.7885L15.0492 12.0422L14.9414 12.1642L15.1569 12.4032L14.8805 12.7301L16.0375 13.8229L15.9812 13.8912L16.4028 14.2864L16.4637 14.223L19.2271 16.838L19.185 16.8916L19.7049 17.3941L19.7517 17.3307L20.6557 18.1845L20.7307 18.4821L21.1944 18.8773L16.1358 24.2682L16.0421 24.1755L15.9157 24.317L16.0047 24.4048L15.9578 24.4536L15.8595 24.356L15.733 24.4975L15.8314 24.5951L15.7845 24.6439L15.6768 24.5365L15.5503 24.678L15.6534 24.7805L15.6065 24.8293L15.4941 24.7171L15.3677 24.8585L15.4801 24.9707L15.4332 25.0195L15.3115 24.8976L15.185 25.039L15.3068 25.1561L15.2599 25.2049L15.1522 25.0976L15.0257 25.2391L15.1335 25.3415L14.7869 25.7123L15.4004 26.4587L15.822 26.0245L15.925 26.127L16.0515 25.9855L15.9485 25.8879L15.9953 25.8391L16.0843 25.927L16.2108 25.7855L16.1264 25.7025L16.1733 25.6538L16.267 25.7465L16.3934 25.605L16.3044 25.5172L16.3513 25.4684L16.4496 25.5659L16.5761 25.4245L16.4824 25.3318L16.5293 25.283L16.6323 25.3854L16.7588 25.244L16.6604 25.1464L16.7072 25.0976L16.815 25.2049L16.8431 25.1756V25.8196C16.3278 26.2441 16.5012 27.0979 16.5012 27.0979L16.726 27.2296L16.4309 27.5662L15.6019 30.069L16.2997 29.4104L16.3513 29.0249L16.4918 28.8883L16.7072 28.3468L16.8056 28.2834L16.7869 27.9467L16.9367 27.9224L16.9742 27.415L17.0866 27.3369L17.0585 26.9905L17.1569 26.8344C17.2693 26.3661 17.1194 26.0343 17.0164 25.8684V24.8537H16.9227L17.0117 24.761L17.3302 25.766C17.0866 26.3221 17.4801 27.0296 17.4801 27.0296L17.7471 26.9856L17.5878 27.4003L17.5831 27.8345L17.7517 28.1029L17.6112 28.337L17.7892 28.6005L17.7049 28.7566L17.7892 28.981L17.7705 29.3323L17.7611 30.2544C18.2154 29.9129 18.1592 29.1323 18.1592 29.1323L18.0375 28.8591L18.2108 28.781L18.2389 27.9955L18.0656 27.6882L18.281 27.5857L18.0656 27.1905L18.1499 27.0052L18.178 26.849L17.9578 26.7124L18.0609 26.449C17.9438 25.9465 17.5784 25.6733 17.4707 25.605L17.1756 24.6585L17.0866 24.6878L21.9672 19.6188C22.5574 20.1799 23.363 20.9458 23.9391 21.5166L23.9204 21.502C23.9157 21.5069 23.7845 21.6581 23.7939 21.8386C23.7986 21.9313 23.8407 22.0191 23.9204 22.0874C24.014 22.1704 24.1124 22.1996 24.1967 22.1996C24.3653 22.1996 24.4965 22.0874 24.4965 22.0874L24.4777 22.0679C24.5714 22.1655 24.6323 22.2387 24.6557 22.2728C24.8384 22.5704 24.7541 22.7314 24.9883 23.0827C25.2225 23.434 27.5738 26.9369 27.5738 26.9369L28.7728 25.605L25.8548 22.8095L25.5784 22.7363C25.5784 22.7363 25.3723 22.4972 25.1756 21.9557C25.0445 21.5996 24.6229 21.0385 24.1452 20.497L24.4122 20.3116L24.4777 19.7701L24.4215 19.7603L24.3887 20.0384L24.0468 20.0628L24.3606 20.2726L24.1124 20.4482C24.1124 20.4482 23.8173 20.1311 23.6581 19.975L23.8267 19.8042V19.3846H23.7705V19.7798L23.6206 19.9359C23.541 19.8579 23.466 19.7798 23.3911 19.7115C23.2787 19.6042 22.9976 19.3359 22.6042 18.9602L25.1897 16.272V16.2964H25.3723V16.0818L25.9953 15.4329H26.192V15.2426H26.1827L26.2576 15.1646V15.1987H26.4403V14.9743L27.0492 14.3401H27.2553V14.2767L27.3864 14.14L27.3115 14.062L27.377 13.9937L27.452 14.0717L27.5831 13.9351L27.5082 13.8571L27.5738 13.7888L27.6487 13.8668L27.7798 13.7302L27.7049 13.6522L27.8548 13.4961L28.5012 14.1449H28.8243L29.2974 17.6429C31.199 17.3795 31.9953 15.7451 31.9953 15.7451L28.7494 12.574ZM15.007 12.7203L15.0632 12.652L16.1499 13.6766L16.0937 13.7498L15.007 12.7203ZM16.5199 14.1498L16.6136 14.0522L19.3349 16.6867L19.2787 16.7599L16.5199 14.1498ZM19.7986 17.2575L19.836 17.2136L20.5667 17.8722L20.6042 18.0235L19.7986 17.2575ZM24.4637 22.0484C24.4449 22.063 24.2014 22.2679 23.9625 22.0484C23.8969 21.9899 23.8595 21.9167 23.8548 21.8386C23.8454 21.6825 23.9625 21.5459 23.9672 21.541C24.0656 21.6386 24.1545 21.7264 24.2389 21.8094C24.2389 21.8094 24.1545 21.9508 24.0234 21.9313C24.0234 21.9313 24.1358 22.024 24.3372 21.9118C24.3794 21.9606 24.4262 22.0045 24.4637 22.0484ZM16.8337 24.9659L16.829 24.961L16.8337 24.9561V24.9659Z" fill="#FBF1DA"/>
<path d="M21.9858 11.6177H21.7329V12.8617H21.9812V12.0372L22.4495 12.8617H22.6978V11.6177H22.4495V12.4373L21.9858 11.6177Z" fill="#FBF1DA"/>
<path d="M14.4074 20.746L14.5947 19.8435L14.7821 20.746H15.0444C15.1802 20.3313 15.2879 19.9166 15.3629 19.5068H15.1146C15.0725 19.8044 15.0069 20.102 14.9226 20.3996L14.7352 19.5068H14.4636L14.2809 20.3948C14.2013 20.0972 14.1357 19.8044 14.0935 19.5068H13.8359C13.9109 19.9215 14.0186 20.3362 14.1544 20.746H14.4074Z" fill="#FBF1DA"/>
<path d="M29.3349 20.2045H29.9204V19.9898H29.3349V19.7166H29.9672V19.5068H29.0867V20.746H29.9953V20.5314H29.3349V20.2045Z" fill="#FBF1DA"/>
<path d="M22.1919 28.4151C21.9577 28.4151 21.939 28.3468 21.9296 28.2151H21.6814C21.6954 28.4737 21.8032 28.6347 22.1919 28.6347C22.3699 28.6347 22.6556 28.6005 22.6556 28.2541C22.6556 28.0053 22.5104 27.937 22.3418 27.8882L22.0748 27.815C22.0046 27.7955 21.9531 27.7711 21.9531 27.6784C21.9531 27.5809 22.0139 27.5565 22.1404 27.5565C22.3512 27.5565 22.3559 27.6248 22.3699 27.7272H22.6182C22.6135 27.5077 22.5057 27.3369 22.1545 27.3369C21.7844 27.3369 21.7095 27.5223 21.7095 27.7028C21.7095 27.9272 21.836 28.0004 21.9812 28.0443L22.2716 28.1273C22.3746 28.1565 22.4074 28.2004 22.4074 28.2736C22.4074 28.3956 22.3184 28.4151 22.1919 28.4151Z" fill="#FBF1DA"/>
<path d="M2.18745 8.69067C2.63242 8.20768 2.74015 7.71981 2.20619 7.18315L2.01884 6.99288L1.33031 7.72469L1.60666 8.00277L1.96731 7.61248C2.20619 7.85153 2.22024 8.05156 1.90174 8.39795C1.62071 8.70042 1.3631 8.78336 0.899398 8.31501C0.454433 7.86617 0.491904 7.5832 0.786986 7.26121C1.05865 6.96849 1.24132 6.97337 1.4193 7.10997L1.74249 6.76358C1.335 6.4172 0.913449 6.52941 0.496588 6.98313C0.149983 7.35878 -0.163834 7.92471 0.571529 8.66139C1.26474 9.36393 1.7987 9.10536 2.18745 8.69067Z" fill="#FBF1DA"/>
<path d="M3.99055 6.98819C4.41678 6.63204 4.71655 6.12954 4.10297 5.32943C3.48002 4.51469 2.93669 4.73423 2.51983 5.08062C2.1217 5.41237 1.77041 5.90512 2.40742 6.73937C3.00695 7.51996 3.54091 7.35897 3.99055 6.98819ZM2.76339 5.40261C3.11468 5.10989 3.37229 5.1538 3.72826 5.62215C4.18259 6.21735 3.99992 6.45153 3.75636 6.65644C3.42381 6.93452 3.18962 6.97355 2.78212 6.44177C2.39336 5.92951 2.43552 5.67094 2.76339 5.40261Z" fill="#FBF1DA"/>
<path d="M6.70246 5.05123L6.27623 3.36808L7.33477 4.71948L7.77505 4.4853C7.65796 3.67056 7.49871 2.87533 7.28794 2.11426L6.87107 2.33868C7.04906 2.87533 7.18489 3.43638 7.28794 4.01207L6.23407 2.68019L5.77974 2.92412L6.20597 4.58288C5.82658 4.15843 5.47529 3.71447 5.15679 3.26075L4.72119 3.49493C5.18958 4.12428 5.71417 4.71948 6.28091 5.29517L6.70246 5.05123Z" fill="#FBF1DA"/>
<path d="M8.23484 1.78669L7.79956 1.95312L8.57592 4.15592L9.0112 3.98949L8.23484 1.78669Z" fill="#FBF1DA"/>
<path d="M11.0069 3.39238L10.9039 2.99233L9.81725 3.28993L9.34418 1.42139L8.89453 1.54335L9.46596 3.81195L11.0069 3.39238Z" fill="#FBF1DA"/>
<path d="M12.267 3.21685C12.9602 3.13879 13.1897 2.73386 13.1007 1.92888C13.0117 1.09462 12.726 0.806778 12.0234 0.884837L11.0913 0.992168L11.3396 3.3193L12.267 3.21685ZM11.9531 1.29953C12.4918 1.2361 12.5667 1.35319 12.637 1.98742C12.6979 2.58262 12.6136 2.77289 12.1686 2.82168L11.7611 2.87046L11.5972 1.33856L11.9531 1.29953Z" fill="#FBF1DA"/>
<path d="M15.1101 2.14827L15.9813 2.2556L15.8642 3.28989L16.3279 3.34843L16.5949 1.02129L16.1312 0.962751L16.0281 1.86043L15.1522 1.74822L15.2553 0.855419L14.7963 0.796875L14.5293 3.12401L14.9883 3.18256L15.1101 2.14827Z" fill="#FBF1DA"/>
<path d="M17.2935 1.18891L16.7778 3.47314L17.2292 3.5837L17.7449 1.29947L17.2935 1.18891Z" fill="#FBF1DA"/>
<path d="M18.4872 4.03108C18.8057 4.14329 19.335 4.27014 19.5458 3.64567C19.691 3.20171 19.4755 2.98704 19.2039 2.79677L18.773 2.4943C18.6605 2.41624 18.5809 2.33818 18.6371 2.17718C18.6933 2.00155 18.8245 1.99667 19.0446 2.07961C19.424 2.21621 19.3912 2.34306 19.3537 2.53332L19.794 2.68944C19.9158 2.28939 19.8221 1.91861 19.1945 1.69419C18.5341 1.46001 18.2858 1.74298 18.1828 2.06009C18.047 2.46502 18.2343 2.67481 18.4685 2.84068L18.9369 3.17243C19.1055 3.2944 19.143 3.3871 19.0961 3.5237C19.0212 3.74812 18.8479 3.72373 18.6231 3.64567C18.2015 3.49443 18.2109 3.35782 18.2671 3.11877L17.8268 2.96265C17.6957 3.42613 17.794 3.78227 18.4872 4.03108Z" fill="#FBF1DA"/>
<path d="M20.4965 4.86106L21.3068 3.12425L21.9157 3.4316L22.089 3.06082L20.4543 2.23145L20.281 2.60223L20.8899 2.90958L20.0796 4.6464L20.4965 4.86106Z" fill="#FBF1DA"/>
<path d="M22.0983 5.88071C22.5574 6.18807 23.1147 6.32468 23.644 5.46115C24.1873 4.58298 23.8126 4.11951 23.363 3.81703C22.9367 3.52919 22.37 3.3438 21.8173 4.2366C21.2974 5.08061 21.6159 5.55872 22.0983 5.88071ZM22.2107 4.5098C22.548 3.96339 22.7962 3.92436 23.1475 4.15854C23.5269 4.41223 23.5691 4.68056 23.2599 5.18306C22.8665 5.82217 22.5948 5.71972 22.3278 5.54409C21.9672 5.30015 21.8548 5.08549 22.2107 4.5098Z" fill="#FBF1DA"/>
<path d="M23.705 7.01238L24.2718 6.30497L24.595 6.58306L24.4545 7.66125L24.8901 8.0369L25.0212 6.91481C25.2554 7.03677 25.5036 7.02702 25.7847 6.67575C26.2062 6.14397 25.9018 5.86589 25.5411 5.55365L24.7917 4.90479L23.3538 6.7099L23.705 7.01238ZM24.8994 5.51462L25.2414 5.81222C25.5411 6.07567 25.5739 6.16349 25.4287 6.344C25.246 6.56842 25.1289 6.51475 24.8385 6.26594L24.5154 5.98785L24.8994 5.51462Z" fill="#FBF1DA"/>
<path d="M25.7378 8.95876L26.3701 8.32453C26.9181 8.23184 27.424 8.08547 27.9017 7.91472L27.5317 7.51467C27.2226 7.65615 26.89 7.76836 26.52 7.84642C26.6043 7.46588 26.7167 7.11462 26.8619 6.79262L26.4825 6.38281C26.3045 6.87068 26.15 7.3927 26.0469 7.96839L25.4099 8.60749L25.7378 8.95876Z" fill="#FBF1DA"/>
</g>
<defs>
<clipPath id="clip0_774_654">
<rect width="32" height="37" fill="white" transform="translate(0 0.796875)"/>
</clipPath>
</defs>
</svg>
