<svg width="17" height="16" viewBox="0 0 17 16" fill="none" xmlns="http://www.w3.org/2000/svg">
<rect x="0.642578" width="15.7278" height="15.7278" rx="4.91495" fill="#4A5055"/>
<path fill-rule="evenodd" clip-rule="evenodd" d="M9.95903 4.69026C9.85332 4.3791 9.57874 4.17773 9.26779 4.17773H7.74613L7.68829 4.18007C7.38241 4.20483 7.12139 4.42433 7.04101 4.73263L6.94973 5.19813L6.93903 5.2391C6.89533 5.3718 6.77313 5.4639 6.63356 5.4639L6.63286 5.46395H5.45906L5.42247 5.46647C5.29088 5.48478 5.18945 5.60046 5.18945 5.74042C5.18945 5.89312 5.31016 6.0169 5.45906 6.0169H11.555L11.5916 6.01438C11.7232 5.99607 11.8246 5.88039 11.8246 5.74042C11.8246 5.58773 11.7039 5.46395 11.555 5.46395H10.3854C10.3837 5.46392 10.3821 5.4639 10.3804 5.4639L10.3391 5.46119C10.2036 5.44328 10.0916 5.33842 10.0642 5.19801L9.97684 4.74987L9.95903 4.69026ZM9.5813 5.46395C9.56902 5.43272 9.55839 5.40055 9.54955 5.36753L9.53543 5.30648L9.452 4.87546C9.4325 4.80067 9.37228 4.74592 9.29961 4.7334L9.26779 4.73069H7.74613C7.67049 4.73069 7.60324 4.77609 7.57531 4.83315L7.56584 4.85822L7.47847 5.30659C7.4678 5.3612 7.45236 5.4138 7.43263 5.46395H9.5813ZM11.0795 6.65496C11.2156 6.6662 11.3199 6.77918 11.3271 6.91516L11.3236 6.99098L11.2077 8.41063L11.0861 9.79604C11.0603 10.0726 11.0373 10.3059 11.0174 10.4895C10.9483 11.1295 10.5329 11.5252 9.90666 11.5369C8.93083 11.555 7.99283 11.5548 7.08196 11.5351C6.47382 11.5223 6.06454 11.1223 5.99667 10.4921L5.94976 10.0278L5.8678 9.12724L5.78383 8.13898L5.68783 6.95269C5.6759 6.80049 5.78654 6.66719 5.93496 6.65495C6.07101 6.64373 6.19158 6.73814 6.21992 6.87119L6.23095 6.97992L6.3211 8.09204L6.41953 9.24478C6.46368 9.74379 6.50197 10.1476 6.53261 10.4313C6.57129 10.7905 6.76039 10.9753 7.09316 10.9823C7.99692 11.0018 8.92792 11.002 9.89688 10.9841C10.2499 10.9775 10.442 10.7945 10.4815 10.4286L10.5282 9.96679C10.5419 9.82448 10.5565 9.66736 10.5719 9.4967L10.6705 8.36301L10.7891 6.90832C10.8001 6.7688 10.9103 6.66186 11.0429 6.65446L11.0795 6.65496Z" fill="white"/>
</svg>
