<svg width="40" height="40" viewBox="0 0 40 40" fill="none" xmlns="http://www.w3.org/2000/svg">
<circle cx="20" cy="20" r="19.25" stroke="white" stroke-width="1.5"/>
<path d="M26.5857 15.3909C27.1323 14.8443 27.1323 13.9566 26.5857 13.41C26.039 12.8633 25.1513 12.8633 24.6047 13.41L20 18.0191L15.3909 13.4143C14.8443 12.8677 13.9566 12.8677 13.41 13.4143C12.8633 13.961 12.8633 14.8487 13.41 15.3953L18.0191 20L13.4143 24.6091C12.8677 25.1557 12.8677 26.0434 13.4143 26.59C13.961 27.1367 14.8487 27.1367 15.3953 26.59L20 21.9809L24.6091 26.5857C25.1557 27.1323 26.0434 27.1323 26.59 26.5857C27.1367 26.039 27.1367 25.1513 26.59 24.6047L21.9809 20L26.5857 15.3909Z" fill="white"/>
</svg>
