<svg width="27" height="28" viewBox="0 0 27 28" fill="none" xmlns="http://www.w3.org/2000/svg">
<g clip-path="url(#clip0_428_12060)">
<path d="M27 14.5392C27 13.5948 26.5836 12.7463 25.9254 12.1661C26.5836 11.5859 27 10.7374 27 9.79306C27 8.62726 26.3658 7.60743 25.4247 7.05857C25.4255 7.05725 13.5 0.206055 13.5 0.206055L1.57454 7.05725C0.634236 7.60743 0 8.62726 0 9.79306C0 10.7374 0.416391 11.5859 1.07457 12.1661C0.416391 12.7463 0 13.5948 0 14.5392C0 15.4835 0.416391 16.332 1.07457 16.9122C0.416391 17.4924 0 18.3409 0 19.2852C0 20.2296 0.416391 21.0781 1.07457 21.6583C0.416391 22.2385 0 23.087 0 24.0313C0 25.776 1.4194 27.1954 3.16406 27.1954H23.8359C25.5806 27.1954 27 25.776 27 24.0313C27 23.087 26.5836 22.2385 25.9254 21.6583C26.5836 21.0781 27 20.2296 27 19.2852C27 18.3409 26.5836 17.4924 25.9254 16.9122C26.5836 16.332 27 15.4835 27 14.5392ZM3.16406 25.6134C2.29173 25.6134 1.58203 24.9037 1.58203 24.0313C1.58203 23.159 2.29173 22.4493 3.16406 22.4493C4.03639 22.4493 4.74609 23.159 4.74609 24.0313C4.74609 24.9037 4.03639 25.6134 3.16406 25.6134ZM3.16406 20.8673C2.29173 20.8673 1.58203 20.1576 1.58203 19.2852C1.58203 18.4129 2.29173 17.7032 3.16406 17.7032C4.03639 17.7032 4.74609 18.4129 4.74609 19.2852C4.74609 20.1576 4.03639 20.8673 3.16406 20.8673ZM3.16406 16.1212C2.29173 16.1212 1.58203 15.4115 1.58203 14.5392C1.58203 13.6668 2.29173 12.9571 3.16406 12.9571C4.03639 12.9571 4.74609 13.6668 4.74609 14.5392C4.74609 15.4115 4.03639 16.1212 3.16406 16.1212ZM3.16406 11.3751C2.29173 11.3751 1.58203 10.6654 1.58203 9.79306C1.58203 8.92073 2.29173 8.21103 3.16406 8.21103C4.03639 8.21103 4.74609 8.92073 4.74609 9.79306C4.74609 10.6654 4.03639 11.3751 3.16406 11.3751ZM8.96484 25.6134H5.90245C6.17261 25.1476 6.32812 24.6075 6.32812 24.0313C6.32812 23.4552 6.17261 22.9151 5.90245 22.4493H8.96484V25.6134ZM8.96484 20.8673H5.90245C6.17261 20.4015 6.32812 19.8614 6.32812 19.2852C6.32812 18.7091 6.17261 18.169 5.90245 17.7032H8.96484V20.8673ZM8.96484 16.1212H5.90245C6.17261 15.6554 6.32812 15.1153 6.32812 14.5392C6.32812 13.963 6.17261 13.4229 5.90245 12.9571H8.96484V16.1212ZM16.4531 25.6134H10.5469V12.9571H16.4531V25.6134ZM21.0975 25.6134H18.0352V22.4493H21.0975C20.8274 22.9151 20.6719 23.4552 20.6719 24.0313C20.6719 24.6075 20.8274 25.1476 21.0975 25.6134ZM21.0975 20.8673H18.0352V17.7032H21.0975C20.8274 18.169 20.6719 18.7091 20.6719 19.2852C20.6719 19.8614 20.8274 20.4015 21.0975 20.8673ZM21.0975 16.1212H18.0352V12.9571H21.0975C20.8274 13.4229 20.6719 13.963 20.6719 14.5392C20.6719 15.1153 20.8274 15.6554 21.0975 16.1212ZM20.6719 9.79306C20.6719 10.3692 20.8274 10.9093 21.0975 11.3751H5.90245C6.17261 10.9093 6.32812 10.3692 6.32812 9.79306C6.32812 8.62631 5.69283 7.60574 4.75042 7.05715L13.5 2.03051L22.2496 7.0572C21.3072 7.60574 20.6719 8.62631 20.6719 9.79306ZM23.8359 25.6134C22.9636 25.6134 22.2539 24.9037 22.2539 24.0313C22.2539 23.159 22.9636 22.4493 23.8359 22.4493C24.7083 22.4493 25.418 23.159 25.418 24.0313C25.418 24.9037 24.7083 25.6134 23.8359 25.6134ZM23.8359 20.8673C22.9636 20.8673 22.2539 20.1576 22.2539 19.2852C22.2539 18.4129 22.9636 17.7032 23.8359 17.7032C24.7083 17.7032 25.418 18.4129 25.418 19.2852C25.418 20.1576 24.7083 20.8673 23.8359 20.8673ZM23.8359 16.1212C22.9636 16.1212 22.2539 15.4115 22.2539 14.5392C22.2539 13.6668 22.9636 12.9571 23.8359 12.9571C24.7083 12.9571 25.418 13.6668 25.418 14.5392C25.418 15.4115 24.7083 16.1212 23.8359 16.1212ZM23.8359 11.3751C22.9636 11.3751 22.2539 10.6654 22.2539 9.79306C22.2539 8.92073 22.9636 8.21103 23.8359 8.21103C24.7083 8.21103 25.418 8.92073 25.418 9.79306C25.418 10.6654 24.7083 11.3751 23.8359 11.3751Z" fill="white"/>
</g>
<defs>
<clipPath id="clip0_428_12060">
<rect width="27" height="27" fill="white" transform="translate(0 0.200195)"/>
</clipPath>
</defs>
</svg>
