<svg width="12" height="15" viewBox="0 0 12 15" fill="none" xmlns="http://www.w3.org/2000/svg">
<path d="M11 6.31818C11 10.4545 6 14 6 14C6 14 1 10.4545 1 6.31818C1 4.90771 1.52678 3.55501 2.46447 2.55766C3.40215 1.56031 4.67392 1 6 1C7.32608 1 8.59785 1.56031 9.53553 2.55766C10.4732 3.55501 11 4.90771 11 6.31818Z" stroke="#686868" stroke-linecap="round" stroke-linejoin="round"/>
<path d="M6 8C7.10457 8 8 7.10457 8 6C8 4.89543 7.10457 4 6 4C4.89543 4 4 4.89543 4 6C4 7.10457 4.89543 8 6 8Z" stroke="#686868" stroke-linecap="round" stroke-linejoin="round"/>
</svg>
