<svg width="19" height="19" viewBox="0 0 19 19" fill="none" xmlns="http://www.w3.org/2000/svg">
<path d="M4.84028 18H13.7483C16.0943 18 17.0293 16.5635 17.1398 14.8125L17.5818 7.7915C17.7008 5.9555 16.2388 4.4 14.3943 4.4C13.8758 4.4 13.3998 4.1025 13.1618 3.6435L12.5498 2.411C12.1588 1.6375 11.1388 1 10.2718 1H8.32528C7.44978 1 6.42978 1.6375 6.03878 2.411L5.42678 3.6435C5.18878 4.1025 4.71278 4.4 4.19428 4.4C2.34978 4.4 0.887783 5.9555 1.00678 7.7915L1.44878 14.8125C1.55078 16.5635 2.49428 18 4.84028 18Z" stroke="#414141" stroke-width="1.5" stroke-linecap="round" stroke-linejoin="round"/>
<path d="M8.01953 6.09998H10.5695" stroke="#414141" stroke-width="1.5" stroke-linecap="round" stroke-linejoin="round"/>
<path d="M9.29473 14.6C10.8162 14.6 12.0572 13.359 12.0572 11.8375C12.0572 10.316 10.8162 9.07495 9.29473 9.07495C7.77323 9.07495 6.53223 10.316 6.53223 11.8375C6.53223 13.359 7.77323 14.6 9.29473 14.6Z" stroke="#414141" stroke-width="1.5" stroke-linecap="round" stroke-linejoin="round"/>
</svg>
