<svg width="12" height="13" viewBox="0 0 12 13" fill="none" xmlns="http://www.w3.org/2000/svg">
<path d="M5.2156 6.19842L4.55 5.20002L3.25 7.15002H9.1L6.825 3.90002L5.2156 6.19842Z" fill="white"/>
<path d="M4.22695 4.54997C4.7665 4.54997 5.2039 4.11257 5.2039 3.57302C5.2039 3.03346 4.7665 2.59607 4.22695 2.59607C3.6874 2.59607 3.25 3.03346 3.25 3.57302C3.25 4.11257 3.6874 4.54997 4.22695 4.54997Z" fill="white"/>
<path d="M10.4 0H1.95C1.1661 0 0 0.51935 0 1.95V11.05C0 12.4806 1.1661 13 1.95 13H11.7V11.7H1.9578C1.6575 11.6922 1.3 11.5739 1.3 11.05C1.3 10.5261 1.6575 10.4078 1.9578 10.4H11.7V1.3C11.7 0.58305 11.117 0 10.4 0ZM10.4 9.1H1.3V1.95C1.3 1.4261 1.6575 1.3078 1.95 1.3H10.4V9.1Z" fill="white"/>
</svg>
