<svg xmlns="http://www.w3.org/2000/svg" width="65" height="66" viewBox="0 0 65 66">
  <path id="Combined_Shape" data-name="Combined Shape" d="M29.611,64.388a5.5,5.5,0,1,1,7.779-7.775,5.5,5.5,0,1,1-7.779,7.775Zm19.861-7.86A4.962,4.962,0,1,1,53,58,4.819,4.819,0,0,1,49.472,56.528ZM9.75,56.25A6,6,0,0,1,14,46a5.811,5.811,0,0,1,4.229,1.75,5.987,5.987,0,0,1,0,8.5A5.807,5.807,0,0,1,14,58,5.789,5.789,0,0,1,9.75,56.25ZM2.056,38.943a6.973,6.973,0,0,1,0-9.887A6.743,6.743,0,0,1,7,27a6.74,6.74,0,0,1,4.944,2.056,6.97,6.97,0,0,1,0,9.887A6.737,6.737,0,0,1,7,41,6.741,6.741,0,0,1,2.056,38.943Zm56.11-2.11A4.025,4.025,0,1,1,61,38,3.853,3.853,0,0,1,58.166,36.833ZM9.194,21.805A7.228,7.228,0,0,1,7,16.5a7.224,7.224,0,0,1,2.194-5.3A7.231,7.231,0,0,1,14.5,9a7.227,7.227,0,0,1,5.3,2.194A7.225,7.225,0,0,1,22,16.5a7.229,7.229,0,0,1-2.2,5.306A7.227,7.227,0,0,1,14.5,24,7.228,7.228,0,0,1,9.194,21.805Zm44.687-1.687A2.988,2.988,0,1,1,56,21,2.889,2.889,0,0,1,53.881,20.119ZM28.333,13.667A7.715,7.715,0,0,1,26,8a7.718,7.718,0,0,1,2.333-5.667,8.05,8.05,0,0,1,11.335,0A7.718,7.718,0,0,1,42,8a7.715,7.715,0,0,1-2.333,5.666,8.048,8.048,0,0,1-11.335,0Z" fill="#0ca8d8"/>
</svg>
