<svg width="12" height="12" viewBox="0 0 12 12" fill="none" xmlns="http://www.w3.org/2000/svg">
<g clip-path="url(#clip0_428_20243)">
<path d="M11.9556 5.85799C11.8611 5.72048 9.59002 2.49994 5.99997 2.49994C2.91941 2.49994 0.174372 5.70199 0.0588701 5.83849C-0.0196234 5.93149 -0.0196234 6.06799 0.0588701 6.16149C0.174372 6.29799 2.91941 9.50004 5.99997 9.50004C9.08053 9.50004 11.8255 6.29799 11.941 6.16149C12.0136 6.07549 12.0201 5.95099 11.9556 5.85799ZM5.99997 9.00004C3.53044 9.00004 1.18239 6.64501 0.585894 6C1.1814 5.3545 3.52695 2.99996 5.99997 2.99996C8.88951 2.99996 10.929 5.3515 11.4271 5.9865C10.852 6.611 8.4905 9.00004 5.99997 9.00004Z" fill="#EC6537"/>
<path d="M6.00003 3.99994C4.89702 3.99994 4 4.89695 4 5.99996C4 7.10297 4.89702 7.99999 6.00003 7.99999C7.10304 7.99999 8.00006 7.10297 8.00006 5.99996C8.00006 4.89695 7.10304 3.99994 6.00003 3.99994ZM6.00003 7.50001C5.17302 7.50001 4.5 6.82699 4.5 5.99999C4.5 5.17298 5.17302 4.49996 6.00003 4.49996C6.82704 4.49996 7.50006 5.17298 7.50006 5.99999C7.50006 6.82699 6.82704 7.50001 6.00003 7.50001Z" fill="#EC6537"/>
</g>
<defs>
<clipPath id="clip0_428_20243">
<rect width="12" height="12" fill="white"/>
</clipPath>
</defs>
</svg>
