<svg width="14" height="13" viewBox="0 0 14 13" fill="none" xmlns="http://www.w3.org/2000/svg">
<path fill-rule="evenodd" clip-rule="evenodd" d="M1.96777 6.03238C1.96777 3.25307 4.22085 1 7.00016 1C9.77946 1 12.0325 3.25307 12.0325 6.03238C12.0325 8.81169 9.77946 11.0648 7.00016 11.0648C4.22085 11.0648 1.96777 8.81169 1.96777 6.03238ZM7.00016 0C3.66856 0 0.967773 2.70079 0.967773 6.03238C0.967773 9.36397 3.66856 12.0648 7.00016 12.0648C10.3317 12.0648 13.0325 9.36397 13.0325 6.03238C13.0325 2.70079 10.3317 0 7.00016 0ZM7.50016 2.71295C7.50016 2.43681 7.2763 2.21295 7.00016 2.21295C6.72401 2.21295 6.50016 2.43681 6.50016 2.71295V6.03238C6.50016 6.22177 6.60716 6.3949 6.77655 6.47959L8.9895 7.58607C9.23649 7.70956 9.53683 7.60945 9.66032 7.36246C9.78382 7.11547 9.68371 6.81514 9.43672 6.69164L7.50016 5.72336V2.71295Z" fill="#686868"/>
</svg>
