<svg width="23" height="24" viewBox="0 0 23 24" fill="none" xmlns="http://www.w3.org/2000/svg">
<rect y="0.725342" width="22.5494" height="22.5494" fill="#C4C4C4"/>
<g clip-path="url(#clip0_20256_645)">
<path fill-rule="evenodd" clip-rule="evenodd" d="M11.275 6.2583C8.10395 6.2583 5.5332 8.82904 5.5332 12.0001C5.5332 15.1711 8.10395 17.7418 11.275 17.7418C14.446 17.7418 17.0167 15.1711 17.0167 12.0001C17.0167 8.82904 14.446 6.2583 11.275 6.2583ZM9.18705 11.4781C9.04861 11.4781 8.91584 11.5331 8.81796 11.631C8.72007 11.7289 8.66507 11.8616 8.66507 12.0001C8.66507 12.1385 8.72007 12.2713 8.81796 12.3692C8.91584 12.467 9.04861 12.522 9.18705 12.522H13.3629C13.5013 12.522 13.6341 12.467 13.732 12.3692C13.8299 12.2713 13.8849 12.1385 13.8849 12.0001C13.8849 11.8616 13.8299 11.7289 13.732 11.631C13.6341 11.5331 13.5013 11.4781 13.3629 11.4781H9.18705Z" fill="#252525"/>
</g>
<defs>
<clipPath id="clip0_20256_645">
<rect width="12.5275" height="12.5275" fill="white" transform="translate(5.01074 5.73633)"/>
</clipPath>
</defs>
</svg>
