<svg width="25" height="25" viewBox="0 0 25 25" fill="none" xmlns="http://www.w3.org/2000/svg">
<rect width="25" height="25" rx="12.5" fill="white"/>
<rect x="0.5" y="0.5" width="24" height="24" rx="12" stroke="black" stroke-opacity="0.03"/>
<path fill-rule="evenodd" clip-rule="evenodd" d="M8.17898 8.17898C7.94034 8.41762 7.94034 8.80454 8.17898 9.04318L11.6358 12.5L8.17898 15.9568C7.94034 16.1954 7.94034 16.5824 8.17898 16.821C8.41762 17.0596 8.80454 17.0596 9.04318 16.821L12.5 13.3642L15.9568 16.821C16.1954 17.0596 16.5823 17.0596 16.821 16.821C17.0596 16.5823 17.0596 16.1954 16.821 15.9568L13.3642 12.5L16.821 9.04319C17.0596 8.80455 17.0596 8.41763 16.821 8.17899C16.5823 7.94034 16.1954 7.94034 15.9568 8.17899L12.5 11.6358L9.04318 8.17898C8.80454 7.94034 8.41762 7.94034 8.17898 8.17898Z" fill="#CC1919"/>
</svg>
