<svg width="31" height="31" viewBox="0 0 31 31" fill="none" xmlns="http://www.w3.org/2000/svg">
<circle cx="15.998" cy="15.1138" r="15" fill="#E4572E"/>
<path d="M16.5444 19.0038L22.7763 12.7719C22.9205 12.6278 23 12.4353 23 12.2302C23 12.025 22.9205 11.8326 22.7763 11.6885L22.3175 11.2295C22.0185 10.9309 21.5326 10.9309 21.234 11.2295L16.0009 16.4627L10.762 11.2237C10.6177 11.0796 10.4254 11 10.2204 11C10.0151 11 9.8228 11.0796 9.67843 11.2237L9.21972 11.6827C9.07547 11.8269 8.996 12.0192 8.996 12.2244C8.996 12.4295 9.07547 12.6219 9.21972 12.7661L15.4573 19.0038C15.602 19.1483 15.7952 19.2277 16.0006 19.2272C16.2067 19.2277 16.3998 19.1483 16.5444 19.0038Z" fill="white"/>
</svg>
