<svg width="27" height="28" viewBox="0 0 27 28" fill="none" xmlns="http://www.w3.org/2000/svg">
<path d="M24.3719 2.69507H21.7438V5.03721H5.25625V2.69507H2.62812C1.17898 2.69507 0 3.87405 0 5.32319V22.0771C0 23.5263 1.17898 24.7052 2.62812 24.7052H24.3719C25.821 24.7052 27 23.5263 27 22.0771V5.32319C27 3.87405 25.821 2.69507 24.3719 2.69507ZM1.58203 5.32319C1.58203 4.74638 2.05131 4.2771 2.62812 4.2771H3.67422V19.449H2.62812C2.25656 19.449 1.90276 19.5265 1.58203 19.6662V5.32319ZM24.3719 23.1232H2.62812C2.05131 23.1232 1.58203 22.6539 1.58203 22.0771C1.58203 21.5003 2.05131 21.031 2.62812 21.031H5.25625V6.61924H21.7438V21.031H24.3719C24.9487 21.031 25.418 21.5003 25.418 22.0771C25.418 22.6539 24.9487 23.1232 24.3719 23.1232ZM25.418 19.6662C25.0972 19.5265 24.7434 19.449 24.3719 19.449H23.3258V4.2771H24.3719C24.9487 4.2771 25.418 4.74638 25.418 5.32319V19.6662Z" fill="white"/>
<path d="M20.795 10.1135C20.2714 9.79248 19.7301 9.46057 18.986 9.22827L18.5146 10.7385C19.0709 10.9121 19.5067 11.1793 19.9682 11.4622C20.0784 11.5298 20.1886 11.5973 20.3004 11.6638L21.1088 10.3038C21.0031 10.2411 20.899 10.1773 20.795 10.1135Z" fill="white"/>
<path d="M7.03247 10.1135C6.91603 10.0421 6.79959 9.97077 6.6812 9.90063L5.875 11.2618C5.98643 11.3278 6.09601 11.395 6.20559 11.4622C6.72376 11.7799 7.25959 12.1084 7.9925 12.3404L8.4699 10.8321C7.92152 10.6585 7.48967 10.3938 7.03247 10.1135Z" fill="white"/>
<path d="M16.5353 8.95142C15.6297 8.99392 14.8585 9.18044 14.1084 9.5383L14.7896 10.9661C15.3507 10.6985 15.912 10.5645 16.6095 10.5317L16.5353 8.95142Z" fill="white"/>
<path d="M12.1943 10.6167C11.6339 10.8817 11.0719 11.0137 10.3721 11.0447L10.4422 12.6252C11.3496 12.585 12.1213 12.4012 12.8706 12.0469L12.1943 10.6167Z" fill="white"/>
<path d="M20.232 17.7402C19.6707 18.0062 19.108 18.1386 18.4072 18.1697L18.4774 19.7502C19.3861 19.7099 20.159 19.5255 20.9094 19.1699L20.232 17.7402Z" fill="white"/>
<path d="M15.0667 17.2388C14.9503 17.1674 14.8338 17.096 14.7154 17.0259L13.9092 18.3871C14.0206 18.4531 14.1302 18.5203 14.2398 18.5875C14.7579 18.9052 15.2938 19.2337 16.0267 19.4657L16.5041 17.9574C15.9557 17.7838 15.5239 17.519 15.0667 17.2388Z" fill="white"/>
<path d="M12.7494 16.6921L11.6307 15.5735L10.3703 16.8339L9.10981 15.5735L7.99121 16.6921L9.25161 17.9526L7.99121 19.2131L9.10981 20.3317L10.3703 19.0713L11.6307 20.3317L12.7494 19.2131L11.4889 17.9526L12.7494 16.6921Z" fill="white"/>
</svg>
