<svg width="23" height="23" viewBox="0 0 23 23" fill="none" xmlns="http://www.w3.org/2000/svg">
<rect width="22.5494" height="22.5494" fill="#C4C4C4"/>
<g clip-path="url(#clip0_21115_645)">
<path d="M11.6921 5.56787C13.0211 5.56787 14.2957 6.09581 15.2354 7.03556C16.1752 7.9753 16.7031 9.24986 16.7031 10.5789C16.7031 12.6534 15.1219 14.8271 12.0262 17.1488C11.9298 17.2211 11.8126 17.2602 11.6921 17.2602C11.5717 17.2602 11.4545 17.2211 11.3581 17.1488C8.2624 14.8271 6.68115 12.6534 6.68115 10.5789C6.68115 9.24986 7.20909 7.9753 8.14884 7.03556C9.08858 6.09581 10.3631 5.56787 11.6921 5.56787ZM11.6921 8.90853C11.2491 8.90853 10.8243 9.08451 10.511 9.39776C10.1978 9.71101 10.0218 10.1359 10.0218 10.5789C10.0218 11.0219 10.1978 11.4467 10.511 11.76C10.8243 12.0732 11.2491 12.2492 11.6921 12.2492C12.1351 12.2492 12.56 12.0732 12.8732 11.76C13.1865 11.4467 13.3625 11.0219 13.3625 10.5789C13.3625 10.1359 13.1865 9.71101 12.8732 9.39776C12.56 9.08451 12.1351 8.90853 11.6921 8.90853Z" fill="#CC1919"/>
</g>
<defs>
<clipPath id="clip0_21115_645">
<rect width="13.3626" height="13.3626" fill="white" transform="translate(5.01074 5.01074)"/>
</clipPath>
</defs>
</svg>
