<svg width="13" height="13" viewBox="0 0 13 13" fill="none" xmlns="http://www.w3.org/2000/svg">
<path d="M12.3641 0.635716C11.9543 0.225874 11.4086 0 10.8267 0C10.2457 0 9.69981 0.225665 9.29022 0.635255L6.30683 3.61885C5.73427 4.19162 5.54372 5.01629 5.75568 5.75615C5.56103 5.70007 5.35862 5.67112 5.15462 5.67112C4.5741 5.67112 4.02844 5.89678 3.61906 6.30683L0.635926 9.28955C0.226126 9.69914 0 10.245 0 10.826C0 11.4079 0.225665 11.9536 0.635716 12.3634C1.04598 12.7736 1.5921 13 2.17309 13C2.75474 13 3.30065 12.7736 3.71004 12.3634L6.69317 9.38065C7.26573 8.80809 7.45628 7.983 7.24453 7.2431C7.43918 7.2985 7.64226 7.32767 7.84672 7.32767C8.42657 7.32767 8.97202 7.102 9.38136 6.69241L12.3641 3.71016C12.7737 3.30057 13 2.75445 13 2.17254C13 1.59063 12.7735 1.04506 12.3641 0.635716ZM9.01397 4.78426C9.12108 4.67828 9.18059 4.53651 9.18197 4.38083C9.1813 4.23198 9.12293 4.09159 9.01649 3.98356C8.8093 3.7757 8.42477 3.7757 8.21759 3.98356L6.75452 5.44617C6.65239 5.06826 6.75385 4.65389 7.04765 4.36008L10.0312 1.37695C10.4527 0.955293 11.1964 0.951186 11.6227 1.37716C12.0614 1.81592 12.0614 2.53004 11.6227 2.9688L8.63954 5.95172C8.36078 6.23094 7.94138 6.34354 7.55618 6.24255L9.01397 4.78426ZM2.1717 11.9513C1.87128 11.9513 1.58933 11.8346 1.37758 11.6224C1.16516 11.4106 1.04845 11.128 1.04845 10.8262C1.04845 10.5258 1.16516 10.2432 1.37758 10.0309L4.35983 7.04895C4.57225 6.83628 4.85491 6.71936 5.15529 6.71936C5.2526 6.71936 5.34995 6.73189 5.44386 6.75695L3.89073 8.31007C3.78429 8.41672 3.72525 8.55895 3.72525 8.70919C3.72525 8.85804 3.78316 8.99888 3.89094 9.10964C4.09997 9.31796 4.48425 9.31544 4.68938 9.10897L6.24456 7.55379C6.34715 7.9317 6.24523 8.34607 5.95143 8.63987L2.96872 11.6223C2.7565 11.8341 2.47435 11.9513 2.17413 11.9513L2.173 12.2899L2.17321 11.9513H2.1717V11.9513Z" fill="white"/>
</svg>
