<svg width="32" height="32" viewBox="0 0 32 32" fill="none" xmlns="http://www.w3.org/2000/svg">
<path d="M7.54117 27.3055C7.34973 27.472 7.11477 27.5804 6.86388 27.618C6.61299 27.6556 6.35658 27.6208 6.12476 27.5178C5.89293 27.4147 5.69531 27.2477 5.55509 27.0363C5.41488 26.8249 5.33789 26.5778 5.33317 26.3242V23.3335C4.62593 23.3335 3.94765 23.0525 3.44755 22.5524C2.94746 22.0524 2.6665 21.3741 2.6665 20.6668V11.3335C2.6665 10.6263 2.94746 9.94798 3.44755 9.44788C3.94765 8.94778 4.62593 8.66683 5.33317 8.66683H19.9998C20.7071 8.66683 21.3854 8.94778 21.8855 9.44788C22.3856 9.94798 22.6665 10.6263 22.6665 11.3335V20.6668C22.6665 21.3741 22.3856 22.0524 21.8855 22.5524C21.3854 23.0525 20.7071 23.3335 19.9998 23.3335H13.3372L7.54117 27.3055ZM8.6665 23.1815C8.788 23.1808 8.90731 23.1491 9.01317 23.0895L12.1532 20.9055C12.3766 20.7501 12.6423 20.6668 12.9145 20.6668H18.6665C19.0201 20.6668 19.3593 20.5264 19.6093 20.2763C19.8594 20.0263 19.9998 19.6871 19.9998 19.3335V12.6668C19.9998 12.3132 19.8594 11.9741 19.6093 11.724C19.3593 11.474 19.0201 11.3335 18.6665 11.3335H6.6665C6.31288 11.3335 5.97374 11.474 5.7237 11.724C5.47365 11.9741 5.33317 12.3132 5.33317 12.6668V19.3335C5.33317 20.0535 5.90517 20.6428 6.6665 20.6668C7.21317 20.6882 7.60917 20.7775 7.79184 20.9682C7.9625 21.1468 7.97184 21.4482 7.99984 22.0215C8.00384 22.1055 8.00384 22.2575 7.99984 22.5148C7.99984 22.6916 8.07008 22.8612 8.1951 22.9862C8.32012 23.1113 8.48969 23.1815 8.6665 23.1815ZM23.9998 16.6882C23.9956 16.8526 23.9956 17.0171 23.9998 17.1815V16.6882C24.0265 16.1148 24.0372 15.8135 24.2078 15.6348C24.3905 15.4442 24.7865 15.3548 25.3332 15.3335C26.0945 15.3095 26.6665 14.7202 26.6665 14.0002V7.3335C26.6665 6.97987 26.526 6.64074 26.276 6.39069C26.0259 6.14064 25.6868 6.00016 25.3332 6.00016H13.3332C12.9795 6.00016 12.6404 6.14064 12.3904 6.39069C12.1403 6.64074 11.9998 6.97987 11.9998 7.3335H9.33317V6.00016C9.33317 5.29292 9.61412 4.61464 10.1142 4.11454C10.6143 3.61445 11.2926 3.3335 11.9998 3.3335H26.6665C27.3737 3.3335 28.052 3.61445 28.5521 4.11454C29.0522 4.61464 29.3332 5.29292 29.3332 6.00016V15.3335C29.3332 16.0407 29.0522 16.719 28.5521 17.2191C28.052 17.7192 27.3737 18.0002 26.6665 18.0002V20.9908C26.6618 21.2445 26.5848 21.4915 26.4446 21.7029C26.3044 21.9144 26.1067 22.0814 25.8749 22.1844C25.6431 22.2875 25.3867 22.3222 25.1358 22.2846C24.8849 22.247 24.6499 22.1386 24.4585 21.9722L23.9998 21.6575V16.6895V16.6882Z" fill="#00755E"/>
</svg>
