<svg width="31" height="31" viewBox="0 0 31 31" fill="none" xmlns="http://www.w3.org/2000/svg">
<circle cx="15.998" cy="15.002" r="15" fill="#E4572E"/>
<path d="M20.0038 14.4556L13.7719 8.22372C13.6278 8.07947 13.4353 8 13.2302 8C13.025 8 12.8326 8.07947 12.6885 8.22372L12.2295 8.68255C11.9309 8.98152 11.9309 9.46745 12.2295 9.76597L17.4627 14.9991L12.2237 20.238C12.0796 20.3823 12 20.5746 12 20.7796C12 20.9849 12.0796 21.1772 12.2237 21.3216L12.6827 21.7803C12.8269 21.9245 13.0192 22.004 13.2244 22.004C13.4295 22.004 13.6219 21.9245 13.7661 21.7803L20.0038 15.5427C20.1483 15.398 20.2277 15.2048 20.2272 14.9994C20.2277 14.7933 20.1483 14.6002 20.0038 14.4556Z" fill="white"/>
</svg>
