<svg width="40" height="40" viewBox="0 0 40 40" fill="none" xmlns="http://www.w3.org/2000/svg">
<circle cx="20" cy="20" r="19" stroke="#FF7676" stroke-width="2"/>
<g clip-path="url(#clip0_428_20305)">
<path d="M16.2199 13.4211H16.0473C16.1422 13.4211 16.2199 13.3434 16.2199 13.2484V13.4211H22.7809V13.2484C22.7809 13.3434 22.8586 13.4211 22.9535 13.4211H22.7809V14.975H24.3348V13.2484C24.3348 12.4866 23.7154 11.8672 22.9535 11.8672H16.0473C15.2854 11.8672 14.666 12.4866 14.666 13.2484V14.975H16.2199V13.4211ZM27.0973 14.975H11.9035C11.5215 14.975 11.2129 15.2836 11.2129 15.6656V16.3563C11.2129 16.4512 11.2906 16.5289 11.3855 16.5289H12.6891L13.2222 27.8163C13.2567 28.5523 13.8653 29.1328 14.6013 29.1328H24.3995C25.1376 29.1328 25.7441 28.5544 25.7786 27.8163L26.3117 16.5289H27.6152C27.7102 16.5289 27.7879 16.4512 27.7879 16.3563V15.6656C27.7879 15.2836 27.4793 14.975 27.0973 14.975ZM24.2333 27.5789H14.7675L14.2452 16.5289H24.7556L24.2333 27.5789Z" fill="#FE4D4D"/>
</g>
<defs>
<clipPath id="clip0_428_20305">
<rect width="17" height="17" fill="white" transform="translate(11 12)"/>
</clipPath>
</defs>
</svg>
