<svg width="26" height="27" viewBox="0 0 26 27" fill="none" xmlns="http://www.w3.org/2000/svg">
<path d="M11.7373 13.5C15.1891 13.5 17.9873 10.7018 17.9873 7.25C17.9873 3.79822 15.1891 1 11.7373 1C8.28552 1 5.4873 3.79822 5.4873 7.25C5.4873 10.7018 8.28552 13.5 11.7373 13.5Z" stroke="#00755E" stroke-width="2" stroke-linecap="round" stroke-linejoin="round"/>
<path d="M20.7496 18.1748L16.3246 22.5998C16.1496 22.7748 15.9871 23.0998 15.9496 23.3373L15.7121 25.0248C15.6246 25.6373 16.0496 26.0623 16.6621 25.9748L18.3496 25.7373C18.5871 25.6998 18.9246 25.5373 19.0871 25.3623L23.5121 20.9373C24.2746 20.1748 24.6371 19.2873 23.5121 18.1623C22.3996 17.0498 21.5121 17.4123 20.7496 18.1748Z" stroke="#00755E" stroke-width="2" stroke-miterlimit="10" stroke-linecap="round" stroke-linejoin="round"/>
<path d="M20.1123 18.8125C20.4873 20.1625 21.5373 21.2125 22.8873 21.5875" stroke="#00755E" stroke-width="2" stroke-miterlimit="10" stroke-linecap="round" stroke-linejoin="round"/>
<path d="M1 26C1 21.1625 5.81253 17.25 11.7375 17.25C13.0375 17.25 14.2875 17.4375 15.45 17.7875" stroke="#00755E" stroke-width="2" stroke-linecap="round" stroke-linejoin="round"/>
</svg>
