<svg width="50" height="50" viewBox="0 0 50 50" fill="none" xmlns="http://www.w3.org/2000/svg">
<rect width="50" height="50" rx="13" fill="white"/>
<path d="M19.9531 24.9998C19.9531 24.0585 20.2125 23.1767 20.6631 22.4216V19.2188H17.4602C16.189 20.8697 15.5 22.8817 15.5 24.9998C15.5 27.118 16.189 29.13 17.4602 30.7809H20.6631V27.5781C20.2125 26.823 19.9531 25.9412 19.9531 24.9998Z" fill="#FBBD00"/>
<path d="M25 30.0469L22.7734 32.2734L25 34.5C27.1182 34.5 29.1302 33.8109 30.7811 32.5398V29.3403H27.5817C26.82 29.7925 25.9345 30.0469 25 30.0469Z" fill="#0F9D58"/>
<path d="M20.6638 27.5781L17.4609 30.781C17.7126 31.1078 17.9867 31.4208 18.2832 31.7174C20.0775 33.5117 22.4632 34.4999 25.0007 34.4999V30.0468C23.1592 30.0468 21.5452 29.0552 20.6638 27.5781Z" fill="#31AA52"/>
<path d="M34.5 25.0002C34.5 24.4222 34.4477 23.8432 34.3444 23.2792L34.2609 22.8228H25V27.2759H29.507C29.0693 28.1465 28.3964 28.8568 27.5816 29.3406L30.781 32.54C31.1079 32.2883 31.4209 32.0143 31.7175 31.7177C33.5118 29.9234 34.5 27.5377 34.5 25.0002Z" fill="#3C79E6"/>
<path d="M28.5687 21.4313L28.9623 21.8249L32.1111 18.6761L31.7175 18.2825C29.9232 16.4882 27.5376 15.5 25 15.5L22.7734 17.7266L25 19.9531C26.348 19.9531 27.6154 20.4781 28.5687 21.4313Z" fill="#CF2D48"/>
<path d="M25.0007 19.9531V15.5C22.4632 15.5 20.0776 16.4882 18.2832 18.2825C17.9867 18.579 17.7126 18.892 17.4609 19.2189L20.6638 22.4218C21.5452 20.9447 23.1592 19.9531 25.0007 19.9531Z" fill="#EB4132"/>
</svg>
