<svg width="163" height="131" viewBox="0 0 163 131" fill="none" xmlns="http://www.w3.org/2000/svg">
<path d="M85.2478 39.3828H22.865C19.0284 39.3828 15.9072 41.9593 15.9072 45.1262V112.501C15.9072 115.668 19.0287 118.244 22.865 118.244C25.2791 118.244 82.4478 118.244 85.2478 118.244C89.0844 118.244 92.2056 115.668 92.2056 112.501V45.1262C92.2059 41.9593 89.0844 39.3828 85.2478 39.3828ZM46.6448 114.302H33.5666V108.479C33.5666 107.39 32.4979 106.508 31.1789 106.508C29.86 106.508 28.7912 107.39 28.7912 108.479V114.302H22.865C21.6619 114.302 20.6829 113.494 20.6829 112.501V106.03C20.6829 100.441 26.3841 98.3005 26.7604 98.1654L37.7645 94.6437L42.5791 102.609C43.5637 104.238 46.0864 104.768 47.8966 103.707L47.9351 103.684L48.6416 104.562L46.6448 114.302ZM46.2434 99.841L42.2378 93.2141L45.5522 92.1545L50.5931 97.2903C50.4814 97.356 46.4965 99.6925 46.2434 99.841ZM42.4715 67.0403C49.2971 67.2196 56.2437 65.5361 61.8904 62.6698C63.6844 64.257 64.7919 65.2165 65.2934 65.6867C65.2934 69.3876 65.2934 71.2942 65.2934 75.1912C65.2934 80.2332 60.3164 84.448 54.0795 84.448C47.2577 84.448 42.4718 80.1281 42.4718 75.1912V67.0403H42.4715ZM41.6167 63.0574C40.0955 62.9622 38.5951 63.6713 37.9714 64.9156C37.8992 64.9261 37.8275 64.9374 37.7556 64.9495V62.4514C37.7556 55.1109 44.9897 49.1391 53.8818 49.1391C62.7739 49.1391 70.0083 55.1109 70.0083 62.4514V64.6618C69.8765 64.1004 69.4295 63.629 68.9768 63.189C68.3079 62.5386 67.3719 61.7473 64.7483 59.4192C63.5351 58.3428 61.5717 58.1449 60.0812 58.9493C54.557 61.9281 47.8234 63.425 41.6167 63.0574ZM54.0511 94.5415L48.6973 89.0863V87.6975C52.0054 88.586 55.8884 88.6651 59.3945 87.6404V89.0974L54.0511 94.5415ZM56.272 101.401L55.6687 102.15H52.4345L51.8309 101.401L54.0515 100.099L56.272 101.401ZM51.4883 114.302L53.1715 106.092H54.9311L56.6143 114.302H51.4883ZM62.5424 92.1521L65.8651 93.2143L61.8595 99.8413C61.8592 99.841 57.5219 97.2979 57.5031 97.2869L62.5424 92.1521ZM87.4302 112.501C87.4302 113.494 86.4515 114.302 85.2481 114.302H79.3231V108.479C79.3231 107.39 78.2544 106.508 76.9354 106.508C75.6165 106.508 74.5477 107.39 74.5477 108.479V114.302H61.4584L59.4613 104.562L60.1678 103.684L60.2066 103.707C62.0136 104.766 64.5366 104.242 65.5239 102.609L70.3381 94.6442L81.3546 98.1662C81.6774 98.2816 87.4305 100.427 87.4305 106.03V112.501H87.4302ZM87.4302 96.8806C85.3459 95.2802 83.3303 94.5743 83.1562 94.5152C83.1409 94.5099 83.1259 94.5049 83.1107 94.5002L64.1699 88.4451V85.4206C67.1067 83.443 69.1764 80.6222 69.8379 77.41C73.8219 76.9157 76.4601 74.1863 76.4601 71.141C76.4601 69.6919 75.8597 68.3044 74.7837 67.1938V62.4516C74.7837 52.9376 65.407 45.1972 53.8815 45.1972C42.3562 45.1972 32.9796 52.9376 32.9796 62.4516V67.3184C31.8921 68.4142 31.3037 69.7387 31.3037 71.141C31.3037 74.2394 34.0286 76.9438 37.9218 77.4166C38.5996 80.7617 40.7861 83.6438 43.9213 85.6145V88.4454L25.0012 94.5002C24.9862 94.5049 24.9712 94.5099 24.9563 94.5149C24.7821 94.5741 22.7672 95.2797 20.6823 96.8804V45.1262C20.6823 44.1331 21.6609 43.325 22.8643 43.325H85.2472C86.4509 43.325 87.4295 44.1331 87.4295 45.1262V96.8806H87.4302ZM70.0688 73.281V69.006C71.1193 69.4397 71.6847 70.2772 71.6847 71.141C71.6851 72.0484 71.0684 72.8736 70.0688 73.281ZM37.6957 69.1246V73.2812C36.6757 72.8655 36.0798 72.0295 36.0798 71.141C36.0798 70.279 36.761 69.5503 37.6957 69.1246Z" fill="#C4C4C4"/>
<path d="M85.2478 39.3828H22.865C19.0284 39.3828 15.9072 41.9593 15.9072 45.1262V112.501C15.9072 115.668 19.0287 118.244 22.865 118.244C25.2791 118.244 82.4478 118.244 85.2478 118.244C89.0844 118.244 92.2056 115.668 92.2056 112.501V45.1262C92.2059 41.9593 89.0844 39.3828 85.2478 39.3828ZM46.6448 114.302H33.5666V108.479C33.5666 107.39 32.4979 106.508 31.1789 106.508C29.86 106.508 28.7912 107.39 28.7912 108.479V114.302H22.865C21.6619 114.302 20.6829 113.494 20.6829 112.501V106.03C20.6829 100.441 26.3841 98.3005 26.7604 98.1654L37.7645 94.6437L42.5791 102.609C43.5637 104.238 46.0864 104.768 47.8966 103.707L47.9351 103.684L48.6416 104.562L46.6448 114.302ZM46.2434 99.841L42.2378 93.2141L45.5522 92.1545L50.5931 97.2903C50.4814 97.356 46.4965 99.6925 46.2434 99.841ZM42.4715 67.0403C49.2971 67.2196 56.2437 65.5361 61.8904 62.6698C63.6844 64.257 64.7919 65.2165 65.2934 65.6867C65.2934 69.3876 65.2934 71.2942 65.2934 75.1912C65.2934 80.2332 60.3164 84.448 54.0795 84.448C47.2577 84.448 42.4718 80.1281 42.4718 75.1912V67.0403H42.4715ZM41.6167 63.0574C40.0955 62.9622 38.5951 63.6713 37.9714 64.9156C37.8992 64.9261 37.8275 64.9374 37.7556 64.9495V62.4514C37.7556 55.1109 44.9897 49.1391 53.8818 49.1391C62.7739 49.1391 70.0083 55.1109 70.0083 62.4514V64.6618C69.8765 64.1004 69.4295 63.629 68.9768 63.189C68.3079 62.5386 67.3719 61.7473 64.7483 59.4192C63.5351 58.3428 61.5717 58.1449 60.0812 58.9493C54.557 61.9281 47.8234 63.425 41.6167 63.0574ZM54.0511 94.5415L48.6973 89.0863V87.6975C52.0054 88.586 55.8884 88.6651 59.3945 87.6404V89.0974L54.0511 94.5415ZM56.272 101.401L55.6687 102.15H52.4345L51.8309 101.401L54.0515 100.099L56.272 101.401ZM51.4883 114.302L53.1715 106.092H54.9311L56.6143 114.302H51.4883ZM62.5424 92.1521L65.8651 93.2143L61.8595 99.8413C61.8592 99.841 57.5219 97.2979 57.5031 97.2869L62.5424 92.1521ZM87.4302 112.501C87.4302 113.494 86.4515 114.302 85.2481 114.302H79.3231V108.479C79.3231 107.39 78.2544 106.508 76.9354 106.508C75.6165 106.508 74.5477 107.39 74.5477 108.479V114.302H61.4584L59.4613 104.562L60.1678 103.684L60.2066 103.707C62.0136 104.766 64.5366 104.242 65.5239 102.609L70.3381 94.6442L81.3546 98.1662C81.6774 98.2816 87.4305 100.427 87.4305 106.03V112.501H87.4302ZM87.4302 96.8806C85.3459 95.2802 83.3303 94.5743 83.1562 94.5152C83.1409 94.5099 83.1259 94.5049 83.1107 94.5002L64.1699 88.4451V85.4206C67.1067 83.443 69.1764 80.6222 69.8379 77.41C73.8219 76.9157 76.4601 74.1863 76.4601 71.141C76.4601 69.6919 75.8597 68.3044 74.7837 67.1938V62.4516C74.7837 52.9376 65.407 45.1972 53.8815 45.1972C42.3562 45.1972 32.9796 52.9376 32.9796 62.4516V67.3184C31.8921 68.4142 31.3037 69.7387 31.3037 71.141C31.3037 74.2394 34.0286 76.9438 37.9218 77.4166C38.5996 80.7617 40.7861 83.6438 43.9213 85.6145V88.4454L25.0012 94.5002C24.9862 94.5049 24.9712 94.5099 24.9563 94.5149C24.7821 94.5741 22.7672 95.2797 20.6823 96.8804V45.1262C20.6823 44.1331 21.6609 43.325 22.8643 43.325H85.2472C86.4509 43.325 87.4295 44.1331 87.4295 45.1262V96.8806H87.4302ZM70.0688 73.281V69.006C71.1193 69.4397 71.6847 70.2772 71.6847 71.141C71.6851 72.0484 71.0684 72.8736 70.0688 73.281ZM37.6957 69.1246V73.2812C36.6757 72.8655 36.0798 72.0295 36.0798 71.141C36.0798 70.279 36.761 69.5503 37.6957 69.1246Z" fill="#E4572E"/>
<path d="M85.2478 39.3828H22.865C19.0284 39.3828 15.9072 41.9593 15.9072 45.1262V112.501C15.9072 115.668 19.0287 118.244 22.865 118.244C25.2791 118.244 82.4478 118.244 85.2478 118.244C89.0844 118.244 92.2056 115.668 92.2056 112.501V45.1262C92.2059 41.9593 89.0844 39.3828 85.2478 39.3828ZM46.6448 114.302H33.5666V108.479C33.5666 107.39 32.4979 106.508 31.1789 106.508C29.86 106.508 28.7912 107.39 28.7912 108.479V114.302H22.865C21.6619 114.302 20.6829 113.494 20.6829 112.501V106.03C20.6829 100.441 26.3841 98.3005 26.7604 98.1654L37.7645 94.6437L42.5791 102.609C43.5637 104.238 46.0864 104.768 47.8966 103.707L47.9351 103.684L48.6416 104.562L46.6448 114.302ZM46.2434 99.841L42.2378 93.2141L45.5522 92.1545L50.5931 97.2903C50.4814 97.356 46.4965 99.6925 46.2434 99.841ZM42.4715 67.0403C49.2971 67.2196 56.2437 65.5361 61.8904 62.6698C63.6844 64.257 64.7919 65.2165 65.2934 65.6867C65.2934 69.3876 65.2934 71.2942 65.2934 75.1912C65.2934 80.2332 60.3164 84.448 54.0795 84.448C47.2577 84.448 42.4718 80.1281 42.4718 75.1912V67.0403H42.4715ZM41.6167 63.0574C40.0955 62.9622 38.5951 63.6713 37.9714 64.9156C37.8992 64.9261 37.8275 64.9374 37.7556 64.9495V62.4514C37.7556 55.1109 44.9897 49.1391 53.8818 49.1391C62.7739 49.1391 70.0083 55.1109 70.0083 62.4514V64.6618C69.8765 64.1004 69.4295 63.629 68.9768 63.189C68.3079 62.5386 67.3719 61.7473 64.7483 59.4192C63.5351 58.3428 61.5717 58.1449 60.0812 58.9493C54.557 61.9281 47.8234 63.425 41.6167 63.0574ZM54.0511 94.5415L48.6973 89.0863V87.6975C52.0054 88.586 55.8884 88.6651 59.3945 87.6404V89.0974L54.0511 94.5415ZM56.272 101.401L55.6687 102.15H52.4345L51.8309 101.401L54.0515 100.099L56.272 101.401ZM51.4883 114.302L53.1715 106.092H54.9311L56.6143 114.302H51.4883ZM62.5424 92.1521L65.8651 93.2143L61.8595 99.8413C61.8592 99.841 57.5219 97.2979 57.5031 97.2869L62.5424 92.1521ZM87.4302 112.501C87.4302 113.494 86.4515 114.302 85.2481 114.302H79.3231V108.479C79.3231 107.39 78.2544 106.508 76.9354 106.508C75.6165 106.508 74.5477 107.39 74.5477 108.479V114.302H61.4584L59.4613 104.562L60.1678 103.684L60.2066 103.707C62.0136 104.766 64.5366 104.242 65.5239 102.609L70.3381 94.6442L81.3546 98.1662C81.6774 98.2816 87.4305 100.427 87.4305 106.03V112.501H87.4302ZM87.4302 96.8806C85.3459 95.2802 83.3303 94.5743 83.1562 94.5152C83.1409 94.5099 83.1259 94.5049 83.1107 94.5002L64.1699 88.4451V85.4206C67.1067 83.443 69.1764 80.6222 69.8379 77.41C73.8219 76.9157 76.4601 74.1863 76.4601 71.141C76.4601 69.6919 75.8597 68.3044 74.7837 67.1938V62.4516C74.7837 52.9376 65.407 45.1972 53.8815 45.1972C42.3562 45.1972 32.9796 52.9376 32.9796 62.4516V67.3184C31.8921 68.4142 31.3037 69.7387 31.3037 71.141C31.3037 74.2394 34.0286 76.9438 37.9218 77.4166C38.5996 80.7617 40.7861 83.6438 43.9213 85.6145V88.4454L25.0012 94.5002C24.9862 94.5049 24.9712 94.5099 24.9563 94.5149C24.7821 94.5741 22.7672 95.2797 20.6823 96.8804V45.1262C20.6823 44.1331 21.6609 43.325 22.8643 43.325H85.2472C86.4509 43.325 87.4295 44.1331 87.4295 45.1262V96.8806H87.4302ZM70.0688 73.281V69.006C71.1193 69.4397 71.6847 70.2772 71.6847 71.141C71.6851 72.0484 71.0684 72.8736 70.0688 73.281ZM37.6957 69.1246V73.2812C36.6757 72.8655 36.0798 72.0295 36.0798 71.141C36.0798 70.279 36.761 69.5503 37.6957 69.1246Z" fill="url(#paint0_linear_428_18261)"/>
<path d="M144.093 62.4448H105.757C104.438 62.4448 103.369 63.3273 103.369 64.4158C103.369 65.5043 104.438 66.3868 105.757 66.3868H144.093C145.412 66.3868 146.481 65.5043 146.481 64.4158C146.481 63.3273 145.412 62.4448 144.093 62.4448Z" fill="#C4C4C4"/>
<path d="M144.093 62.4448H105.757C104.438 62.4448 103.369 63.3273 103.369 64.4158C103.369 65.5043 104.438 66.3868 105.757 66.3868H144.093C145.412 66.3868 146.481 65.5043 146.481 64.4158C146.481 63.3273 145.412 62.4448 144.093 62.4448Z" fill="#E4572E"/>
<path d="M144.093 62.4448H105.757C104.438 62.4448 103.369 63.3273 103.369 64.4158C103.369 65.5043 104.438 66.3868 105.757 66.3868H144.093C145.412 66.3868 146.481 65.5043 146.481 64.4158C146.481 63.3273 145.412 62.4448 144.093 62.4448Z" fill="url(#paint1_linear_428_18261)"/>
<path d="M144.093 72.8228H105.757C104.438 72.8228 103.369 73.7052 103.369 74.7937C103.369 75.8822 104.438 76.7647 105.757 76.7647H144.093C145.412 76.7647 146.481 75.8822 146.481 74.7937C146.481 73.7052 145.412 72.8228 144.093 72.8228Z" fill="#C4C4C4"/>
<path d="M144.093 72.8228H105.757C104.438 72.8228 103.369 73.7052 103.369 74.7937C103.369 75.8822 104.438 76.7647 105.757 76.7647H144.093C145.412 76.7647 146.481 75.8822 146.481 74.7937C146.481 73.7052 145.412 72.8228 144.093 72.8228Z" fill="#E4572E"/>
<path d="M144.093 72.8228H105.757C104.438 72.8228 103.369 73.7052 103.369 74.7937C103.369 75.8822 104.438 76.7647 105.757 76.7647H144.093C145.412 76.7647 146.481 75.8822 146.481 74.7937C146.481 73.7052 145.412 72.8228 144.093 72.8228Z" fill="url(#paint2_linear_428_18261)"/>
<path d="M144.093 83.2012H105.757C104.438 83.2012 103.369 84.0836 103.369 85.1721C103.369 86.2607 104.438 87.1431 105.757 87.1431H144.093C145.412 87.1431 146.481 86.2607 146.481 85.1721C146.481 84.0836 145.412 83.2012 144.093 83.2012Z" fill="#C4C4C4"/>
<path d="M144.093 83.2012H105.757C104.438 83.2012 103.369 84.0836 103.369 85.1721C103.369 86.2607 104.438 87.1431 105.757 87.1431H144.093C145.412 87.1431 146.481 86.2607 146.481 85.1721C146.481 84.0836 145.412 83.2012 144.093 83.2012Z" fill="#E4572E"/>
<path d="M144.093 83.2012H105.757C104.438 83.2012 103.369 84.0836 103.369 85.1721C103.369 86.2607 104.438 87.1431 105.757 87.1431H144.093C145.412 87.1431 146.481 86.2607 146.481 85.1721C146.481 84.0836 145.412 83.2012 144.093 83.2012Z" fill="url(#paint3_linear_428_18261)"/>
<path d="M144.093 93.5796H105.757C104.438 93.5796 103.369 94.4621 103.369 95.5506C103.369 96.6391 104.438 97.5215 105.757 97.5215H144.093C145.412 97.5215 146.481 96.6391 146.481 95.5506C146.481 94.4621 145.412 93.5796 144.093 93.5796Z" fill="#C4C4C4"/>
<path d="M144.093 93.5796H105.757C104.438 93.5796 103.369 94.4621 103.369 95.5506C103.369 96.6391 104.438 97.5215 105.757 97.5215H144.093C145.412 97.5215 146.481 96.6391 146.481 95.5506C146.481 94.4621 145.412 93.5796 144.093 93.5796Z" fill="#E4572E"/>
<path d="M144.093 93.5796H105.757C104.438 93.5796 103.369 94.4621 103.369 95.5506C103.369 96.6391 104.438 97.5215 105.757 97.5215H144.093C145.412 97.5215 146.481 96.6391 146.481 95.5506C146.481 94.4621 145.412 93.5796 144.093 93.5796Z" fill="url(#paint4_linear_428_18261)"/>
<path d="M144.093 103.958H105.757C104.438 103.958 103.369 104.84 103.369 105.929C103.369 107.017 104.438 107.9 105.757 107.9H144.093C145.412 107.9 146.481 107.017 146.481 105.929C146.481 104.841 145.412 103.958 144.093 103.958Z" fill="#C4C4C4"/>
<path d="M144.093 103.958H105.757C104.438 103.958 103.369 104.84 103.369 105.929C103.369 107.017 104.438 107.9 105.757 107.9H144.093C145.412 107.9 146.481 107.017 146.481 105.929C146.481 104.841 145.412 103.958 144.093 103.958Z" fill="#E4572E"/>
<path d="M144.093 103.958H105.757C104.438 103.958 103.369 104.84 103.369 105.929C103.369 107.017 104.438 107.9 105.757 107.9H144.093C145.412 107.9 146.481 107.017 146.481 105.929C146.481 104.841 145.412 103.958 144.093 103.958Z" fill="url(#paint5_linear_428_18261)"/>
<path d="M140.562 43.6562H109.288C106.024 43.6562 103.369 45.8477 103.369 48.5419V50.3912C103.369 53.0854 106.025 55.2769 109.288 55.2769H140.562C143.826 55.2769 146.481 53.0851 146.481 50.3912V48.5419C146.481 45.848 143.826 43.6562 140.562 43.6562ZM141.705 50.3909C141.705 50.911 141.193 51.3344 140.562 51.3344H109.288C108.658 51.3344 108.145 50.911 108.145 50.3909V48.5416C108.145 48.0216 108.657 47.5982 109.288 47.5982H140.562C141.192 47.5982 141.705 48.0213 141.705 48.5416V50.3909Z" fill="#C4C4C4"/>
<path d="M140.562 43.6562H109.288C106.024 43.6562 103.369 45.8477 103.369 48.5419V50.3912C103.369 53.0854 106.025 55.2769 109.288 55.2769H140.562C143.826 55.2769 146.481 53.0851 146.481 50.3912V48.5419C146.481 45.848 143.826 43.6562 140.562 43.6562ZM141.705 50.3909C141.705 50.911 141.193 51.3344 140.562 51.3344H109.288C108.658 51.3344 108.145 50.911 108.145 50.3909V48.5416C108.145 48.0216 108.657 47.5982 109.288 47.5982H140.562C141.192 47.5982 141.705 48.0213 141.705 48.5416V50.3909Z" fill="#E4572E"/>
<path d="M140.562 43.6562H109.288C106.024 43.6562 103.369 45.8477 103.369 48.5419V50.3912C103.369 53.0854 106.025 55.2769 109.288 55.2769H140.562C143.826 55.2769 146.481 53.0851 146.481 50.3912V48.5419C146.481 45.848 143.826 43.6562 140.562 43.6562ZM141.705 50.3909C141.705 50.911 141.193 51.3344 140.562 51.3344H109.288C108.658 51.3344 108.145 50.911 108.145 50.3909V48.5416C108.145 48.0216 108.657 47.5982 109.288 47.5982H140.562C141.192 47.5982 141.705 48.0213 141.705 48.5416V50.3909Z" fill="url(#paint6_linear_428_18261)"/>
<path d="M160.612 76.9876C161.931 76.9876 163 76.1051 163 75.0166V27.3196C163 24.4196 160.141 22.0607 156.629 22.0607H125.737V19.6412C125.737 16.7412 122.878 14.3821 119.366 14.3821H96.4361V4.93138C96.4361 2.21222 93.7562 0 90.4621 0H87.0716C85.7526 0 84.6839 0.882471 84.6839 1.97098C84.6839 3.05948 85.7526 3.94195 87.0716 3.94195H90.4621C91.1227 3.94195 91.6604 4.38555 91.6604 4.93112C91.6604 8.65889 91.6604 25.9512 91.6604 28.7639H71.3396C71.3396 26.0292 71.3396 7.66525 71.3396 4.93112C71.3396 4.38581 71.877 3.94195 72.5379 3.94195H75.9284C77.2474 3.94195 78.3161 3.05948 78.3161 1.97098C78.3161 0.882471 77.2474 0 75.9284 0H72.5379C69.2435 0 66.5639 2.21222 66.5639 4.93138V14.3818H43.634C40.1209 14.3818 37.263 16.7412 37.263 19.6409V22.0605H6.37101C2.85823 22.0607 0 24.4196 0 27.3196V125.277C0 128.177 2.85823 130.536 6.37101 130.536H156.629C160.142 130.536 163 128.177 163 125.277V84.2153C163 83.1268 161.931 82.2443 160.612 82.2443C159.293 82.2443 158.225 83.1268 158.225 84.2153V125.277C158.225 126.003 157.509 126.594 156.629 126.594H6.37101C5.49138 126.594 4.77571 126.003 4.77571 125.277V27.3193C4.77571 26.5932 5.49138 26.0024 6.37101 26.0024H66.5639V28.7636H66.2668C64.9479 28.7636 63.8791 29.6461 63.8791 30.7346C63.8791 31.8231 64.9479 32.7056 66.2668 32.7056C69.4711 32.7056 93.6027 32.7056 96.7325 32.7056C98.0515 32.7056 99.1202 31.8231 99.1202 30.7346C99.1202 29.6461 98.0515 28.7636 96.7325 28.7636H96.4358V26.0024H156.628C157.508 26.0024 158.224 26.5932 158.224 27.3193V75.0164C158.224 76.1051 159.293 76.9876 160.612 76.9876ZM66.5642 22.0605H42.0387V19.6409C42.0387 18.9148 42.7544 18.324 43.634 18.324H66.5639V22.0605H66.5642ZM120.962 22.0605H96.4361V18.324H119.366C120.246 18.324 120.961 18.9148 120.961 19.6409V22.0605H120.962Z" fill="#C4C4C4"/>
<path d="M160.612 76.9876C161.931 76.9876 163 76.1051 163 75.0166V27.3196C163 24.4196 160.141 22.0607 156.629 22.0607H125.737V19.6412C125.737 16.7412 122.878 14.3821 119.366 14.3821H96.4361V4.93138C96.4361 2.21222 93.7562 0 90.4621 0H87.0716C85.7526 0 84.6839 0.882471 84.6839 1.97098C84.6839 3.05948 85.7526 3.94195 87.0716 3.94195H90.4621C91.1227 3.94195 91.6604 4.38555 91.6604 4.93112C91.6604 8.65889 91.6604 25.9512 91.6604 28.7639H71.3396C71.3396 26.0292 71.3396 7.66525 71.3396 4.93112C71.3396 4.38581 71.877 3.94195 72.5379 3.94195H75.9284C77.2474 3.94195 78.3161 3.05948 78.3161 1.97098C78.3161 0.882471 77.2474 0 75.9284 0H72.5379C69.2435 0 66.5639 2.21222 66.5639 4.93138V14.3818H43.634C40.1209 14.3818 37.263 16.7412 37.263 19.6409V22.0605H6.37101C2.85823 22.0607 0 24.4196 0 27.3196V125.277C0 128.177 2.85823 130.536 6.37101 130.536H156.629C160.142 130.536 163 128.177 163 125.277V84.2153C163 83.1268 161.931 82.2443 160.612 82.2443C159.293 82.2443 158.225 83.1268 158.225 84.2153V125.277C158.225 126.003 157.509 126.594 156.629 126.594H6.37101C5.49138 126.594 4.77571 126.003 4.77571 125.277V27.3193C4.77571 26.5932 5.49138 26.0024 6.37101 26.0024H66.5639V28.7636H66.2668C64.9479 28.7636 63.8791 29.6461 63.8791 30.7346C63.8791 31.8231 64.9479 32.7056 66.2668 32.7056C69.4711 32.7056 93.6027 32.7056 96.7325 32.7056C98.0515 32.7056 99.1202 31.8231 99.1202 30.7346C99.1202 29.6461 98.0515 28.7636 96.7325 28.7636H96.4358V26.0024H156.628C157.508 26.0024 158.224 26.5932 158.224 27.3193V75.0164C158.224 76.1051 159.293 76.9876 160.612 76.9876ZM66.5642 22.0605H42.0387V19.6409C42.0387 18.9148 42.7544 18.324 43.634 18.324H66.5639V22.0605H66.5642ZM120.962 22.0605H96.4361V18.324H119.366C120.246 18.324 120.961 18.9148 120.961 19.6409V22.0605H120.962Z" fill="#E4572E"/>
<path d="M160.612 76.9876C161.931 76.9876 163 76.1051 163 75.0166V27.3196C163 24.4196 160.141 22.0607 156.629 22.0607H125.737V19.6412C125.737 16.7412 122.878 14.3821 119.366 14.3821H96.4361V4.93138C96.4361 2.21222 93.7562 0 90.4621 0H87.0716C85.7526 0 84.6839 0.882471 84.6839 1.97098C84.6839 3.05948 85.7526 3.94195 87.0716 3.94195H90.4621C91.1227 3.94195 91.6604 4.38555 91.6604 4.93112C91.6604 8.65889 91.6604 25.9512 91.6604 28.7639H71.3396C71.3396 26.0292 71.3396 7.66525 71.3396 4.93112C71.3396 4.38581 71.877 3.94195 72.5379 3.94195H75.9284C77.2474 3.94195 78.3161 3.05948 78.3161 1.97098C78.3161 0.882471 77.2474 0 75.9284 0H72.5379C69.2435 0 66.5639 2.21222 66.5639 4.93138V14.3818H43.634C40.1209 14.3818 37.263 16.7412 37.263 19.6409V22.0605H6.37101C2.85823 22.0607 0 24.4196 0 27.3196V125.277C0 128.177 2.85823 130.536 6.37101 130.536H156.629C160.142 130.536 163 128.177 163 125.277V84.2153C163 83.1268 161.931 82.2443 160.612 82.2443C159.293 82.2443 158.225 83.1268 158.225 84.2153V125.277C158.225 126.003 157.509 126.594 156.629 126.594H6.37101C5.49138 126.594 4.77571 126.003 4.77571 125.277V27.3193C4.77571 26.5932 5.49138 26.0024 6.37101 26.0024H66.5639V28.7636H66.2668C64.9479 28.7636 63.8791 29.6461 63.8791 30.7346C63.8791 31.8231 64.9479 32.7056 66.2668 32.7056C69.4711 32.7056 93.6027 32.7056 96.7325 32.7056C98.0515 32.7056 99.1202 31.8231 99.1202 30.7346C99.1202 29.6461 98.0515 28.7636 96.7325 28.7636H96.4358V26.0024H156.628C157.508 26.0024 158.224 26.5932 158.224 27.3193V75.0164C158.224 76.1051 159.293 76.9876 160.612 76.9876ZM66.5642 22.0605H42.0387V19.6409C42.0387 18.9148 42.7544 18.324 43.634 18.324H66.5639V22.0605H66.5642ZM120.962 22.0605H96.4361V18.324H119.366C120.246 18.324 120.961 18.9148 120.961 19.6409V22.0605H120.962Z" fill="url(#paint7_linear_428_18261)"/>
<defs>
<linearGradient id="paint0_linear_428_18261" x1="54.0564" y1="39.3828" x2="54.0564" y2="118.244" gradientUnits="userSpaceOnUse">
<stop stop-color="#FA7C47"/>
<stop offset="1" stop-color="#E4572E"/>
</linearGradient>
<linearGradient id="paint1_linear_428_18261" x1="124.925" y1="62.4448" x2="124.925" y2="66.3868" gradientUnits="userSpaceOnUse">
<stop stop-color="#FA7C47"/>
<stop offset="1" stop-color="#E4572E"/>
</linearGradient>
<linearGradient id="paint2_linear_428_18261" x1="124.925" y1="72.8228" x2="124.925" y2="76.7647" gradientUnits="userSpaceOnUse">
<stop stop-color="#FA7C47"/>
<stop offset="1" stop-color="#E4572E"/>
</linearGradient>
<linearGradient id="paint3_linear_428_18261" x1="124.925" y1="83.2012" x2="124.925" y2="87.1431" gradientUnits="userSpaceOnUse">
<stop stop-color="#FA7C47"/>
<stop offset="1" stop-color="#E4572E"/>
</linearGradient>
<linearGradient id="paint4_linear_428_18261" x1="124.925" y1="93.5796" x2="124.925" y2="97.5215" gradientUnits="userSpaceOnUse">
<stop stop-color="#FA7C47"/>
<stop offset="1" stop-color="#E4572E"/>
</linearGradient>
<linearGradient id="paint5_linear_428_18261" x1="124.925" y1="103.958" x2="124.925" y2="107.9" gradientUnits="userSpaceOnUse">
<stop stop-color="#FA7C47"/>
<stop offset="1" stop-color="#E4572E"/>
</linearGradient>
<linearGradient id="paint6_linear_428_18261" x1="124.925" y1="43.6562" x2="124.925" y2="55.2769" gradientUnits="userSpaceOnUse">
<stop stop-color="#FA7C47"/>
<stop offset="1" stop-color="#E4572E"/>
</linearGradient>
<linearGradient id="paint7_linear_428_18261" x1="81.5" y1="0" x2="81.5" y2="130.536" gradientUnits="userSpaceOnUse">
<stop stop-color="#FA7C47"/>
<stop offset="1" stop-color="#E4572E"/>
</linearGradient>
</defs>
</svg>
