<svg width="23" height="23" viewBox="0 0 23 23" fill="none" xmlns="http://www.w3.org/2000/svg">
<rect y="0.450684" width="22.5494" height="22.5494" fill="#C4C4C4"/>
<path d="M11.6921 6.01855C13.0211 6.01855 14.2957 6.5465 15.2354 7.48624C16.1752 8.42598 16.7031 9.70055 16.7031 11.0295C16.7031 13.1041 15.1219 15.2777 12.0262 17.5995C11.9298 17.6718 11.8126 17.7109 11.6921 17.7109C11.5717 17.7109 11.4545 17.6718 11.3581 17.5995C8.2624 15.2777 6.68115 13.1041 6.68115 11.0295C6.68115 9.70055 7.20909 8.42598 8.14884 7.48624C9.08858 6.5465 10.3631 6.01855 11.6921 6.01855ZM11.6921 9.35921C11.2491 9.35921 10.8243 9.53519 10.511 9.84844C10.1978 10.1617 10.0218 10.5865 10.0218 11.0295C10.0218 11.4725 10.1978 11.8974 10.511 12.2106C10.8243 12.5239 11.2491 12.6999 11.6921 12.6999C12.1351 12.6999 12.56 12.5239 12.8732 12.2106C13.1865 11.8974 13.3625 11.4725 13.3625 11.0295C13.3625 10.5865 13.1865 10.1617 12.8732 9.84844C12.56 9.53519 12.1351 9.35921 11.6921 9.35921Z" fill="#1D140C"/>
</svg>
