<svg width="18" height="18" viewBox="0 0 18 18" fill="none" xmlns="http://www.w3.org/2000/svg">
<path d="M17.4673 3.07403C18.1701 2.37123 18.1701 1.22989 17.4673 0.527097C16.7645 -0.175699 15.6231 -0.175699 14.9203 0.527097L9 6.45307L3.07403 0.532719C2.37123 -0.170077 1.22989 -0.170077 0.527097 0.532719C-0.175699 1.23551 -0.175699 2.37685 0.527097 3.07965L6.45307 9L0.532719 14.926C-0.170077 15.6288 -0.170077 16.7701 0.532719 17.4729C1.23551 18.1757 2.37685 18.1757 3.07965 17.4729L9 11.5469L14.926 17.4673C15.6288 18.1701 16.7701 18.1701 17.4729 17.4673C18.1757 16.7645 18.1757 15.6231 17.4729 14.9203L11.5469 9L17.4673 3.07403Z" fill="black"/>
</svg>
