<svg width="12" height="12" viewBox="0 0 12 12" fill="none" xmlns="http://www.w3.org/2000/svg">
<path d="M12 7.20305C11.9996 7.02848 11.9657 6.85573 11.9002 6.69493C11.8347 6.53413 11.7388 6.38849 11.6184 6.26656C11.7913 6.0391 11.8859 5.75821 11.8871 5.46858C11.8874 5.29886 11.8551 5.1308 11.792 4.97418C11.729 4.81757 11.6365 4.67554 11.52 4.55639C11.2723 4.29755 10.9358 4.15099 10.5842 4.14878H7.86334L8.03861 2.97117C8.06054 2.82148 8.07156 2.67029 8.07159 2.51889C8.07159 1.35428 7.31328 0 6.33554 0C6.05207 0.000201212 5.77761 0.10331 5.55978 0.291435L5.45893 0.378498L5.60094 2.31395C5.61326 2.47829 5.57509 2.64245 5.49191 2.78291L3.99654 5.65712L3.94067 5.70687C3.92225 5.578 3.85985 5.46027 3.7648 5.37509C3.66976 5.28991 3.54839 5.24294 3.42277 5.24272H0.523624C0.384794 5.24287 0.251692 5.30013 0.153525 5.40193C0.0553579 5.50373 0.000144313 5.64176 0 5.78573V11.457C0.000144313 11.601 0.0553579 11.739 0.153525 11.8408C0.251692 11.9426 0.384794 11.9999 0.523624 12H3.42304C3.56173 11.9996 3.69462 11.9423 3.79261 11.8405C3.8906 11.7387 3.9457 11.6008 3.94584 11.457V11.1712L3.94993 11.1746C4.48419 11.6458 5.17435 11.6512 5.20379 11.6512L9.56096 11.6495H9.57486C9.75985 11.6391 9.94036 11.5866 10.1036 11.4957C10.2668 11.4048 10.4087 11.2778 10.5193 11.1236C10.6298 10.9694 10.7063 10.7919 10.7432 10.6037C10.7802 10.4154 10.7767 10.221 10.733 10.0343C11.0393 9.89756 11.281 9.64083 11.4055 9.32005C11.53 8.99928 11.5271 8.64048 11.3976 8.32187C11.5824 8.20491 11.7349 8.04047 11.8404 7.84447C11.946 7.64847 12.0009 7.42754 12 7.20305ZM3.43721 11.457C3.43696 11.4608 3.43538 11.4644 3.43278 11.4671C3.43017 11.4698 3.42671 11.4714 3.42304 11.4717H0.523624C0.519977 11.4714 0.51655 11.4698 0.51399 11.4671C0.51143 11.4644 0.509912 11.4608 0.509722 11.457V5.78573C0.509912 5.78195 0.51143 5.77836 0.51399 5.77566C0.51655 5.77295 0.519977 5.77131 0.523624 5.77104H3.42304C3.42671 5.7713 3.43017 5.77293 3.43278 5.77563C3.43538 5.77834 3.43696 5.78192 3.43721 5.78573V11.457ZM10.9617 7.94987L10.6161 8.06153L10.8342 8.36116C10.9123 8.46819 10.9625 8.59434 10.9798 8.72738C10.9972 8.86042 10.9811 8.99586 10.9331 9.12056C10.8852 9.24526 10.807 9.35501 10.7061 9.43918C10.6053 9.52334 10.4852 9.57907 10.3574 9.60096L10.0118 9.66089L10.1734 9.98342C10.2311 10.0986 10.2601 10.2269 10.2578 10.3567C10.2555 10.4865 10.222 10.6136 10.1604 10.7266C10.0987 10.8396 10.0109 10.9348 9.90479 11.0036C9.79869 11.0725 9.6777 11.1128 9.55278 11.1209L5.20543 11.1229C5.19262 11.1229 4.66681 11.1121 4.28139 10.7721C4.20887 10.7059 4.12765 10.6506 4.04016 10.6081L3.94584 10.5643V6.39715L4.39914 5.99519L5.92912 3.0554C6.06588 2.82162 6.12851 2.54926 6.10821 2.27664L5.98718 0.626684C6.09309 0.564146 6.21285 0.531222 6.33472 0.531141C6.99518 0.531141 7.56132 1.62565 7.56132 2.52144C7.56129 2.64578 7.55218 2.76995 7.53407 2.89287L7.2683 4.67936H10.5853C10.8011 4.68127 11.0075 4.7716 11.1594 4.93065C11.2283 5.00068 11.283 5.08424 11.3205 5.17645C11.3579 5.26866 11.3773 5.36768 11.3774 5.46773C11.3768 5.58761 11.3494 5.7057 11.2973 5.81276C11.2453 5.91981 11.1701 6.01293 11.0776 6.0848L10.7693 6.32733L11.1059 6.5252C11.2341 6.60015 11.3382 6.71233 11.4057 6.84792C11.4731 6.98351 11.5008 7.13659 11.4853 7.2883C11.4699 7.44 11.412 7.58371 11.3187 7.70172C11.2255 7.81972 11.101 7.90687 10.9606 7.95242L10.9617 7.94987Z" fill="#EC6537"/>
</svg>
