<svg width="9" height="15" viewBox="0 0 9 15" fill="none" xmlns="http://www.w3.org/2000/svg">
<path d="M8.00385 6.65869L1.77189 0.426846C1.62775 0.282594 1.43534 0.203125 1.23018 0.203125C1.02502 0.203125 0.832605 0.282594 0.688468 0.426846L0.229527 0.885672C-0.0691085 1.18465 -0.0691085 1.67057 0.229527 1.96909L5.46265 7.20222L0.223721 12.4412C0.0795831 12.5854 0 12.7777 0 12.9828C0 13.188 0.0795831 13.3803 0.223721 13.5247L0.682661 13.9834C0.826912 14.1277 1.01921 14.2071 1.22437 14.2071C1.42954 14.2071 1.62195 14.1277 1.76608 13.9834L8.00385 7.74587C8.14833 7.60116 8.22768 7.40795 8.22723 7.20256C8.22768 6.99638 8.14833 6.80328 8.00385 6.65869Z" fill="white"/>
</svg>
