<svg width="15" height="9" viewBox="0 0 15 9" fill="none" xmlns="http://www.w3.org/2000/svg">
<path d="M8.54444 8.20697L14.7763 1.97501C14.9205 1.83088 15 1.63847 15 1.4333C15 1.22814 14.9205 1.03573 14.7763 0.891593L14.3175 0.432652C14.0185 0.134016 13.5326 0.134016 13.234 0.432652L8.0009 5.66578L2.76197 0.426845C2.61772 0.282708 2.42542 0.203124 2.22037 0.203124C2.0151 0.203124 1.8228 0.282707 1.67843 0.426845L1.21972 0.885785C1.07547 1.03004 0.996002 1.22233 0.996002 1.4275C0.996002 1.63266 1.07547 1.82507 1.21972 1.96921L7.45726 8.20697C7.60196 8.35145 7.79517 8.43081 8.00056 8.43035C8.20675 8.43081 8.39984 8.35145 8.54444 8.20697Z" fill="white"/>
</svg>
