<svg width="25" height="22" viewBox="0 0 25 22" fill="none" xmlns="http://www.w3.org/2000/svg">
<path opacity="0.4" d="M18.8463 4.07561L18.7297 3.81923C18.4147 3.15497 18.053 2.38582 17.8313 1.94298C17.2947 0.894144 16.373 0.311458 15.2413 0.299805H9.74634C8.61468 0.311458 7.70467 0.894144 7.16801 1.94298C6.93467 2.40913 6.53801 3.2482 6.21134 3.93576L6.14134 4.07561C6.10634 4.16884 6.01301 4.21545 5.91967 4.21545C3.10801 4.21545 0.833008 6.49958 0.833008 9.29648V16.2188C0.833008 19.0157 3.10801 21.2998 5.91967 21.2998H19.0797C21.8797 21.2998 24.1663 19.0157 24.1663 16.2188V9.29648C24.1663 6.49958 21.8797 4.21545 19.0797 4.21545C18.9747 4.21545 18.893 4.15719 18.8463 4.07561Z" fill="#F8F8F8"/>
<path fill-rule="evenodd" clip-rule="evenodd" d="M17.9947 8.55023C17.9947 9.13292 18.4614 9.59907 19.0447 9.59907C19.628 9.59907 20.1064 9.13292 20.1064 8.55023C20.1064 7.96755 19.628 7.48975 19.0447 7.48975C18.4614 7.48975 17.9947 7.96755 17.9947 8.55023ZM15.7314 15.5885C14.9031 16.4159 13.7598 16.9287 12.4998 16.9287C11.2748 16.9287 10.1314 16.4509 9.25643 15.5885C8.39309 14.7145 7.91476 13.5724 7.91476 12.3488C7.90309 11.1368 8.38143 9.99474 9.24476 9.12071C10.1198 8.24668 11.2748 7.76888 12.4998 7.76888C13.7248 7.76888 14.8798 8.24668 15.7431 9.10906C16.6064 9.98309 17.0848 11.1368 17.0848 12.3488C17.0731 13.619 16.5598 14.7611 15.7314 15.5885ZM12.4999 9.51628C11.7416 9.51628 11.0299 9.80762 10.4816 10.3553C9.94489 10.8914 9.65322 11.6023 9.66489 12.3365V12.3481C9.66489 13.1056 9.95655 13.8165 10.4932 14.3526C11.0299 14.8886 11.7416 15.18 12.4999 15.18C14.0632 15.18 15.3232 13.9097 15.3349 12.3481C15.3349 11.5906 15.0432 10.8798 14.5066 10.3437C13.9699 9.80762 13.2582 9.51628 12.4999 9.51628Z" fill="#F8F8F8"/>
</svg>
