<svg width="54" height="39" viewBox="0 0 54 39" fill="none" xmlns="http://www.w3.org/2000/svg">
<path d="M12.8526 3.96824V5.84873H6.79028V3.96824C6.79028 3.63569 6.92239 3.31676 7.15754 3.08161C7.39268 2.84646 7.71162 2.71436 8.04416 2.71436H11.5987C11.9312 2.71436 12.2502 2.84646 12.4853 3.08161C12.7205 3.31676 12.8526 3.63569 12.8526 3.96824Z" fill="#BBBBCD"/>
<path d="M41.6865 0.766662L44.0924 6.47586H25.8088L28.2147 0.766662C28.3105 0.539426 28.4712 0.345493 28.6767 0.209128C28.8822 0.0727623 29.1233 1.90996e-05 29.3699 0H40.5312C40.7779 1.90996e-05 41.019 0.0727623 41.2245 0.209128C41.43 0.345493 41.5907 0.539426 41.6865 0.766662Z" fill="#BBBBCD"/>
<path d="M53.9162 7.62934V14.3123H8.62504e-08V7.62934C-8.63002e-05 7.29999 0.0647201 6.97386 0.190716 6.66956C0.316712 6.36527 0.50143 6.08878 0.734314 5.8559C0.967198 5.62301 1.24369 5.43829 1.54798 5.3123C1.85228 5.1863 2.17841 5.1215 2.50776 5.12158H51.4084C51.7378 5.1215 52.0639 5.1863 52.3682 5.3123C52.6725 5.43829 52.949 5.62301 53.1819 5.8559C53.4148 6.08878 53.5995 6.36527 53.7255 6.66956C53.8515 6.97386 53.9163 7.29999 53.9162 7.62934Z" fill="#DBD8DD"/>
<path d="M53.9162 14.312V36.0481C53.9163 36.3775 53.8515 36.7036 53.7255 37.0079C53.5995 37.3122 53.4148 37.5887 53.1819 37.8216C52.949 38.0545 52.6725 38.2392 52.3682 38.3652C52.0639 38.4912 51.7378 38.556 51.4084 38.5559H2.50776C2.17841 38.556 1.85228 38.4912 1.54798 38.3652C1.24369 38.2392 0.967198 38.0545 0.734314 37.8216C0.50143 37.5887 0.316712 37.3122 0.190716 37.0079C0.0647201 36.7036 -8.63002e-05 36.3775 8.62504e-08 36.0481V14.312H53.9162Z" fill="#F77743"/>
<path d="M0 13.792H53.9162V14.8368H0V13.792Z" fill="#EEEFEE"/>
<path d="M39.8625 22.8892C39.8637 25.4417 39.1078 27.9372 37.6906 30.0601C36.2733 32.183 34.2584 33.8379 31.9005 34.8155C29.5426 35.7931 26.9478 36.0495 24.4442 35.5523C21.9406 35.055 19.6407 33.8264 17.8354 32.022C16.0301 30.2175 14.8005 27.9182 14.3021 25.4148C13.8037 22.9114 14.0589 20.3165 15.0354 17.9582C16.012 15.5999 17.6659 13.5841 19.7882 12.1659C21.9104 10.7477 24.4056 9.99072 26.9581 9.99072C30.3796 9.99037 33.6612 11.349 36.0812 13.7679C38.5011 16.1867 39.8613 19.4676 39.8625 22.8892Z" fill="#EEEFEE"/>
<path d="M26.9581 33.3406C24.8919 33.34 22.8724 32.7268 21.1547 31.5785C19.4371 30.4302 18.0985 28.7984 17.3081 26.8895C16.5177 24.9805 16.3111 22.88 16.7143 20.8536C17.1176 18.8273 18.1126 16.9659 19.5736 15.505C21.0345 14.044 22.8959 13.049 24.9222 12.6457C26.9486 12.2425 29.0491 12.4491 30.9581 13.2395C32.867 14.0299 34.4988 15.3685 35.6471 17.0861C36.7954 18.8038 37.4086 20.8233 37.4092 22.8894C37.4063 25.6604 36.3042 28.317 34.3449 30.2763C32.3856 32.2356 29.729 33.3377 26.9581 33.3406Z" fill="#F77743"/>
<path d="M26.9582 28.3252C25.884 28.3246 24.8342 28.0055 23.9413 27.4083C23.0485 26.8112 22.3527 25.9627 21.9419 24.9702C21.5312 23.9777 21.4239 22.8857 21.6336 21.8322C21.8433 20.7788 22.3606 19.8111 23.1202 19.0516C23.8797 18.292 24.8474 17.7747 25.9008 17.565C26.9543 17.3553 28.0463 17.4626 29.0388 17.8733C30.0313 18.2841 30.8798 18.9799 31.4769 19.8727C32.0741 20.7656 32.3932 21.8154 32.3938 22.8895C32.3923 24.3307 31.8191 25.7124 30.8 26.7314C29.781 27.7505 28.3993 28.3237 26.9582 28.3252Z" fill="white"/>
<path d="M50.1545 7.91455H41.6903C41.3443 7.91455 41.0637 8.1951 41.0637 8.54116V10.9713C41.0637 11.3174 41.3443 11.5979 41.6903 11.5979H50.1545C50.5006 11.5979 50.7811 11.3174 50.7811 10.9713V8.54116C50.7811 8.1951 50.5006 7.91455 50.1545 7.91455Z" fill="#BBBBCD"/>
<path d="M7.59817 19.9044C7.59817 20.2145 7.50623 20.5175 7.33399 20.7753C7.16175 21.0331 6.91694 21.234 6.63051 21.3526C6.34409 21.4713 6.02891 21.5023 5.72484 21.4418C5.42078 21.3813 5.14147 21.2321 4.92225 21.0128C4.70303 20.7936 4.55374 20.5143 4.49325 20.2102C4.43277 19.9062 4.46381 19.591 4.58246 19.3046C4.7011 19.0181 4.90201 18.7733 5.15979 18.6011C5.41756 18.4289 5.72063 18.3369 6.03065 18.3369C6.23665 18.3364 6.44071 18.3766 6.63113 18.4552C6.82154 18.5338 6.99455 18.6492 7.14021 18.7949C7.28587 18.9405 7.40132 19.1135 7.47991 19.304C7.5585 19.4944 7.59869 19.6984 7.59817 19.9044Z" fill="#BBBBCD"/>
</svg>
