<svg width="30" height="30" viewBox="0 0 30 30" fill="none" xmlns="http://www.w3.org/2000/svg">
<path d="M19.6875 18.75C19.4389 18.75 19.2004 18.8488 19.0246 19.0246C18.8488 19.2004 18.75 19.4389 18.75 19.6875C18.75 19.9361 18.8488 20.1746 19.0246 20.3504C19.2004 20.5262 19.4389 20.625 19.6875 20.625H23.4375C23.6861 20.625 23.9246 20.5262 24.1004 20.3504C24.2762 20.1746 24.375 19.9361 24.375 19.6875C24.375 19.4389 24.2762 19.2004 24.1004 19.0246C23.9246 18.8488 23.6861 18.75 23.4375 18.75H19.6875Z" fill="#00755E"/>
<path d="M1.875 9.375C1.875 8.38044 2.27009 7.42661 2.97335 6.72335C3.67661 6.02009 4.63044 5.625 5.625 5.625H24.375C25.3696 5.625 26.3234 6.02009 27.0266 6.72335C27.7299 7.42661 28.125 8.38044 28.125 9.375V20.625C28.125 21.6196 27.7299 22.5734 27.0266 23.2766C26.3234 23.9799 25.3696 24.375 24.375 24.375H5.625C4.63044 24.375 3.67661 23.9799 2.97335 23.2766C2.27009 22.5734 1.875 21.6196 1.875 20.625V9.375ZM26.25 9.375C26.25 8.87772 26.0525 8.40081 25.7008 8.04918C25.3492 7.69754 24.8723 7.5 24.375 7.5H5.625C5.12772 7.5 4.65081 7.69754 4.29917 8.04918C3.94754 8.40081 3.75 8.87772 3.75 9.375V11.25H26.25V9.375ZM3.75 20.625C3.75 21.1223 3.94754 21.5992 4.29917 21.9508C4.65081 22.3025 5.12772 22.5 5.625 22.5H24.375C24.8723 22.5 25.3492 22.3025 25.7008 21.9508C26.0525 21.5992 26.25 21.1223 26.25 20.625V13.125H3.75V20.625Z" fill="#00755E"/>
</svg>
