<svg width="25" height="25" viewBox="0 0 25 25" fill="none" xmlns="http://www.w3.org/2000/svg">
<g clip-path="url(#clip0_433_734)">
<path d="M20.8007 10.5576H14.2077V9.59071H17.8771C17.9786 9.59071 18.0777 9.55944 18.1608 9.50114L21.0843 7.45051C21.217 7.35747 21.2955 7.20534 21.2947 7.04333C21.2939 6.88131 21.2136 6.73002 21.08 6.63847L18.1564 4.63443C18.0742 4.57806 17.9768 4.54787 17.8771 4.54787H14.2077V3.57391H17.4573C17.7302 3.57391 17.9514 3.35271 17.9514 3.07982V0.494092C17.9514 0.221205 17.7302 0 17.4573 0H7.5425C7.26961 0 7.04841 0.221205 7.04841 0.494092V3.07982C7.04841 3.35271 7.26961 3.57391 7.5425 3.57391H10.7921V4.54787H4.19918C3.92629 4.54787 3.70508 4.76907 3.70508 5.04196V9.09662C3.70508 9.36951 3.92629 9.59071 4.19918 9.59071H10.7921V10.5576H7.12272C7.02118 10.5576 6.92212 10.5889 6.83901 10.6472L3.91547 12.6978C3.78281 12.7908 3.70424 12.943 3.70508 13.105C3.70592 13.267 3.78621 13.4183 3.91982 13.5098L6.84336 15.5139C6.92562 15.5703 7.02301 15.6004 7.12272 15.6004H10.7921V24.5059C10.7921 24.7788 11.0133 25 11.2862 25H13.7137C13.9865 25 14.2077 24.7788 14.2077 24.5059V15.6004H20.8007C21.0735 15.6004 21.2947 15.3792 21.2947 15.1064V11.0517C21.2947 10.7788 21.0735 10.5576 20.8007 10.5576ZM8.03659 0.988183H16.9632V2.58573H13.7136H11.2861H8.03654V0.988183H8.03659ZM11.7803 3.57391H13.2196V4.54787H11.7803V3.57391ZM4.69327 7.5683H8.69541C8.9683 7.5683 9.1895 7.34709 9.1895 7.07421C9.1895 6.80132 8.9683 6.58011 8.69541 6.58011H4.69327V5.53605H11.2862H13.7137H17.724L19.9336 7.05064L17.7212 8.60253H13.7137H11.2862H4.69327V7.5683ZM11.7803 9.59071H13.2196V10.5576H11.7803V9.59071ZM13.2195 24.0118H11.7802V15.6004H13.2195V24.0118ZM13.7136 14.6123H11.2861H7.27574L5.06616 13.0977L7.2786 11.5458H11.2861H13.7136H20.3066V12.5818H16.3044C16.0315 12.5818 15.8103 12.8031 15.8103 13.0759C15.8103 13.3488 16.0315 13.57 16.3044 13.57H20.3066V14.6123H13.7136Z" fill="white"/>
<path d="M10.9038 7.54238C11.1766 7.54238 11.3979 7.32117 11.3979 7.04829C11.3979 6.77541 11.1766 6.5542 10.9038 6.5542C10.6309 6.5542 10.4097 6.77541 10.4097 7.04829C10.4097 7.32117 10.6309 7.54238 10.9038 7.54238Z" fill="white"/>
<path d="M14.0786 13.5204C14.3514 13.5204 14.5727 13.2992 14.5727 13.0263C14.5727 12.7534 14.3514 12.5322 14.0786 12.5322C13.8057 12.5322 13.5845 12.7534 13.5845 13.0263C13.5845 13.2992 13.8057 13.5204 14.0786 13.5204Z" fill="white"/>
</g>
<defs>
<clipPath id="clip0_433_734">
<rect width="25" height="25" fill="white"/>
</clipPath>
</defs>
</svg>
