<svg width="28" height="27" viewBox="0 0 28 27" fill="none" xmlns="http://www.w3.org/2000/svg">
<path d="M14 16.909C15.9581 16.909 17.5455 15.3827 17.5455 13.4999C17.5455 11.6171 15.9581 10.0908 14 10.0908C12.0419 10.0908 10.4546 11.6171 10.4546 13.4999C10.4546 15.3827 12.0419 16.909 14 16.909Z" stroke="#00755E" stroke-width="2" stroke-linecap="round" stroke-linejoin="round"/>
<path d="M22.7455 16.9091C22.5881 17.2518 22.5412 17.632 22.6107 18.0007C22.6802 18.3693 22.863 18.7095 23.1355 18.9773L23.2064 19.0455C23.4261 19.2565 23.6005 19.5072 23.7194 19.7831C23.8384 20.059 23.8996 20.3547 23.8996 20.6534C23.8996 20.9521 23.8384 21.2478 23.7194 21.5237C23.6005 21.7996 23.4261 22.0503 23.2064 22.2614C22.9868 22.4727 22.7262 22.6403 22.4392 22.7547C22.1523 22.8691 21.8447 22.9279 21.5341 22.9279C21.2235 22.9279 20.9159 22.8691 20.629 22.7547C20.342 22.6403 20.0813 22.4727 19.8618 22.2614L19.7909 22.1932C19.5124 21.9312 19.1586 21.7555 18.7752 21.6886C18.3919 21.6218 17.9965 21.6669 17.64 21.8182C17.2905 21.9622 16.9923 22.2014 16.7824 22.5063C16.5724 22.8112 16.4597 23.1684 16.4582 23.5341V23.7273C16.4582 24.33 16.2092 24.9081 15.7659 25.3343C15.3226 25.7606 14.7214 26 14.0945 26C13.4677 26 12.8665 25.7606 12.4232 25.3343C11.9799 24.9081 11.7309 24.33 11.7309 23.7273V23.625C11.7218 23.2489 11.5951 22.8841 11.3675 22.5781C11.1399 22.2721 10.8218 22.039 10.4545 21.9091C10.0981 21.7578 9.70268 21.7127 9.3193 21.7795C8.93593 21.8464 8.58217 22.0221 8.30364 22.2841L8.23273 22.3523C8.01321 22.5636 7.75253 22.7312 7.46559 22.8456C7.17864 22.96 6.87107 23.0188 6.56045 23.0188C6.24984 23.0188 5.94226 22.96 5.65532 22.8456C5.36838 22.7312 5.1077 22.5636 4.88818 22.3523C4.66842 22.1412 4.49408 21.8905 4.37513 21.6146C4.25618 21.3387 4.19496 21.043 4.19496 20.7443C4.19496 20.4456 4.25618 20.1499 4.37513 19.874C4.49408 19.5981 4.66842 19.3474 4.88818 19.1364L4.95909 19.0682C5.23154 18.8004 5.41431 18.4602 5.48382 18.0916C5.55334 17.7229 5.50641 17.3427 5.34909 17C5.19928 16.6639 4.95053 16.3773 4.63346 16.1753C4.31639 15.9734 3.94484 15.8651 3.56455 15.8636H3.36364C2.73676 15.8636 2.13556 15.6242 1.69229 15.198C1.24903 14.7718 1 14.1937 1 13.5909C1 12.9881 1.24903 12.4101 1.69229 11.9838C2.13556 11.5576 2.73676 11.3182 3.36364 11.3182H3.47C3.86118 11.3094 4.24055 11.1876 4.55881 10.9688C4.87706 10.7499 5.11948 10.444 5.25455 10.0909C5.41186 9.74816 5.45879 9.36796 5.38928 8.99933C5.31976 8.6307 5.137 8.29054 4.86455 8.02273L4.79364 7.95455C4.57387 7.74347 4.39953 7.49281 4.28059 7.21691C4.16164 6.941 4.10041 6.64526 4.10041 6.34659C4.10041 6.04792 4.16164 5.75218 4.28059 5.47627C4.39953 5.20037 4.57387 4.94971 4.79364 4.73864C5.01315 4.52733 5.27384 4.35969 5.56078 4.24532C5.84772 4.13095 6.15529 4.07208 6.46591 4.07208C6.77653 4.07208 7.0841 4.13095 7.37104 4.24532C7.65798 4.35969 7.91866 4.52733 8.13818 4.73864L8.20909 4.80682C8.48762 5.06879 8.84138 5.24453 9.22476 5.31137C9.60813 5.37821 10.0035 5.33309 10.36 5.18182H10.4545C10.8041 5.03777 11.1022 4.79859 11.3122 4.49371C11.5222 4.18884 11.6348 3.83158 11.6364 3.46591V3.27273C11.6364 2.66996 11.8854 2.09189 12.3287 1.66567C12.7719 1.23945 13.3731 1 14 1C14.6269 1 15.2281 1.23945 15.6713 1.66567C16.1146 2.09189 16.3636 2.66996 16.3636 3.27273V3.375C16.3652 3.74067 16.4778 4.09793 16.6878 4.4028C16.8978 4.70768 17.1959 4.94686 17.5455 5.09091C17.9019 5.24218 18.2973 5.2873 18.6807 5.22046C19.0641 5.15362 19.4178 4.97788 19.6964 4.71591L19.7673 4.64773C19.9868 4.43642 20.2475 4.26878 20.5344 4.15441C20.8214 4.04004 21.1289 3.98117 21.4395 3.98117C21.7502 3.98117 22.0577 4.04004 22.3447 4.15441C22.6316 4.26878 22.8923 4.43642 23.1118 4.64773C23.3316 4.8588 23.5059 5.10946 23.6249 5.38536C23.7438 5.66127 23.805 5.95701 23.805 6.25568C23.805 6.55435 23.7438 6.8501 23.6249 7.126C23.5059 7.40191 23.3316 7.65256 23.1118 7.86364L23.0409 7.93182C22.7685 8.19964 22.5857 8.53979 22.5162 8.90842C22.4467 9.27705 22.4936 9.65725 22.6509 10V10.0909C22.8007 10.427 23.0495 10.7137 23.3665 10.9156C23.6836 11.1175 24.0552 11.2258 24.4355 11.2273H24.6364C25.2632 11.2273 25.8644 11.4667 26.3077 11.8929C26.751 12.3192 27 12.8972 27 13.5C27 14.1028 26.751 14.6808 26.3077 15.1071C25.8644 15.5333 25.2632 15.7727 24.6364 15.7727H24.53C24.1497 15.7742 23.7782 15.8825 23.4611 16.0844C23.144 16.2863 22.8953 16.573 22.7455 16.9091V16.9091Z" stroke="#00755E" stroke-width="2" stroke-linecap="round" stroke-linejoin="round"/>
</svg>
