<svg width="27" height="27" viewBox="0 0 27 27" fill="none" xmlns="http://www.w3.org/2000/svg">
<path d="M27 14.339C27 13.3946 26.5836 12.5461 25.9254 11.9659C26.5836 11.3857 27 10.5372 27 9.59286C27 8.42706 26.3658 7.40723 25.4247 6.85838C25.4255 6.85706 13.5 0.00585938 13.5 0.00585938L1.57454 6.85706C0.634236 7.40723 0 8.42706 0 9.59286C0 10.5372 0.416391 11.3857 1.07457 11.9659C0.416391 12.5461 0 13.3946 0 14.339C0 15.2833 0.416391 16.1318 1.07457 16.712C0.416391 17.2922 0 18.1407 0 19.085C0 20.0294 0.416391 20.8779 1.07457 21.4581C0.416391 22.0383 0 22.8868 0 23.8311C0 25.5758 1.4194 26.9952 3.16406 26.9952H23.8359C25.5806 26.9952 27 25.5758 27 23.8311C27 22.8868 26.5836 22.0383 25.9254 21.4581C26.5836 20.8779 27 20.0294 27 19.085C27 18.1407 26.5836 17.2922 25.9254 16.712C26.5836 16.1318 27 15.2833 27 14.339ZM3.16406 25.4132C2.29173 25.4132 1.58203 24.7035 1.58203 23.8311C1.58203 22.9588 2.29173 22.2491 3.16406 22.2491C4.03639 22.2491 4.74609 22.9588 4.74609 23.8311C4.74609 24.7035 4.03639 25.4132 3.16406 25.4132ZM3.16406 20.6671C2.29173 20.6671 1.58203 19.9574 1.58203 19.085C1.58203 18.2127 2.29173 17.503 3.16406 17.503C4.03639 17.503 4.74609 18.2127 4.74609 19.085C4.74609 19.9574 4.03639 20.6671 3.16406 20.6671ZM3.16406 15.921C2.29173 15.921 1.58203 15.2113 1.58203 14.339C1.58203 13.4666 2.29173 12.7569 3.16406 12.7569C4.03639 12.7569 4.74609 13.4666 4.74609 14.339C4.74609 15.2113 4.03639 15.921 3.16406 15.921ZM3.16406 11.1749C2.29173 11.1749 1.58203 10.4652 1.58203 9.59286C1.58203 8.72053 2.29173 8.01083 3.16406 8.01083C4.03639 8.01083 4.74609 8.72053 4.74609 9.59286C4.74609 10.4652 4.03639 11.1749 3.16406 11.1749ZM8.96484 25.4132H5.90245C6.17261 24.9474 6.32812 24.4073 6.32812 23.8311C6.32812 23.255 6.17261 22.7149 5.90245 22.2491H8.96484V25.4132ZM8.96484 20.6671H5.90245C6.17261 20.2013 6.32812 19.6612 6.32812 19.085C6.32812 18.5089 6.17261 17.9688 5.90245 17.503H8.96484V20.6671ZM8.96484 15.921H5.90245C6.17261 15.4552 6.32812 14.9151 6.32812 14.339C6.32812 13.7628 6.17261 13.2227 5.90245 12.7569H8.96484V15.921ZM16.4531 25.4132H10.5469V12.7569H16.4531V25.4132ZM21.0975 25.4132H18.0352V22.2491H21.0975C20.8274 22.7149 20.6719 23.255 20.6719 23.8311C20.6719 24.4073 20.8274 24.9474 21.0975 25.4132ZM21.0975 20.6671H18.0352V17.503H21.0975C20.8274 17.9688 20.6719 18.5089 20.6719 19.085C20.6719 19.6612 20.8274 20.2013 21.0975 20.6671ZM21.0975 15.921H18.0352V12.7569H21.0975C20.8274 13.2227 20.6719 13.7628 20.6719 14.339C20.6719 14.9151 20.8274 15.4552 21.0975 15.921ZM20.6719 9.59286C20.6719 10.169 20.8274 10.7091 21.0975 11.1749H5.90245C6.17261 10.7091 6.32812 10.169 6.32812 9.59286C6.32812 8.42612 5.69283 7.40555 4.75042 6.85695L13.5 1.83031L22.2496 6.857C21.3072 7.40555 20.6719 8.42612 20.6719 9.59286ZM23.8359 25.4132C22.9636 25.4132 22.2539 24.7035 22.2539 23.8311C22.2539 22.9588 22.9636 22.2491 23.8359 22.2491C24.7083 22.2491 25.418 22.9588 25.418 23.8311C25.418 24.7035 24.7083 25.4132 23.8359 25.4132ZM23.8359 20.6671C22.9636 20.6671 22.2539 19.9574 22.2539 19.085C22.2539 18.2127 22.9636 17.503 23.8359 17.503C24.7083 17.503 25.418 18.2127 25.418 19.085C25.418 19.9574 24.7083 20.6671 23.8359 20.6671ZM23.8359 15.921C22.9636 15.921 22.2539 15.2113 22.2539 14.339C22.2539 13.4666 22.9636 12.7569 23.8359 12.7569C24.7083 12.7569 25.418 13.4666 25.418 14.339C25.418 15.2113 24.7083 15.921 23.8359 15.921ZM23.8359 11.1749C22.9636 11.1749 22.2539 10.4652 22.2539 9.59286C22.2539 8.72053 22.9636 8.01083 23.8359 8.01083C24.7083 8.01083 25.418 8.72053 25.418 9.59286C25.418 10.4652 24.7083 11.1749 23.8359 11.1749Z" fill="white"/>
</svg>
