<svg width="21" height="21" viewBox="0 0 21 21" fill="none" xmlns="http://www.w3.org/2000/svg">
<path d="M17.4995 21.0005C18.4277 21.0005 19.318 20.6317 19.9744 19.9753C20.6308 19.319 20.9995 18.4287 20.9995 17.5004V3.50028C20.9995 2.57201 20.6308 1.68176 19.9744 1.02538C19.318 0.368994 18.4277 0.000240326 17.4995 0.000240326H11.6661C11.3566 0.000240326 11.0599 0.123158 10.8411 0.341951C10.6223 0.560747 10.4994 0.857498 10.4994 1.16692C10.4994 1.47634 10.6223 1.77309 10.8411 1.99189C11.0599 2.21068 11.3566 2.3336 11.6661 2.3336H17.4995C17.8089 2.3336 18.1056 2.45652 18.3244 2.67531C18.5432 2.89411 18.6662 3.19086 18.6662 3.50028V17.5004C18.6662 17.8099 18.5432 18.1066 18.3244 18.3254C18.1056 18.5442 17.8089 18.6671 17.4995 18.6671H11.6661C11.3566 18.6671 11.0599 18.79 10.8411 19.0088C10.6223 19.2276 10.4994 19.5244 10.4994 19.8338C10.4994 20.1432 10.6223 20.44 10.8411 20.6588C11.0599 20.8776 11.3566 21.0005 11.6661 21.0005H17.4995Z" fill="#00755E"/>
<path d="M6.65808 15.9919C6.43929 16.2106 6.1426 16.3335 5.83324 16.3335C5.52387 16.3335 5.22718 16.2106 5.00839 15.9919L0.34167 11.3252C0.122951 11.1064 8.2016e-05 10.8097 8.2016e-05 10.5003C8.2016e-05 10.191 0.122951 9.89429 0.34167 9.6755L5.00839 5.00878C5.22843 4.79626 5.52314 4.67866 5.82904 4.68132C6.13494 4.68398 6.42756 4.80668 6.64387 5.02299C6.86018 5.2393 6.98288 5.53192 6.98554 5.83782C6.98819 6.14372 6.8706 6.43843 6.65808 6.65846L3.98288 9.33366H12.8333C13.1427 9.33366 13.4395 9.45658 13.6583 9.67538C13.8771 9.89417 14 10.1909 14 10.5003C14 10.8098 13.8771 11.1065 13.6583 11.3253C13.4395 11.5441 13.1427 11.667 12.8333 11.667H3.98288L6.65808 14.3422C6.8768 14.561 6.99967 14.8577 6.99967 15.1671C6.99967 15.4764 6.8768 15.7731 6.65808 15.9919Z" fill="#00755E"/>
</svg>
