<svg width="28" height="28" viewBox="0 0 28 28" fill="none" xmlns="http://www.w3.org/2000/svg">
<path d="M2.22207 22.2287V22.2285C2.22224 22.0968 2.25045 21.9666 2.30484 21.8466C2.35905 21.727 2.43802 21.6203 2.53653 21.5335C3.26358 20.8736 3.89944 20.1198 4.42729 19.2919C5.01103 18.1484 5.36128 16.9001 5.45763 15.6198V11.7832V11.7831H5.60763C5.60353 9.74976 6.33647 7.78378 7.6707 6.24934C9.00494 4.7149 10.85 3.71598 12.8643 3.43759L2.22207 22.2287ZM2.22207 22.2287V23.2865C2.22207 23.5325 2.31982 23.7685 2.49381 23.9425C2.6678 24.1165 2.90379 24.2143 3.14985 24.2143H24.7721C25.0181 24.2143 25.2541 24.1165 25.4281 23.9425C25.6021 23.7685 25.6998 23.5325 25.6998 23.2865V22.2287V22.2285C25.6997 22.0968 25.6715 21.9666 25.6171 21.8466C25.5628 21.7268 25.4836 21.6199 25.3848 21.533C24.6469 20.8751 24.0006 20.1212 23.4633 19.2914C22.8797 18.148 22.5295 16.8999 22.4332 15.6197V11.7835C22.4384 9.698 21.6819 7.68234 20.3058 6.11526C18.9588 4.58132 17.1088 3.58053 15.091 3.29101V2.4187C15.091 2.10354 14.9658 1.80128 14.7429 1.57843C14.52 1.35557 14.2178 1.23037 13.9026 1.23037C13.5875 1.23037 13.2852 1.35557 13.0623 1.57843C12.8395 1.80128 12.7143 2.10354 12.7143 2.4187V3.30791L2.22207 22.2287ZM21.9152 20.2554C22.3935 21.0133 22.9503 21.7183 23.5762 22.3587H4.35345C4.97937 21.7183 5.53619 21.0133 6.01448 20.2554L6.01482 20.2556L6.01998 20.246C6.78039 18.8203 7.22407 17.2472 7.32069 15.6343L7.32096 15.6344V15.6254V11.7831H7.32104L7.32087 11.7781C7.29071 10.8867 7.44023 9.99829 7.76054 9.16587C8.08085 8.33345 8.5654 7.57399 9.18533 6.93273C9.80526 6.29147 10.5479 5.78151 11.369 5.43323C12.1901 5.08495 13.0729 4.90547 13.9648 4.90547C14.8568 4.90547 15.7396 5.08495 16.5607 5.43323C17.3818 5.78151 18.1244 6.29147 18.7444 6.93273C19.3643 7.57399 19.8488 8.33345 20.1692 9.16587C20.4895 9.99829 20.639 10.8867 20.6088 11.7781L20.6087 11.7781V11.7831V15.6254H20.6085L20.609 15.6343C20.7056 17.2472 21.1493 18.8203 21.9097 20.246L21.9094 20.2462L21.9152 20.2554Z" fill="#00755E" stroke="#00755E" stroke-width="0.3"/>
<path d="M14.0072 27.162L14.0072 27.162L14.0115 27.1619C14.6194 27.1479 15.2028 26.9193 15.6584 26.5167C16.1141 26.114 16.4126 25.5632 16.5013 24.9616L16.5857 24.3887H16.0066H11.9155H11.3363L11.4209 24.9617C11.5121 25.5796 11.8246 26.1434 12.3003 26.5481C12.7761 26.9528 13.3826 27.171 14.0072 27.162Z" fill="#00755E" stroke="#00755E"/>
</svg>
