<svg width="27" height="27" viewBox="0 0 27 27" fill="none" xmlns="http://www.w3.org/2000/svg">
<g clip-path="url(#clip0_433_739)">
<path d="M23.046 3.95405C20.4962 1.40426 17.1059 0 13.5 0C9.89408 0 6.50384 1.40426 3.95405 3.95405C1.40426 6.50384 0 9.89408 0 13.5C0 17.1059 1.40426 20.4962 3.95405 23.046C6.50384 25.5957 9.89408 27 13.5 27C17.1059 27 20.4962 25.5957 23.046 23.046C25.5957 20.4962 27 17.1059 27 13.5C27 9.89408 25.5957 6.50384 23.046 3.95405ZM5.85908 22.6387C6.30485 18.8031 9.6026 15.8417 13.5 15.8417C15.5546 15.8417 17.4866 16.6422 18.9399 18.0953C20.1676 19.3232 20.9419 20.9265 21.1411 22.6385C19.0709 24.3723 16.4053 25.418 13.5 25.418C10.5947 25.418 7.92931 24.3726 5.85908 22.6387ZM13.5 14.2123C11.2392 14.2123 9.3997 12.3728 9.3997 10.112C9.3997 7.85104 11.2392 6.01172 13.5 6.01172C15.7608 6.01172 17.6003 7.85104 17.6003 10.112C17.6003 12.3728 15.7608 14.2123 13.5 14.2123ZM22.5027 21.3012C22.0996 19.6759 21.259 18.1773 20.0584 16.9768C19.0861 16.0045 17.9359 15.275 16.6814 14.8179C18.1894 13.7952 19.1823 12.0673 19.1823 10.112C19.1823 6.97886 16.6332 4.42969 13.5 4.42969C10.3668 4.42969 7.81767 6.97886 7.81767 10.112C7.81767 12.0683 8.81138 13.7968 10.3207 14.8194C9.16651 15.24 8.09843 15.8904 7.1795 16.7465C5.84878 17.9857 4.92469 19.5659 4.49622 21.2999C2.68163 19.2081 1.58203 16.4801 1.58203 13.5C1.58203 6.92839 6.92839 1.58203 13.5 1.58203C20.0716 1.58203 25.418 6.92839 25.418 13.5C25.418 16.4807 24.318 19.2093 22.5027 21.3012Z" fill="url(#paint0_linear_433_739)"/>
</g>
<defs>
<linearGradient id="paint0_linear_433_739" x1="13.5" y1="0" x2="13.5" y2="27" gradientUnits="userSpaceOnUse">
<stop stop-color="#E5592F"/>
<stop offset="1" stop-color="#F3703E"/>
</linearGradient>
<clipPath id="clip0_433_739">
<rect width="27" height="27" fill="white"/>
</clipPath>
</defs>
</svg>
