<svg width="27" height="27" viewBox="0 0 27 27" fill="none" xmlns="http://www.w3.org/2000/svg">
<path d="M24.3719 2.49512H21.7438V4.83726H5.25625V2.49512H2.62812C1.17898 2.49512 0 3.6741 0 5.12324V21.8772C0 23.3263 1.17898 24.5053 2.62812 24.5053H24.3719C25.821 24.5053 27 23.3263 27 21.8772V5.12324C27 3.6741 25.821 2.49512 24.3719 2.49512ZM1.58203 5.12324C1.58203 4.54643 2.05131 4.07715 2.62812 4.07715H3.67422V19.249H2.62812C2.25656 19.249 1.90276 19.3266 1.58203 19.4663V5.12324ZM24.3719 22.9233H2.62812C2.05131 22.9233 1.58203 22.454 1.58203 21.8772C1.58203 21.3004 2.05131 20.8311 2.62812 20.8311H5.25625V6.41929H21.7438V20.8311H24.3719C24.9487 20.8311 25.418 21.3004 25.418 21.8772C25.418 22.454 24.9487 22.9233 24.3719 22.9233ZM25.418 19.4663C25.0972 19.3266 24.7434 19.249 24.3719 19.249H23.3258V4.07715H24.3719C24.9487 4.07715 25.418 4.54643 25.418 5.12324V19.4663Z" fill="white"/>
<path d="M20.7946 9.91352C20.271 9.59253 19.7296 9.26062 18.9855 9.02832L18.5142 10.5385C19.0704 10.7121 19.5063 10.9793 19.9677 11.2623C20.0779 11.3298 20.1881 11.3974 20.3 11.4639L21.1083 10.1039C21.0026 10.0411 20.8985 9.97733 20.7946 9.91352Z" fill="white"/>
<path d="M7.03198 9.91357C6.91554 9.84217 6.7991 9.77082 6.68072 9.70068L5.87451 11.0619C5.98594 11.1279 6.09552 11.1951 6.2051 11.2623C6.72327 11.5799 7.25911 11.9085 7.99201 12.1404L8.46941 10.6322C7.92103 10.4586 7.48919 10.1938 7.03198 9.91357Z" fill="white"/>
<path d="M16.5358 8.75146C15.6302 8.79397 14.859 8.98049 14.1089 9.33835L14.7901 10.7662C15.3512 10.4985 15.9125 10.3645 16.61 10.3318L16.5358 8.75146Z" fill="white"/>
<path d="M12.1948 10.417C11.6344 10.682 11.0723 10.814 10.3726 10.845L10.4426 12.4255C11.3501 12.3853 12.1218 12.2015 12.8711 11.8471L12.1948 10.417Z" fill="white"/>
<path d="M20.232 17.54C19.6707 17.806 19.108 17.9384 18.4072 17.9695L18.4774 19.55C19.3861 19.5097 20.159 19.3253 20.9094 18.9697L20.232 17.54Z" fill="white"/>
<path d="M15.0667 17.0391C14.9503 16.9677 14.8338 16.8963 14.7154 16.8262L13.9092 18.1874C14.0206 18.2534 14.1302 18.3206 14.2398 18.3878C14.7579 18.7055 15.2938 19.034 16.0267 19.266L16.5041 17.7577C15.9557 17.5841 15.5239 17.3193 15.0667 17.0391Z" fill="white"/>
<path d="M12.7494 16.4922L11.6307 15.3735L10.3703 16.634L9.10981 15.3735L7.99121 16.4922L9.25161 17.7526L7.99121 19.0131L9.10981 20.1317L10.3703 18.8713L11.6307 20.1317L12.7494 19.0131L11.4889 17.7526L12.7494 16.4922Z" fill="white"/>
</svg>
