<svg width="31" height="31" viewBox="0 0 31 31" fill="none" xmlns="http://www.w3.org/2000/svg">
<path d="M25.9898 23.1168C25.4187 21.7641 24.59 20.5354 23.5498 19.4991C22.5127 18.4599 21.2842 17.6313 19.9321 17.0591C19.92 17.053 19.9079 17.05 19.8958 17.0439C21.7818 15.6816 23.0079 13.4626 23.0079 10.959C23.0079 6.81152 19.6475 3.45117 15.5001 3.45117C11.3526 3.45117 7.99226 6.81152 7.99226 10.959C7.99226 13.4626 9.21834 15.6816 11.1044 17.047C11.0923 17.053 11.0802 17.0561 11.068 17.0621C9.71179 17.6343 8.4948 18.4547 7.45037 19.5021C6.41111 20.5392 5.58251 21.7677 5.01033 23.1198C4.44822 24.4435 4.14506 25.8627 4.11726 27.3006C4.11646 27.3329 4.12212 27.365 4.13393 27.3951C4.14574 27.4252 4.16345 27.4526 4.18602 27.4758C4.20859 27.4989 4.23556 27.5173 4.26535 27.5298C4.29513 27.5424 4.32713 27.5488 4.35945 27.5488H6.17586C6.30906 27.5488 6.41502 27.4429 6.41804 27.3127C6.47859 24.9756 7.41707 22.7868 9.07605 21.1278C10.7926 19.4113 13.0721 18.4668 15.5001 18.4668C17.928 18.4668 20.2076 19.4113 21.9241 21.1278C23.5831 22.7868 24.5216 24.9756 24.5821 27.3127C24.5851 27.4459 24.6911 27.5488 24.8243 27.5488H26.6407C26.673 27.5488 26.705 27.5424 26.7348 27.5298C26.7646 27.5173 26.7916 27.4989 26.8141 27.4758C26.8367 27.4526 26.8544 27.4252 26.8662 27.3951C26.878 27.365 26.8837 27.3329 26.8829 27.3006C26.8526 25.8535 26.5529 24.4458 25.9898 23.1168ZM15.5001 16.166C14.1105 16.166 12.8027 15.6241 11.8188 14.6402C10.8349 13.6563 10.293 12.3485 10.293 10.959C10.293 9.56943 10.8349 8.26162 11.8188 7.27773C12.8027 6.29385 14.1105 5.75195 15.5001 5.75195C16.8896 5.75195 18.1974 6.29385 19.1813 7.27773C20.1652 8.26162 20.7071 9.56943 20.7071 10.959C20.7071 12.3485 20.1652 13.6563 19.1813 14.6402C18.1974 15.6241 16.8896 16.166 15.5001 16.166Z" fill="#00755E"/>
</svg>
