<svg width="38" height="38" viewBox="0 0 38 38" fill="none" xmlns="http://www.w3.org/2000/svg">
<path d="M17.9906 23.4456C19.5839 22.3872 20.7941 20.844 21.4422 19.0444C22.0903 17.2447 22.1417 15.2843 21.589 13.4531C21.0362 11.6219 19.9086 10.0174 18.373 8.87689C16.8374 7.73641 14.9755 7.12061 13.0627 7.12061C11.1499 7.12061 9.28797 7.73641 7.75239 8.87689C6.21681 10.0174 5.0892 11.6219 4.53644 13.4531C3.98368 15.2843 4.03514 17.2447 4.6832 19.0444C5.33126 20.844 6.5415 22.3872 8.13479 23.4456C5.41874 24.4474 3.0713 26.2511 1.4036 28.6174C1.31261 28.7449 1.24774 28.8891 1.21271 29.0417C1.17768 29.1943 1.17318 29.3524 1.19948 29.5068C1.22578 29.6611 1.28235 29.8088 1.36595 29.9412C1.44954 30.0736 1.5585 30.1882 1.68655 30.2784C1.8146 30.3685 1.95922 30.4324 2.11208 30.4665C2.26493 30.5005 2.42301 30.5039 2.57721 30.4766C2.73141 30.4493 2.87869 30.3918 3.01056 30.3073C3.14244 30.2229 3.2563 30.1132 3.3456 29.9845C4.44153 28.4255 5.8965 27.153 7.58767 26.2746C9.27884 25.3961 11.1565 24.9375 13.0622 24.9375C14.9679 24.9374 16.8457 25.3959 18.5369 26.2742C20.2281 27.1526 21.6832 28.4249 22.7792 29.9839C22.8689 30.1116 22.9829 30.2204 23.1147 30.304C23.2464 30.3876 23.3934 30.4444 23.5471 30.4712C23.7009 30.498 23.8584 30.4942 24.0107 30.4601C24.1629 30.4259 24.307 30.3621 24.4346 30.2723C24.5622 30.1824 24.6708 30.0683 24.7543 29.9364C24.8378 29.8046 24.8944 29.6575 24.921 29.5038C24.9476 29.35 24.9437 29.1925 24.9093 29.0402C24.875 28.888 24.811 28.744 24.7211 28.6165C23.0534 26.2506 20.7063 24.4472 17.9906 23.4454V23.4456ZM6.53137 16.0314C6.53137 14.7396 6.91442 13.4769 7.63208 12.4028C8.34975 11.3288 9.36979 10.4916 10.5632 9.99731C11.7566 9.50297 13.0699 9.37363 14.3368 9.62564C15.6037 9.87765 16.7675 10.4997 17.6809 11.4131C18.5943 12.3265 19.2164 13.4903 19.4684 14.7572C19.7204 16.0241 19.591 17.3374 19.0967 18.5308C18.6024 19.7242 17.7652 20.7443 16.6912 21.4619C15.6171 22.1796 14.3544 22.5626 13.0626 22.5626C11.331 22.5607 9.67092 21.8719 8.4465 20.6475C7.22208 19.4231 6.53333 17.763 6.53137 16.0314ZM36.5347 30.2713C36.4072 30.3611 36.2633 30.4249 36.1111 30.4591C35.959 30.4932 35.8016 30.4971 35.6479 30.4704C35.4943 30.4438 35.3474 30.3871 35.2156 30.3036C35.0839 30.2202 34.9699 30.1116 34.8801 29.9841C33.7828 28.4265 32.3275 27.1552 30.6367 26.277C28.9458 25.3988 27.0688 24.9395 25.1635 24.9376C24.8486 24.9376 24.5466 24.8125 24.3239 24.5898C24.1012 24.3671 23.976 24.0651 23.976 23.7501C23.976 23.4352 24.1012 23.1332 24.3239 22.9105C24.5466 22.6878 24.8486 22.5626 25.1635 22.5626C26.0962 22.5616 27.0178 22.3608 27.8664 21.9738C28.715 21.5868 29.4708 21.0225 30.0831 20.319C30.6953 19.6154 31.1498 18.7889 31.4159 17.895C31.6821 17.0011 31.7537 16.0606 31.6259 15.1367C31.4981 14.2128 31.174 13.327 30.6753 12.5389C30.1765 11.7508 29.5148 11.0786 28.7346 10.5676C27.9544 10.0567 27.0737 9.7187 26.152 9.5765C25.2302 9.43431 24.2887 9.49118 23.3908 9.74329C23.088 9.82725 22.7643 9.78781 22.4906 9.63361C22.2168 9.47941 22.0154 9.22301 21.9303 8.92057C21.8452 8.61813 21.8834 8.29429 22.0366 8.01999C22.1898 7.74568 22.4454 7.54326 22.7476 7.45705C24.7904 6.8807 26.9719 7.05298 28.8989 7.94285C30.8259 8.83272 32.3716 10.3816 33.2576 12.3104C34.1435 14.2393 34.3113 16.4211 33.7308 18.4627C33.1503 20.5043 31.8596 22.2714 30.0914 23.4456C32.8071 24.4473 35.1543 26.2507 36.822 28.6167C37.0033 28.8742 37.0749 29.1932 37.021 29.5035C36.9672 29.8138 36.7923 30.09 36.5347 30.2713Z" fill="#00755E"/>
</svg>
