<svg width="24" height="24" viewBox="0 0 24 24" fill="none" xmlns="http://www.w3.org/2000/svg">
<circle cx="12" cy="12" r="12" fill="white"/>
<path d="M12.1443 9.34399C11.8296 9.34436 11.5175 9.40099 11.2227 9.51122L14.6449 12.9334C14.7566 12.635 14.8132 12.3188 14.8121 12.0001C14.809 11.2946 14.5266 10.619 14.0266 10.1212C13.5266 9.62345 12.8498 9.34399 12.1443 9.34399Z" fill="#E85E33"/>
<path d="M18.3345 11.8171C17.024 9.39433 14.7256 7.92822 12.1823 7.92822C11.4898 7.92985 10.802 8.04142 10.1445 8.25878L10.7706 8.88878C11.2318 8.7696 11.706 8.7082 12.1823 8.706C14.3718 8.706 16.3629 9.92711 17.549 11.9843C17.1139 12.7476 16.5371 13.4207 15.8495 13.9677L16.4018 14.5199C17.1974 13.878 17.8583 13.085 18.3462 12.1866L18.4473 11.9999L18.3345 11.8171Z" fill="#E85E33"/>
<path d="M6.89411 7.24766L8.62856 8.9821C7.53225 9.68798 6.63624 10.6643 6.02689 11.8171L5.92578 11.9999L6.02689 12.1865C7.33745 14.6093 9.63578 16.0754 12.1791 16.0754C13.1718 16.0752 14.1516 15.8506 15.0452 15.4182L16.9897 17.3627L17.6702 16.7793L7.55911 6.66821L6.89411 7.24766ZM10.1219 10.4754C9.75806 10.9885 9.58753 11.6138 9.64049 12.2406C9.69346 12.8674 9.9665 13.4552 10.4113 13.8999C10.856 14.3447 11.4438 14.6178 12.0706 14.6707C12.6974 14.7237 13.3227 14.5532 13.8358 14.1893L14.458 14.8115C13.7377 15.1194 12.9625 15.2782 12.1791 15.2782C9.98967 15.2782 7.99856 14.0571 6.81245 11.9999C7.38167 10.992 8.20145 10.1481 9.19245 9.54988L10.1219 10.4754Z" fill="#E85E33"/>
</svg>
