<svg width="71" height="70" viewBox="0 0 71 70" fill="none" xmlns="http://www.w3.org/2000/svg">
<rect x="0.5" width="70" height="70" rx="35" fill="#C4C4C4"/>
<rect x="0.5" width="70" height="70" rx="35" fill="#E4572E"/>
<rect x="0.5" width="70" height="70" rx="35" fill="url(#paint0_linear_17521_336)"/>
<path opacity="0.4" d="M41.8463 28.2758L41.7297 28.0194C41.4147 27.3552 41.053 26.586 40.8313 26.1432C40.2947 25.0943 39.373 24.5117 38.2413 24.5H32.7463C31.6147 24.5117 30.7047 25.0943 30.168 26.1432C29.9347 26.6093 29.538 27.4484 29.2113 28.136L29.1413 28.2758C29.1063 28.369 29.013 28.4156 28.9197 28.4156C26.108 28.4156 23.833 30.6998 23.833 33.4967V40.419C23.833 43.2159 26.108 45.5 28.9197 45.5H42.0797C44.8797 45.5 47.1663 43.2159 47.1663 40.419V33.4967C47.1663 30.6998 44.8797 28.4156 42.0797 28.4156C41.9747 28.4156 41.893 28.3574 41.8463 28.2758Z" fill="#F8F8F8"/>
<path fill-rule="evenodd" clip-rule="evenodd" d="M40.9942 32.7507C40.9942 33.3334 41.4609 33.7995 42.0442 33.7995C42.6276 33.7995 43.1059 33.3334 43.1059 32.7507C43.1059 32.168 42.6276 31.6902 42.0442 31.6902C41.4609 31.6902 40.9942 32.168 40.9942 32.7507ZM38.7309 39.789C37.9026 40.6164 36.7593 41.1291 35.4993 41.1291C34.2743 41.1291 33.1309 40.6513 32.2559 39.789C31.3926 38.9149 30.9143 37.7729 30.9143 36.5492C30.9026 35.3372 31.3809 34.1952 32.2443 33.3212C33.1193 32.4471 34.2743 31.9693 35.4993 31.9693C36.7243 31.9693 37.8793 32.4471 38.7426 33.3095C39.6059 34.1835 40.0843 35.3372 40.0843 36.5492C40.0726 37.8195 39.5593 38.9616 38.7309 39.789ZM35.4994 33.7167C34.7411 33.7167 34.0294 34.0081 33.4811 34.5558C32.9444 35.0919 32.6527 35.8027 32.6644 36.5369V36.5486C32.6644 37.3061 32.9561 38.0169 33.4927 38.553C34.0294 39.0891 34.7411 39.3804 35.4994 39.3804C37.0627 39.3804 38.3227 38.1102 38.3344 36.5486C38.3344 35.7911 38.0427 35.0802 37.5061 34.5441C36.9694 34.0081 36.2577 33.7167 35.4994 33.7167Z" fill="#F8F8F8"/>
<defs>
<linearGradient id="paint0_linear_17521_336" x1="35.5" y1="0" x2="35.5" y2="70" gradientUnits="userSpaceOnUse">
<stop stop-color="#FA7C47"/>
<stop offset="1" stop-color="#E4572E"/>
</linearGradient>
</defs>
</svg>
