<svg width="23" height="23" viewBox="0 0 23 23" fill="none" xmlns="http://www.w3.org/2000/svg">
<rect width="22.5494" height="22.5494" fill="#C4C4C4"/>
<g clip-path="url(#clip0_20256_644)">
<path fill-rule="evenodd" clip-rule="evenodd" d="M11.275 5.53296C8.10395 5.53296 5.5332 8.1037 5.5332 11.2747C5.5332 14.4457 8.10395 17.0165 11.275 17.0165C14.446 17.0165 17.0167 14.4457 17.0167 11.2747C17.0167 8.1037 14.446 5.53296 11.275 5.53296ZM11.7969 13.3626C11.7969 13.5011 11.7419 13.6338 11.6441 13.7317C11.5462 13.8296 11.4134 13.8846 11.275 13.8846C11.1365 13.8846 11.0038 13.8296 10.9059 13.7317C10.808 13.6338 10.753 13.5011 10.753 13.3626V11.7967H9.18705C9.04861 11.7967 8.91584 11.7417 8.81796 11.6438C8.72007 11.5459 8.66507 11.4132 8.66507 11.2747C8.66507 11.1363 8.72007 11.0035 8.81796 10.9056C8.91584 10.8077 9.04861 10.7527 9.18705 10.7527H10.753V9.18681C10.753 9.04837 10.808 8.9156 10.9059 8.81771C11.0038 8.71982 11.1365 8.66483 11.275 8.66483C11.4134 8.66483 11.5462 8.71982 11.6441 8.81771C11.7419 8.9156 11.7969 9.04837 11.7969 9.18681V10.7527H13.3629C13.5013 10.7527 13.6341 10.8077 13.732 10.9056C13.8299 11.0035 13.8849 11.1363 13.8849 11.2747C13.8849 11.4132 13.8299 11.5459 13.732 11.6438C13.6341 11.7417 13.5013 11.7967 13.3629 11.7967H11.7969V13.3626Z" fill="#252525"/>
</g>
<defs>
<clipPath id="clip0_20256_644">
<rect width="12.5275" height="12.5275" fill="white" transform="translate(5.01074 5.01099)"/>
</clipPath>
</defs>
</svg>
