<svg width="50" height="50" viewBox="0 0 50 50" fill="none" xmlns="http://www.w3.org/2000/svg">
<rect width="50" height="50" rx="13" fill="white"/>
<path d="M25 36.5C31.3513 36.5 36.5 31.3513 36.5 25C36.5 18.6487 31.3513 13.5 25 13.5C18.6487 13.5 13.5 18.6487 13.5 25C13.5 31.3513 18.6487 36.5 25 36.5Z" fill="#3B5998"/>
<path d="M27.8907 25.4502H25.8386V32.9679H22.7296V25.4502H21.251V22.8082H22.7296V21.0985C22.7296 19.8759 23.3104 17.9614 25.8663 17.9614L28.1693 17.9711V20.5356H26.4983C26.2242 20.5356 25.8388 20.6725 25.8388 21.2558V22.8107H28.1623L27.8907 25.4502Z" fill="white"/>
</svg>
