<svg width="40" height="40" viewBox="0 0 40 40" fill="none" xmlns="http://www.w3.org/2000/svg">
<circle cx="20" cy="20" r="19" stroke="#FF9B75" stroke-width="2"/>
<path fill-rule="evenodd" clip-rule="evenodd" d="M11.2204 22.8871C12.0018 22.1057 13.0616 21.6667 14.1667 21.6667H20C21.1051 21.6667 22.1649 22.1057 22.9463 22.8871C23.7277 23.6685 24.1667 24.7283 24.1667 25.8334V27.5C24.1667 27.9603 23.7936 28.3334 23.3333 28.3334C22.8731 28.3334 22.5 27.9603 22.5 27.5V25.8334C22.5 25.1703 22.2366 24.5344 21.7678 24.0656C21.2989 23.5967 20.663 23.3334 20 23.3334H14.1667C13.5036 23.3334 12.8677 23.5967 12.3989 24.0656C11.9301 24.5344 11.6667 25.1703 11.6667 25.8334V27.5C11.6667 27.9603 11.2936 28.3334 10.8333 28.3334C10.3731 28.3334 10 27.9603 10 27.5V25.8334C10 24.7283 10.439 23.6685 11.2204 22.8871Z" fill="#C4C4C4"/>
<path fill-rule="evenodd" clip-rule="evenodd" d="M11.2204 22.8871C12.0018 22.1057 13.0616 21.6667 14.1667 21.6667H20C21.1051 21.6667 22.1649 22.1057 22.9463 22.8871C23.7277 23.6685 24.1667 24.7283 24.1667 25.8334V27.5C24.1667 27.9603 23.7936 28.3334 23.3333 28.3334C22.8731 28.3334 22.5 27.9603 22.5 27.5V25.8334C22.5 25.1703 22.2366 24.5344 21.7678 24.0656C21.2989 23.5967 20.663 23.3334 20 23.3334H14.1667C13.5036 23.3334 12.8677 23.5967 12.3989 24.0656C11.9301 24.5344 11.6667 25.1703 11.6667 25.8334V27.5C11.6667 27.9603 11.2936 28.3334 10.8333 28.3334C10.3731 28.3334 10 27.9603 10 27.5V25.8334C10 24.7283 10.439 23.6685 11.2204 22.8871Z" fill="#E4572E"/>
<path fill-rule="evenodd" clip-rule="evenodd" d="M11.2204 22.8871C12.0018 22.1057 13.0616 21.6667 14.1667 21.6667H20C21.1051 21.6667 22.1649 22.1057 22.9463 22.8871C23.7277 23.6685 24.1667 24.7283 24.1667 25.8334V27.5C24.1667 27.9603 23.7936 28.3334 23.3333 28.3334C22.8731 28.3334 22.5 27.9603 22.5 27.5V25.8334C22.5 25.1703 22.2366 24.5344 21.7678 24.0656C21.2989 23.5967 20.663 23.3334 20 23.3334H14.1667C13.5036 23.3334 12.8677 23.5967 12.3989 24.0656C11.9301 24.5344 11.6667 25.1703 11.6667 25.8334V27.5C11.6667 27.9603 11.2936 28.3334 10.8333 28.3334C10.3731 28.3334 10 27.9603 10 27.5V25.8334C10 24.7283 10.439 23.6685 11.2204 22.8871Z" fill="url(#paint0_linear_428_20301)"/>
<path fill-rule="evenodd" clip-rule="evenodd" d="M17.0833 13.3334C15.7026 13.3334 14.5833 14.4526 14.5833 15.8334C14.5833 17.2141 15.7026 18.3334 17.0833 18.3334C18.464 18.3334 19.5833 17.2141 19.5833 15.8334C19.5833 14.4526 18.464 13.3334 17.0833 13.3334ZM12.9167 15.8334C12.9167 13.5322 14.7821 11.6667 17.0833 11.6667C19.3845 11.6667 21.25 13.5322 21.25 15.8334C21.25 18.1345 19.3845 20 17.0833 20C14.7821 20 12.9167 18.1345 12.9167 15.8334Z" fill="#C4C4C4"/>
<path fill-rule="evenodd" clip-rule="evenodd" d="M17.0833 13.3334C15.7026 13.3334 14.5833 14.4526 14.5833 15.8334C14.5833 17.2141 15.7026 18.3334 17.0833 18.3334C18.464 18.3334 19.5833 17.2141 19.5833 15.8334C19.5833 14.4526 18.464 13.3334 17.0833 13.3334ZM12.9167 15.8334C12.9167 13.5322 14.7821 11.6667 17.0833 11.6667C19.3845 11.6667 21.25 13.5322 21.25 15.8334C21.25 18.1345 19.3845 20 17.0833 20C14.7821 20 12.9167 18.1345 12.9167 15.8334Z" fill="#E4572E"/>
<path fill-rule="evenodd" clip-rule="evenodd" d="M17.0833 13.3334C15.7026 13.3334 14.5833 14.4526 14.5833 15.8334C14.5833 17.2141 15.7026 18.3334 17.0833 18.3334C18.464 18.3334 19.5833 17.2141 19.5833 15.8334C19.5833 14.4526 18.464 13.3334 17.0833 13.3334ZM12.9167 15.8334C12.9167 13.5322 14.7821 11.6667 17.0833 11.6667C19.3845 11.6667 21.25 13.5322 21.25 15.8334C21.25 18.1345 19.3845 20 17.0833 20C14.7821 20 12.9167 18.1345 12.9167 15.8334Z" fill="url(#paint1_linear_428_20301)"/>
<path fill-rule="evenodd" clip-rule="evenodd" d="M26.6667 15.8334C27.1269 15.8334 27.5 16.2064 27.5 16.6667V21.6667C27.5 22.1269 27.1269 22.5 26.6667 22.5C26.2064 22.5 25.8333 22.1269 25.8333 21.6667V16.6667C25.8333 16.2064 26.2064 15.8334 26.6667 15.8334Z" fill="#C4C4C4"/>
<path fill-rule="evenodd" clip-rule="evenodd" d="M26.6667 15.8334C27.1269 15.8334 27.5 16.2064 27.5 16.6667V21.6667C27.5 22.1269 27.1269 22.5 26.6667 22.5C26.2064 22.5 25.8333 22.1269 25.8333 21.6667V16.6667C25.8333 16.2064 26.2064 15.8334 26.6667 15.8334Z" fill="#E4572E"/>
<path fill-rule="evenodd" clip-rule="evenodd" d="M26.6667 15.8334C27.1269 15.8334 27.5 16.2064 27.5 16.6667V21.6667C27.5 22.1269 27.1269 22.5 26.6667 22.5C26.2064 22.5 25.8333 22.1269 25.8333 21.6667V16.6667C25.8333 16.2064 26.2064 15.8334 26.6667 15.8334Z" fill="url(#paint2_linear_428_20301)"/>
<path fill-rule="evenodd" clip-rule="evenodd" d="M23.3333 19.1667C23.3333 18.7064 23.7064 18.3334 24.1667 18.3334H29.1667C29.6269 18.3334 30 18.7064 30 19.1667C30 19.6269 29.6269 20 29.1667 20H24.1667C23.7064 20 23.3333 19.6269 23.3333 19.1667Z" fill="#C4C4C4"/>
<path fill-rule="evenodd" clip-rule="evenodd" d="M23.3333 19.1667C23.3333 18.7064 23.7064 18.3334 24.1667 18.3334H29.1667C29.6269 18.3334 30 18.7064 30 19.1667C30 19.6269 29.6269 20 29.1667 20H24.1667C23.7064 20 23.3333 19.6269 23.3333 19.1667Z" fill="#E4572E"/>
<path fill-rule="evenodd" clip-rule="evenodd" d="M23.3333 19.1667C23.3333 18.7064 23.7064 18.3334 24.1667 18.3334H29.1667C29.6269 18.3334 30 18.7064 30 19.1667C30 19.6269 29.6269 20 29.1667 20H24.1667C23.7064 20 23.3333 19.6269 23.3333 19.1667Z" fill="url(#paint3_linear_428_20301)"/>
<defs>
<linearGradient id="paint0_linear_428_20301" x1="20" y1="11.6667" x2="20" y2="28.3334" gradientUnits="userSpaceOnUse">
<stop stop-color="#FA7C47"/>
<stop offset="1" stop-color="#E4572E"/>
</linearGradient>
<linearGradient id="paint1_linear_428_20301" x1="20" y1="11.6667" x2="20" y2="28.3334" gradientUnits="userSpaceOnUse">
<stop stop-color="#FA7C47"/>
<stop offset="1" stop-color="#E4572E"/>
</linearGradient>
<linearGradient id="paint2_linear_428_20301" x1="20" y1="11.6667" x2="20" y2="28.3334" gradientUnits="userSpaceOnUse">
<stop stop-color="#FA7C47"/>
<stop offset="1" stop-color="#E4572E"/>
</linearGradient>
<linearGradient id="paint3_linear_428_20301" x1="20" y1="11.6667" x2="20" y2="28.3334" gradientUnits="userSpaceOnUse">
<stop stop-color="#FA7C47"/>
<stop offset="1" stop-color="#E4572E"/>
</linearGradient>
</defs>
</svg>
