<svg width="23" height="24" viewBox="0 0 23 24" fill="none" xmlns="http://www.w3.org/2000/svg">
<path d="M20.131 10.119V9.00595C20.131 4.03996 16.091 0 11.125 0C6.15901 0 2.11905 4.03996 2.11905 9.00595V10.119C0.911455 10.3651 0 11.4352 0 12.7143V15.628C0 17.0885 1.18826 18.2768 2.64881 18.2768H4.76786C5.35218 18.2768 5.82738 17.8016 5.82738 17.2173V11.125C5.82738 10.5407 5.35218 10.0655 4.76786 10.0655H3.17857V9.00595C3.17857 7.41269 3.65165 5.92857 4.46245 4.68336L4.71223 4.93341C5.01446 5.23564 5.4147 5.40145 5.84116 5.40145H5.8499C6.27212 5.39933 6.66626 5.23299 6.95948 4.93288C8.06509 3.80184 9.54446 3.17857 11.125 3.17857C12.7055 3.17857 14.1849 3.80184 15.2908 4.93314C15.5837 5.23299 15.9781 5.39933 16.4001 5.40145H16.4088C16.835 5.40145 17.2358 5.23537 17.5378 4.93341L17.7875 4.68336C18.5984 5.92857 19.0714 7.41269 19.0714 9.00595V10.0655H17.4821C16.8978 10.0655 16.4226 10.5407 16.4226 11.125V17.2173C16.4226 17.8016 16.8978 18.2768 17.4821 18.2768H19.0714V19.3363C19.0714 20.2128 18.3586 20.9256 17.4821 20.9256H13.4308C13.2022 20.1606 12.4928 19.6012 11.6548 19.6012H10.5952C9.57306 19.6012 8.74107 20.4332 8.74107 21.4554C8.74107 22.4775 9.57306 23.3095 10.5952 23.3095H11.6548C12.4928 23.3095 13.2022 22.7498 13.4308 21.9851H17.4821C18.9427 21.9851 20.131 20.7969 20.131 19.3363V18.2233C21.3385 17.9772 22.25 16.9068 22.25 15.628V12.7143C22.25 11.4352 21.3385 10.3651 20.131 10.119Z" fill="#00755E"/>
</svg>
